<svg width="40" height="40" viewBox="0 0 40 40" fill="none" xmlns="http://www.w3.org/2000/svg">
<g clip-path="url(#clip0_55068_190537)">
<path fill-rule="evenodd" clip-rule="evenodd" d="M20 40C8.954 40 0 31.046 0 20C0 8.954 8.954 0 20 0C31.046 0 40 8.954 40 20C40 31.046 31.046 40 20 40Z" fill="#F04452"/>
<path fill-rule="evenodd" clip-rule="evenodd" d="M24.1118 18.6572L20.8778 13.6822C20.7828 13.5359 20.6527 13.4156 20.4993 13.3324C20.346 13.2492 20.1743 13.2056 19.9998 13.2056C19.8254 13.2056 19.6536 13.2492 19.5003 13.3324C19.347 13.4156 19.2169 13.5359 19.1218 13.6822L15.8878 18.6572L12.0378 16.6672C11.8622 16.5765 11.6645 16.5373 11.4676 16.5541C11.2706 16.5709 11.0825 16.6431 10.9248 16.7623C10.7671 16.8815 10.6464 17.0428 10.5765 17.2277C10.5066 17.4126 10.4904 17.6135 10.5298 17.8072L12.1918 26.0142H27.8078L29.4698 17.8062C29.509 17.6126 29.4926 17.4118 29.4227 17.2271C29.3527 17.0424 29.2319 16.8812 29.0743 16.7621C28.9166 16.6431 28.7286 16.571 28.5317 16.5542C28.3349 16.5374 28.1374 16.5766 27.9618 16.6672L24.1118 18.6572Z" fill="#FBD635"/>
<path fill-rule="evenodd" clip-rule="evenodd" d="M26.8079 29.0142H13.1909C12.9257 29.0142 12.6713 28.9088 12.4838 28.7213C12.2963 28.5337 12.1909 28.2794 12.1909 28.0142V26.0142H27.8079V28.0142C27.8079 28.2794 27.7026 28.5337 27.515 28.7213C27.3275 28.9088 27.0731 29.0142 26.8079 29.0142Z" fill="#F9BE2D"/>
<path fill-rule="evenodd" clip-rule="evenodd" d="M21.57 10.7922C21.57 10.3758 21.4046 9.97644 21.1102 9.68201C20.8157 9.38758 20.4164 9.22217 20 9.22217C19.5836 9.22217 19.1843 9.38758 18.8898 9.68201C18.5954 9.97644 18.43 10.3758 18.43 10.7922C18.43 11.2086 18.5954 11.6079 18.8898 11.9023C19.1843 12.1968 19.5836 12.3622 20 12.3622C20.4164 12.3622 20.8157 12.1968 21.1102 11.9023C21.4046 11.6079 21.57 11.2086 21.57 10.7922ZM32 14.7762C32 14.3598 31.8346 13.9604 31.5402 13.666C31.2457 13.3716 30.8464 13.2062 30.43 13.2062C30.0136 13.2062 29.6143 13.3716 29.3198 13.666C29.0254 13.9604 28.86 14.3598 28.86 14.7762C28.86 15.1926 29.0254 15.5919 29.3198 15.8863C29.6143 16.1808 30.0136 16.3462 30.43 16.3462C30.8464 16.3462 31.2457 16.1808 31.5402 15.8863C31.8346 15.5919 32 15.1926 32 14.7762ZM8 14.7762C8 14.3598 8.16541 13.9604 8.45984 13.666C8.75427 13.3716 9.15361 13.2062 9.57 13.2062C9.98639 13.2062 10.3857 13.3716 10.6802 13.666C10.9746 13.9604 11.14 14.3598 11.14 14.7762C11.14 15.1926 10.9746 15.5919 10.6802 15.8863C10.3857 16.1808 9.98639 16.3462 9.57 16.3462C9.15361 16.3462 8.75427 16.1808 8.45984 15.8863C8.16541 15.5919 8 15.1926 8 14.7762Z" fill="#FBD635"/>
</g>
<defs>
<clipPath id="clip0_55068_190537">
<rect width="40" height="40" fill="white"/>
</clipPath>
</defs>
</svg>
