<svg width="100" height="66" viewBox="0 0 100 66" fill="none" xmlns="http://www.w3.org/2000/svg">
<g clip-path="url(#clip0_129_2304)">
<path d="M15.2292 63.4815C14.8106 63.4815 14.3858 63.3741 13.9968 63.1485C12.8142 62.467 12.4081 60.956 13.0928 59.7734L24.6356 39.7797C25.3171 38.5986 26.8265 38.191 28.0107 38.8756C29.1933 39.5572 29.5994 41.0681 28.9147 42.2507L17.3719 62.2445C16.9144 63.038 16.0851 63.4815 15.2292 63.4815Z" fill="#4B596A"/>
<path d="M54.2362 17.2387L33.6372 5.34575C31.8913 4.33742 29.7097 5.59783 29.7097 7.61292V11.2805C29.7097 15.958 27.2154 20.2792 23.1649 22.618L8.00742 31.3692C6.26152 32.3775 6.26152 34.8968 8.00742 35.9036L40.5865 54.7131C42.3324 55.7215 44.514 54.4611 44.514 52.446V34.9435C44.514 30.266 47.0084 25.9448 51.0588 23.6061L54.2362 21.7715C55.9821 20.7631 55.9821 18.2439 54.2362 17.2371V17.2387Z" fill="#EF4452"/>
</g>
<defs>
<clipPath id="clip0_129_2304">
<rect width="62.2422" height="62.2422" fill="white" transform="translate(0 1.87891)"/>
</clipPath>
</defs>
</svg>
