<svg width="100" height="66" viewBox="0 0 100 66" fill="none" xmlns="http://www.w3.org/2000/svg">
<path d="M26.5627 36.9949L15.3234 56.4619" stroke="#D17C5A" stroke-width="6.26791" stroke-linecap="round"/>
<circle cx="33.568" cy="24.8609" r="17.6934" transform="rotate(30 33.568 24.8609)" fill="#6EA0FF"/>
<path d="M39.1644 15.1676C44.5177 18.2585 46.3525 25.1038 43.262 30.4572L43.1141 30.7056C39.9573 35.8667 33.2414 37.5966 27.9716 34.5542L27.7232 34.4063C22.5619 31.2495 20.832 24.5337 23.8745 19.2638C26.9654 13.9106 33.811 12.0769 39.1644 15.1676ZM37.4393 18.1556C33.7364 16.0178 29.0013 17.2867 26.8633 20.9894C24.7254 24.6924 25.9937 29.4283 29.6967 31.5663C33.3997 33.704 38.1353 32.4345 40.2732 28.7316C42.4108 25.0287 41.1421 20.2935 37.4393 18.1556Z" fill="white"/>
<path d="M73.438 36.9949L84.6773 56.4619" stroke="#D17C5A" stroke-width="6.26791" stroke-linecap="round"/>
<circle cx="66.4323" cy="24.861" r="17.6934" transform="rotate(-30 66.4323 24.861)" fill="#FF6767"/>
<path fill-rule="evenodd" clip-rule="evenodd" d="M67.9552 12.5132C68.2018 11.5928 69.1482 11.0464 70.0687 11.293C70.9888 11.5398 71.5348 12.4854 71.2884 13.4056L68.869 22.4301C68.6897 23.0989 69.0866 23.7864 69.7554 23.9656L78.7802 26.3838C79.7007 26.6304 80.2466 27.576 80 28.4964C79.7533 29.4169 78.8078 29.9628 77.8873 29.7162L68.8624 27.298C68.1937 27.1188 67.5062 27.5157 67.3271 28.1845L64.9096 37.2088C64.663 38.1293 63.7175 38.6752 62.797 38.4286C61.8767 38.1818 61.3307 37.2363 61.5773 36.3159L63.9948 27.2914C64.1739 26.6227 63.7771 25.9353 63.1083 25.7562L54.0846 23.3383C53.1642 23.0916 52.6183 22.1461 52.8649 21.2256C53.1115 20.3052 54.0571 19.7593 54.9775 20.0059L64.0012 22.4238C64.67 22.603 65.3573 22.2062 65.5365 21.5375L67.9552 12.5132Z" fill="white"/>
</svg>
