<svg width="100" height="66" viewBox="0 0 100 66" fill="none" xmlns="http://www.w3.org/2000/svg">
<g clip-path="url(#clip0_129_2305)">
<path d="M17.8492 44.4317H7.74188C6.04411 44.4317 4.66846 43.056 4.66846 41.3582V24.6419C4.66846 22.9441 6.04411 21.5685 7.74188 21.5685H17.8492V44.4317Z" fill="#26B52E"/>
<path d="M17.8491 44.4316V21.5684L46.5977 7.93643C48.6363 6.97005 50.9876 8.45619 50.9876 10.7142V55.2874C50.9876 57.5438 48.6363 59.0315 46.5977 58.0652L17.8491 44.4316Z" fill="#A4EB8F"/>
<path d="M50.9875 27.2843H54.5045C56.2023 27.2843 57.5779 28.66 57.5779 30.3577V35.6425C57.5779 37.3402 56.2023 38.7159 54.5045 38.7159H50.9875" fill="#26B52E"/>
</g>
<defs>
<clipPath id="clip0_129_2305">
<rect width="62.2466" height="62.2466" fill="white" transform="translate(0 1.87671)"/>
</clipPath>
</defs>
</svg>
