<svg width="100" height="66" viewBox="0 0 100 66" fill="none" xmlns="http://www.w3.org/2000/svg">
<rect x="13.7207" y="19.96" width="68.9903" height="12.0126" rx="2.54555" transform="rotate(-12.5641 13.7207 19.96)" fill="#C0AFFF"/>
<rect x="14.2014" y="20.1991" width="72.0416" height="12.0126" rx="2.54555" transform="rotate(-7.62577 14.2014 20.1991)" fill="white"/>
<rect x="10.4927" y="19.325" width="83.445" height="41.7225" rx="3.81832" fill="#895CD2"/>
<path d="M22.0317 46.9104V34.2859H30.5061V36.4481H24.6472V39.5171H30.0702V41.6793H24.6472V44.7482H30.5236V46.9104H22.0317ZM35.0746 41.4351V46.9104H32.4939V37.4421H34.9526V39.0986H35.0572C35.4931 38 36.5045 37.32 37.8994 37.32C39.8698 37.32 41.1776 38.6626 41.1602 40.8772V46.9104H38.5969V41.3305C38.5969 40.1622 37.9518 39.4648 36.8881 39.4648C35.807 39.4648 35.0746 40.1797 35.0746 41.4351ZM47.4201 50.6594C44.8045 50.6594 43.2003 49.4911 43.0434 47.6951H45.5892C45.7287 48.4449 46.4436 48.7936 47.4724 48.7936C48.6756 48.7936 49.4777 48.2879 49.4777 46.9627V45.2364H49.3556C49.0069 46.0037 48.1699 46.7709 46.6529 46.7709C44.5081 46.7709 42.7993 45.2713 42.7993 42.1152C42.7993 38.9068 44.5604 37.32 46.6529 37.32C48.2397 37.32 49.0069 38.2616 49.3556 39.0288H49.4602V37.4421H52.0235V47.015C52.0235 49.4213 50.1054 50.6594 47.4201 50.6594ZM47.455 44.8354C48.7453 44.8354 49.4777 43.824 49.4777 42.1501C49.4777 40.4587 48.7453 39.3776 47.455 39.3776C46.1472 39.3776 45.4497 40.511 45.4497 42.1501C45.4497 43.7892 46.1472 44.8354 47.455 44.8354ZM56.6095 34.2859V46.9104H54.0288V34.2859H56.6095ZM58.6147 46.9104V37.4421H61.1954V46.9104H58.6147ZM59.9051 36.204C59.1204 36.204 58.4927 35.6112 58.4927 34.8962C58.4927 34.1639 59.1204 33.571 59.9051 33.571C60.6723 33.571 61.3 34.1639 61.3 34.8962C61.3 35.6112 60.6723 36.204 59.9051 36.204ZM68.6062 40.2494C68.5016 39.5868 67.9087 39.1509 67.0543 39.1509C66.2173 39.1509 65.5721 39.5519 65.5896 40.1274C65.5721 40.5459 65.9209 40.8772 66.8102 41.069L68.5016 41.4177C70.3325 41.8013 71.2218 42.6209 71.2392 43.981C71.2218 45.8467 69.5478 47.1022 67.0369 47.1022C64.4736 47.1022 62.974 45.9514 62.7648 44.103H65.3629C65.485 44.8528 66.0953 45.2364 67.0369 45.2364C67.9785 45.2364 68.6062 44.8528 68.6062 44.2425C68.6062 43.7543 68.2051 43.4579 67.3158 43.266L65.7465 42.9522C63.9505 42.6034 63.0089 41.6618 63.0263 40.2669C63.0089 38.4534 64.5782 37.32 67.0194 37.32C69.4083 37.32 70.8905 38.4534 71.03 40.2494H68.6062ZM75.4067 41.4351V46.9104H72.826V34.2859H75.3369V39.0986H75.4415C75.8775 38 76.8365 37.32 78.2664 37.32C80.2367 37.32 81.5445 38.6452 81.5445 40.8772V46.9104H78.9638V41.3305C78.9638 40.1622 78.3361 39.4648 77.255 39.4648C76.1739 39.4648 75.4067 40.1797 75.4067 41.4351Z" fill="white"/>
<path d="M5.1897 28.7312H11.8273" stroke="#C8C8C8" stroke-width="6.36387" stroke-linecap="round"/>
<path d="M5.1897 40.1863H11.8273" stroke="#C8C8C8" stroke-width="6.36387" stroke-linecap="round"/>
<path d="M5.1897 51.6412H11.8273" stroke="#C8C8C8" stroke-width="6.36387" stroke-linecap="round"/>
</svg>
