<svg width="52" height="52" viewBox="0 0 52 52" fill="none" xmlns="http://www.w3.org/2000/svg">
<path d="M44.799 23.5751C49.8667 33.1022 39.8784 42.6526 34.4261 46.2124L8.16748 30.1294C24.7776 15.5289 39.7314 14.0479 44.799 23.5751Z" fill="white"/>
<mask id="mask0_287_2764" style="mask-type:alpha" maskUnits="userSpaceOnUse" x="2" y="2" width="30" height="30">
<path d="M31.5032 15.6815C20.7027 16.1275 8.30556 26.4312 3.23782 31.779C0.303902 21.4112 12.1363 7.96547 18.4193 2.53857L31.5032 15.6815Z" fill="#D9D9D9"/>
</mask>
<g mask="url(#mask0_287_2764)">
<path d="M36.9557 30.2432C36.6522 30.4575 36.3321 30.676 35.9973 30.8974L29.9983 21.0664L36.9557 30.2432ZM20.2821 8.2507C14.1287 11.2856 6.58941 19.2995 6.55244 28.0699C4.26913 18.8077 13.0684 9.45203 18.2509 5.57153L20.2821 8.2507Z" fill="#6EA8FF"/>
</g>
<mask id="mask1_287_2764" style="mask-type:alpha" maskUnits="userSpaceOnUse" x="2" y="2" width="30" height="30">
<path d="M31.5032 15.6815C20.7027 16.1275 8.30556 26.4312 3.23782 31.779C0.303901 21.4112 12.1363 7.96547 18.4192 2.53857L31.5032 15.6815Z" fill="#D9D9D9"/>
</mask>
<g mask="url(#mask1_287_2764)">
<path d="M7.19691 37.0226C2.8518 23.5694 15.6022 12.9455 25.4848 10.486L39.6993 43.3753C30.5769 46.9547 11.542 50.4756 7.19691 37.0226Z" fill="#E7F1FF"/>
</g>
<mask id="mask2_287_2764" style="mask-type:alpha" maskUnits="userSpaceOnUse" x="2" y="2" width="30" height="30">
<path d="M31.5032 15.6815C20.7027 16.1275 8.30556 26.4312 3.23782 31.779C0.303901 21.4112 12.1363 7.96547 18.4192 2.53857L31.5032 15.6815Z" fill="#D9D9D9"/>
</mask>
<g mask="url(#mask2_287_2764)">
<path d="M39.1932 36.135C38.5405 36.5035 37.8244 36.882 37.0569 37.2603L30.2031 21.4022L39.1932 36.135ZM23.8339 10.9645C16.432 13.4036 8.08572 20.0392 6.56649 28.7944C6.14252 19.0124 15.2715 10.0202 21.7811 7.60034L23.8339 10.9645Z" fill="#B3D2FF"/>
</g>
</svg>
