<svg width="73" height="57" viewBox="6.5 125 36.5 28.5" fill="none" xmlns="http://www.w3.org/2000/svg">
<path d="M37.0675 129.895C37.1031 130.192 37.1031 130.501 37.0793 130.786C37.0556 131.082 36.9843 131.379 36.9012 131.664C36.7825 131.593 36.6637 131.498 36.5331 131.427C36.4143 131.344 36.2956 131.261 36.1887 131.178C36.0818 131.094 35.9631 131.011 35.8562 130.916C35.7968 130.869 35.7493 130.821 35.7018 130.774C35.6425 130.726 35.595 130.679 35.5475 130.631C35.1318 130.251 34.7518 129.824 34.4193 129.337C34.2531 129.099 34.0987 128.838 33.9562 128.577C33.8137 128.316 33.6831 128.043 33.5643 127.769C33.3387 127.211 33.1606 126.629 33.0537 126C33.3625 126.047 33.6593 126.119 33.9443 126.226C33.9681 126.238 33.98 126.238 34.0037 126.249C34.0275 126.261 34.0512 126.261 34.075 126.273C34.1106 126.285 34.1581 126.309 34.1937 126.321C34.4668 126.427 34.74 126.57 34.9893 126.724C35.1318 126.819 35.2743 126.914 35.405 127.021C35.5356 127.116 35.6662 127.235 35.785 127.354C36.0225 127.579 36.2362 127.852 36.4262 128.126C36.6043 128.411 36.7468 128.696 36.8537 128.992C36.9606 129.301 37.0318 129.586 37.0675 129.895ZM38.4212 134.918C37.8814 134.896 37.3447 134.825 36.8181 134.704C36.3374 134.592 35.8712 134.425 35.4287 134.206C34.8231 133.909 34.3718 133.529 34.0037 133.054C33.98 133.018 33.9443 132.982 33.9206 132.947C33.8018 132.781 33.695 132.614 33.5881 132.424C33.8375 132.294 34.0868 132.187 34.3362 132.104C34.5856 132.021 34.835 131.973 35.0962 131.961C35.6068 131.926 36.1175 132.021 36.5925 132.246C37.5425 132.721 38.2312 133.731 38.4212 134.918ZM40.0243 132.496C39.965 132.804 39.8818 133.101 39.7631 133.374C39.6443 133.647 39.5018 133.909 39.3237 134.146C39.1456 134.384 38.9556 134.597 38.7418 134.799C38.2075 133.719 37.8631 132.65 37.7681 131.427C37.7206 130.809 37.7443 130.204 37.8275 129.598C37.9007 128.989 38.0483 128.39 38.2668 127.817C38.5043 128.031 38.7181 128.256 38.92 128.506C38.9437 128.541 38.9793 128.577 39.0031 128.613C39.2168 128.898 39.4068 129.206 39.5731 129.515C39.6562 129.669 39.7156 129.836 39.7868 130.002C39.8462 130.168 39.9056 130.334 39.9412 130.501C39.965 130.584 39.9887 130.667 40.0006 130.75C40.0125 130.833 40.0362 130.916 40.0481 130.999C40.0718 131.166 40.0956 131.344 40.1075 131.51C40.0956 131.854 40.0837 132.175 40.0243 132.496ZM39.1575 138.647C39.1575 138.789 39.1575 138.944 39.1456 139.086C39.1456 139.157 39.1337 139.229 39.1218 139.312C39.11 139.383 39.0981 139.454 39.0862 139.537C38.5637 139.312 38.0768 139.039 37.6493 138.742C37.4356 138.587 37.2218 138.433 37.0437 138.279C36.8581 138.121 36.6835 137.95 36.5212 137.768C35.91 137.122 35.5084 136.307 35.3693 135.429C35.6425 135.393 35.9156 135.393 36.1768 135.405C36.4381 135.429 36.6875 135.476 36.9368 135.547C37.0675 135.583 37.1862 135.631 37.2931 135.69C37.4118 135.737 37.5187 135.809 37.6375 135.868C37.8638 136.007 38.0714 136.175 38.255 136.367C38.6231 136.771 38.8962 137.257 39.0268 137.816C39.11 138.077 39.1456 138.362 39.1575 138.647ZM41.9718 135.429C41.9718 135.607 41.9718 135.785 41.96 135.951C41.9362 136.296 41.865 136.64 41.7818 136.961C41.6868 137.281 41.5562 137.578 41.4018 137.851C41.2475 138.124 41.0693 138.362 40.8675 138.576C40.4637 139.003 39.9887 139.324 39.4543 139.526C39.4425 139.371 39.4187 139.229 39.4068 139.074C39.395 138.92 39.3831 138.777 39.3831 138.623C39.3593 138.326 39.3712 138.041 39.3831 137.744C39.4187 137.162 39.49 136.581 39.6443 135.999C39.68 135.856 39.7275 135.702 39.7631 135.559C39.8106 135.417 39.8581 135.274 39.9175 135.132C39.965 134.989 40.0243 134.859 40.0837 134.716C40.1431 134.574 40.2143 134.443 40.2737 134.312C40.5454 133.775 40.876 133.269 41.2593 132.804C41.4137 133.089 41.5443 133.386 41.6512 133.695C41.6631 133.719 41.6631 133.731 41.675 133.754C41.6868 133.802 41.7106 133.849 41.7225 133.897C41.7225 133.921 41.7343 133.932 41.7343 133.956C41.8293 134.265 41.8887 134.574 41.9243 134.882C41.9481 135.072 41.96 135.251 41.9718 135.429ZM38.255 144.109C38.0412 143.907 37.8512 143.706 37.6731 143.492C37.4831 143.278 37.3168 143.064 37.1743 142.851C37.02 142.637 36.8775 142.411 36.7587 142.186C36.6993 142.079 36.64 141.96 36.5806 141.853C36.5212 141.734 36.4737 141.627 36.4262 141.521C36.165 140.879 36.0343 140.286 36.0343 139.68V139.466C36.0462 139.276 36.07 139.086 36.0937 138.884C36.6281 139.027 37.115 139.252 37.5187 139.573C37.7206 139.739 37.9106 139.917 38.0768 140.131C38.2312 140.345 38.3856 140.571 38.4806 140.832C38.92 141.853 38.825 143.088 38.255 144.109ZM42.53 139.692V139.799C42.4943 140.867 42.1856 141.901 41.6037 142.684C41.5087 142.815 41.4018 142.946 41.295 143.064C41.1881 143.183 41.0812 143.29 40.9625 143.385C40.5216 143.762 39.996 144.027 39.4306 144.157C39.1575 144.216 38.8725 144.252 38.5875 144.252C38.8368 143.064 39.2287 142.007 39.8937 141.01C40.0718 140.761 40.2381 140.523 40.4281 140.297C40.63 140.072 40.82 139.858 41.0337 139.656C41.4612 139.252 41.9362 138.896 42.4587 138.611C42.5062 138.967 42.53 139.336 42.53 139.692Z" fill="#C69A30"/>
<path d="M36.972 146.746C36.9126 146.876 36.8532 146.995 36.782 147.126L36.6751 147.304C36.6395 147.363 36.592 147.423 36.5564 147.482C36.4732 147.601 36.3782 147.708 36.2832 147.814C36.1882 147.921 36.0814 148.016 35.9745 148.111C35.8439 147.838 35.7251 147.577 35.6301 147.316C35.5351 147.054 35.4401 146.781 35.3689 146.52C35.3332 146.389 35.2976 146.259 35.2739 146.128C35.2405 145.999 35.2128 145.868 35.1907 145.736C35.167 145.606 35.1551 145.487 35.1314 145.356C35.1195 145.226 35.0957 145.107 35.0957 144.976C35.0839 144.727 35.072 144.489 35.0957 144.264C35.1076 144.157 35.1076 144.038 35.1314 143.931C35.1432 143.824 35.167 143.718 35.1907 143.611C35.2264 143.421 35.2857 143.243 35.3451 143.064C35.357 143.041 35.357 143.017 35.3689 142.993C35.3807 142.958 35.3926 142.934 35.4045 142.898C35.4282 142.827 35.4639 142.756 35.4995 142.696C35.547 142.601 35.5945 142.494 35.642 142.399C36.0932 142.72 36.4851 143.124 36.7582 143.575C36.8295 143.694 36.8889 143.813 36.9482 143.931C37.0076 144.05 37.0551 144.181 37.0907 144.299C37.1382 144.43 37.162 144.561 37.1976 144.691C37.2214 144.822 37.2332 144.964 37.2451 145.107C37.2926 145.665 37.1857 146.223 36.972 146.746ZM41.6982 144.489C41.6626 144.679 41.627 144.858 41.5795 145.036C41.532 145.214 41.4726 145.392 41.4132 145.558C41.2945 145.903 41.1282 146.223 40.9501 146.532C40.867 146.686 40.7601 146.829 40.6532 146.959C40.5464 147.102 40.4514 147.233 40.3326 147.351C40.0951 147.589 39.8576 147.814 39.5845 147.993C39.4539 148.088 39.3114 148.159 39.1807 148.23C39.0382 148.301 38.8957 148.361 38.7651 148.408C38.6226 148.456 38.4801 148.503 38.3495 148.527C38.207 148.563 38.0645 148.574 37.922 148.586C37.637 148.61 37.3639 148.61 37.0789 148.563C36.8057 148.515 36.5326 148.444 36.2595 148.337C36.3307 148.206 36.4139 148.088 36.497 147.957C36.5801 147.838 36.6514 147.708 36.7464 147.601C36.8295 147.482 36.9245 147.375 37.0076 147.256C37.0907 147.149 37.1857 147.031 37.2807 146.936C37.6489 146.508 38.0764 146.128 38.5395 145.784C38.6582 145.701 38.777 145.618 38.9076 145.534C39.0264 145.451 39.1451 145.38 39.2757 145.309C39.4064 145.238 39.537 145.166 39.6557 145.107L40.0476 144.929C40.5582 144.739 41.1045 144.573 41.6982 144.489Z" fill="#C69A30"/>
<path d="M34.8226 147.85C34.8226 147.993 34.8108 148.123 34.787 148.254C34.7633 148.384 34.7395 148.527 34.7039 148.658C34.4189 149.738 33.5876 150.605 32.5308 151.009C32.4951 150.712 32.4714 150.415 32.4595 150.13C32.4476 149.845 32.4595 149.572 32.4714 149.287C32.507 148.741 32.5783 148.23 32.7089 147.755C32.8989 147.043 33.1958 146.484 33.6114 145.998C33.6114 145.986 33.6233 145.986 33.6233 145.974C33.7539 145.819 33.9083 145.665 34.0626 145.523C34.217 145.76 34.3595 146.009 34.4783 146.259C34.7088 146.757 34.8264 147.301 34.8226 147.85ZM39.0739 149.714C38.9076 150.023 38.7058 150.296 38.492 150.558C38.4801 150.569 38.4683 150.581 38.4564 150.605C38.4564 150.605 38.4564 150.617 38.4445 150.617C38.4089 150.653 38.3851 150.7 38.3495 150.736V150.748C38.2664 150.843 38.1833 150.926 38.0883 151.009C37.9576 151.128 37.8389 151.258 37.6964 151.353C37.5658 151.46 37.4233 151.555 37.2808 151.65C37.1383 151.745 36.9958 151.816 36.8414 151.899C36.687 151.971 36.5445 152.042 36.3901 152.089C36.2358 152.137 36.0814 152.184 35.927 152.22C35.3095 152.363 34.7039 152.339 34.1576 152.173C33.8829 152.097 33.6194 151.985 33.3739 151.84C33.1245 151.698 32.8989 151.531 32.6851 151.329C32.8039 151.234 32.9108 151.139 33.0295 151.056C33.1483 150.973 33.267 150.89 33.3739 150.807C33.4926 150.724 33.6114 150.653 33.7301 150.581L34.0864 150.368C34.1458 150.332 34.2051 150.308 34.2764 150.273C34.3358 150.237 34.3951 150.213 34.4664 150.178C34.597 150.118 34.7158 150.059 34.8464 150.011C34.977 149.964 35.1076 149.904 35.2383 149.869C35.3689 149.821 35.5114 149.786 35.6539 149.75C35.7964 149.714 35.927 149.679 36.0695 149.655C36.212 149.631 36.3545 149.608 36.4851 149.584C36.7583 149.536 37.0551 149.524 37.3401 149.513C37.6251 149.501 37.9101 149.513 38.1951 149.548C38.5039 149.608 38.7889 149.655 39.0739 149.714Z" fill="#C69A30"/>
<path d="M12.4625 129.895C12.4269 130.192 12.4269 130.501 12.4506 130.786C12.4744 131.083 12.5456 131.379 12.6288 131.664C12.7475 131.593 12.8663 131.498 12.9969 131.427C13.1156 131.344 13.2344 131.261 13.3413 131.178C13.4481 131.094 13.555 131.011 13.6737 130.928C13.7212 130.881 13.7687 130.833 13.8281 130.786C13.8756 130.738 13.935 130.691 13.9825 130.643C14.3981 130.263 14.7781 129.848 15.1106 129.349C15.2769 129.111 15.4313 128.85 15.5738 128.589C15.7281 128.328 15.8588 128.054 15.9656 127.781C16.1913 127.223 16.3694 126.641 16.4763 126.012C16.1675 126.059 15.8706 126.131 15.5856 126.238C15.5619 126.249 15.55 126.249 15.5263 126.261C15.5025 126.273 15.4787 126.273 15.455 126.285C15.4194 126.297 15.3719 126.321 15.3363 126.333C15.0513 126.451 14.79 126.582 14.5288 126.736C14.3863 126.831 14.2556 126.926 14.1131 127.033C13.9825 127.128 13.8519 127.247 13.7331 127.366C13.4956 127.591 13.2819 127.864 13.0919 128.138C12.9256 128.411 12.7831 128.708 12.6644 128.993C12.5694 129.301 12.4981 129.586 12.4625 129.895ZM11.1088 134.918C11.6486 134.896 12.1852 134.825 12.7119 134.704C13.1926 134.592 13.6587 134.425 14.1013 134.206C14.7069 133.909 15.1581 133.529 15.5263 133.054C15.55 133.018 15.5856 132.983 15.6094 132.947C15.7281 132.781 15.835 132.614 15.9419 132.424C15.6925 132.294 15.4431 132.187 15.1938 132.104C14.9444 132.033 14.695 131.985 14.4338 131.961C13.9231 131.926 13.4244 132.021 12.9375 132.246C11.9875 132.721 11.2988 133.731 11.1088 134.918ZM9.50563 132.496C9.565 132.804 9.64812 133.101 9.76687 133.374C9.88562 133.648 10.0281 133.909 10.2063 134.146C10.3844 134.384 10.5744 134.598 10.7881 134.799C11.3225 133.719 11.6669 132.65 11.7619 131.427C11.8094 130.809 11.7856 130.204 11.7025 129.598C11.6669 129.301 11.6075 129.004 11.5363 128.708C11.465 128.411 11.3819 128.114 11.2631 127.817C11.0256 128.031 10.8119 128.256 10.61 128.506L10.5388 128.613C10.325 128.898 10.135 129.206 9.96875 129.515C9.8975 129.681 9.82625 129.836 9.755 130.002C9.69562 130.168 9.64813 130.334 9.60063 130.501C9.57688 130.584 9.55313 130.667 9.54125 130.75C9.49201 131.001 9.45634 131.255 9.43437 131.51C9.43437 131.854 9.44625 132.175 9.50563 132.496ZM10.3725 138.647C10.3725 138.789 10.3725 138.944 10.3844 139.086C10.3844 139.158 10.3963 139.229 10.4081 139.312C10.42 139.383 10.4319 139.454 10.4438 139.538C10.9663 139.312 11.4531 139.039 11.8806 138.742C12.0944 138.588 12.3081 138.433 12.4862 138.279C12.6762 138.113 12.8544 137.946 13.0087 137.768C13.6619 137.056 14.0063 136.319 14.1606 135.429C13.8875 135.393 13.6144 135.393 13.3531 135.405C13.0919 135.429 12.8425 135.476 12.5931 135.548C12.4625 135.583 12.3437 135.631 12.2369 135.69C12.1181 135.738 12.0112 135.809 11.8925 135.868C11.6661 136.007 11.4586 136.175 11.275 136.367C10.9069 136.771 10.6338 137.258 10.5031 137.816C10.42 138.077 10.3844 138.362 10.3725 138.647ZM7.55813 135.429C7.55813 135.607 7.55813 135.785 7.57 135.951C7.59375 136.296 7.665 136.64 7.74812 136.961C7.84312 137.281 7.97375 137.578 8.12813 137.851C8.2825 138.124 8.46063 138.362 8.6625 138.576C9.06625 139.003 9.54125 139.324 10.0756 139.526C10.0875 139.371 10.1113 139.229 10.1231 139.074C10.135 138.92 10.1469 138.778 10.1469 138.623C10.1706 138.326 10.1588 138.041 10.1469 137.744C10.1113 137.163 10.04 136.581 9.88563 135.999C9.85 135.856 9.8025 135.702 9.76687 135.559C9.71937 135.417 9.67188 135.274 9.6125 135.132C9.565 135.013 9.5175 134.871 9.44625 134.74C9.26969 134.321 9.05504 133.92 8.805 133.541C8.63875 133.291 8.46062 133.042 8.27062 132.816C8.11625 133.101 7.98563 133.398 7.87875 133.707C7.86688 133.731 7.86688 133.743 7.855 133.766C7.84313 133.814 7.81938 133.861 7.8075 133.909C7.8075 133.933 7.79563 133.944 7.79563 133.968C7.70063 134.277 7.64125 134.586 7.60562 134.894C7.58187 135.073 7.57 135.251 7.55813 135.429ZM11.275 144.109C11.4887 143.908 11.6788 143.706 11.8569 143.492C12.0469 143.278 12.2131 143.064 12.3556 142.851C12.51 142.637 12.6525 142.411 12.7713 142.186C12.8306 142.079 12.89 141.96 12.9494 141.853C13.0088 141.734 13.0562 141.628 13.1037 141.521C13.365 140.879 13.4956 140.286 13.4956 139.68V139.466C13.4838 139.276 13.46 139.086 13.4363 138.884C12.9019 139.027 12.415 139.253 12.0113 139.573C11.8094 139.739 11.6194 139.918 11.4531 140.131C11.2988 140.345 11.1444 140.571 11.0494 140.832C10.61 141.853 10.705 143.088 11.275 144.109ZM7 139.692V139.799C7.03562 140.868 7.34438 141.901 7.92625 142.684C8.02125 142.815 8.12812 142.946 8.235 143.064C8.34187 143.183 8.44875 143.29 8.5675 143.385C9.00833 143.762 9.53393 144.027 10.0994 144.157C10.3725 144.216 10.6575 144.252 10.9425 144.252C10.6931 143.064 10.3013 142.008 9.63625 141.01C9.45813 140.761 9.29187 140.523 9.10187 140.298C8.9 140.072 8.71 139.858 8.49625 139.656C8.06875 139.253 7.59375 138.896 7.07125 138.611C7.02375 138.968 7 139.336 7 139.692Z" fill="#C69A30"/>
<path d="M12.5573 146.746C12.6167 146.876 12.6761 146.995 12.7473 147.126L12.8542 147.304C12.8898 147.363 12.9373 147.423 12.9729 147.482C13.0561 147.601 13.1511 147.708 13.2461 147.814C13.3411 147.921 13.4479 148.016 13.5548 148.111C13.6854 147.838 13.8042 147.577 13.8992 147.316C13.9942 147.054 14.0892 146.781 14.1604 146.52C14.1961 146.389 14.2317 146.259 14.2554 146.128C14.2911 145.998 14.3148 145.867 14.3386 145.736C14.3623 145.606 14.3742 145.487 14.3979 145.356C14.4217 145.226 14.4336 145.107 14.4454 144.976C14.4573 144.727 14.4692 144.489 14.4454 144.264L14.4098 143.931C14.3979 143.824 14.3742 143.718 14.3504 143.611C14.3148 143.421 14.2554 143.243 14.1961 143.064C14.1842 143.041 14.1842 143.017 14.1723 142.993C14.1604 142.958 14.1486 142.934 14.1367 142.898C14.1123 142.828 14.0804 142.76 14.0417 142.696C13.9942 142.601 13.9467 142.494 13.8992 142.399C13.4514 142.712 13.0717 143.112 12.7829 143.575C12.7117 143.694 12.6523 143.813 12.5929 143.931C12.5336 144.05 12.4861 144.181 12.4504 144.299C12.4029 144.43 12.3792 144.561 12.3436 144.691C12.3079 144.834 12.2842 144.964 12.2842 145.107C12.2367 145.665 12.3436 146.223 12.5573 146.746ZM7.83105 144.489C7.86668 144.679 7.9023 144.858 7.9498 145.036C7.9973 145.214 8.05668 145.392 8.11605 145.558C8.2348 145.903 8.40105 146.223 8.57918 146.532C8.6623 146.686 8.76918 146.829 8.87605 146.959C8.98293 147.102 9.07793 147.233 9.19668 147.351C9.43418 147.589 9.67168 147.814 9.9448 147.993C10.0754 148.088 10.2179 148.159 10.3486 148.23C10.4911 148.301 10.6336 148.361 10.7642 148.408C10.9067 148.456 11.0492 148.503 11.1798 148.527C11.3223 148.563 11.4648 148.574 11.6073 148.586C11.8923 148.61 12.1654 148.61 12.4504 148.563C12.7236 148.515 12.9967 148.444 13.2698 148.337C13.1986 148.206 13.1154 148.088 13.0323 147.957C12.9492 147.838 12.8779 147.708 12.7829 147.601C12.6998 147.482 12.6048 147.375 12.5217 147.256C12.4386 147.149 12.3436 147.031 12.2486 146.936C11.8804 146.508 11.4529 146.128 10.9898 145.784C10.8711 145.701 10.7523 145.618 10.6217 145.534C10.5029 145.451 10.3842 145.38 10.2536 145.309C10.1229 145.238 9.9923 145.166 9.87355 145.107L9.48168 144.929C8.97105 144.739 8.4248 144.573 7.83105 144.489Z" fill="#C69A30"/>
<path d="M14.7073 147.85C14.7073 147.993 14.7192 148.123 14.7429 148.254C14.7548 148.396 14.7904 148.527 14.8261 148.669C15.1111 149.75 15.9423 150.617 16.9992 151.021C17.0348 150.724 17.0586 150.427 17.0704 150.142C17.0823 149.857 17.0704 149.584 17.0586 149.299C17.0229 148.753 16.9517 148.242 16.8211 147.767C16.6595 147.119 16.3507 146.518 15.9186 146.009C15.9186 145.998 15.9067 145.998 15.9067 145.986C15.7761 145.831 15.6217 145.677 15.4673 145.534C15.3129 145.772 15.1704 146.021 15.0517 146.271C14.9448 146.52 14.8498 146.781 14.7904 147.054C14.7311 147.316 14.7073 147.577 14.7073 147.85ZM10.4561 149.714C10.6223 150.023 10.8242 150.296 11.0379 150.558C11.0498 150.569 11.0617 150.581 11.0736 150.605C11.0736 150.605 11.0736 150.617 11.0854 150.617C11.1211 150.653 11.1448 150.7 11.1804 150.736V150.748C11.2636 150.843 11.3467 150.926 11.4417 151.009C11.5723 151.128 11.6911 151.258 11.8336 151.353C11.9642 151.46 12.1067 151.555 12.2492 151.65C12.3917 151.745 12.5342 151.816 12.6886 151.899C12.8429 151.971 12.9854 152.042 13.1398 152.089C13.2942 152.137 13.4486 152.184 13.6029 152.22C14.2204 152.363 14.8261 152.339 15.3723 152.173C15.6454 152.101 15.9067 151.983 16.1561 151.84C16.4054 151.698 16.6311 151.531 16.8448 151.329C16.7261 151.234 16.6192 151.139 16.5004 151.056C16.3817 150.973 16.2629 150.89 16.1561 150.807C16.0373 150.724 15.9186 150.653 15.7998 150.581L15.4436 150.368C15.3842 150.332 15.3248 150.308 15.2536 150.273C15.1942 150.237 15.1348 150.213 15.0636 150.178C14.9329 150.118 14.8142 150.059 14.6836 150.011C14.5529 149.964 14.4223 149.904 14.2917 149.869C14.1611 149.821 14.0186 149.786 13.8761 149.75C13.7336 149.714 13.6029 149.679 13.4604 149.655C13.3179 149.631 13.1754 149.608 13.0448 149.584C12.7717 149.536 12.4748 149.524 12.1898 149.513C11.9048 149.501 11.6198 149.513 11.3348 149.548C11.0261 149.608 10.7411 149.655 10.4561 149.714Z" fill="#C69A30"/>
<path d="M31.857 138.69C33.9035 142.538 29.8698 146.395 27.6679 147.832L17.0635 141.337C23.7714 135.441 29.8105 134.843 31.857 138.69Z" fill="#C69A30"/>
<mask id="mask0_book_laurel" style="mask-type:alpha" maskUnits="userSpaceOnUse" x="14" y="130" width="13" height="13">
<path d="M26.4876 135.502C22.1259 135.682 17.1194 139.844 15.0728 142.003C13.8879 137.816 18.6664 132.386 21.2037 130.195L26.4876 135.502Z" fill="#D9D9D9"/>
</mask>
<g mask="url(#mask0_book_laurel)">
<path d="M28.6892 141.383C28.5666 141.47 28.4374 141.558 28.3022 141.647L25.8795 137.677L28.6892 141.383ZM21.9557 132.501C19.4706 133.727 16.4259 136.963 16.411 140.505C15.4889 136.765 19.0424 132.987 21.1354 131.419L21.9557 132.501Z" fill="#E3C46B"/>
</g>
<mask id="mask1_book_laurel" style="mask-type:alpha" maskUnits="userSpaceOnUse" x="14" y="130" width="13" height="13">
<path d="M26.4876 135.502C22.1259 135.682 17.1194 139.844 15.0728 142.003C13.8879 137.816 18.6664 132.386 21.2037 130.195L26.4876 135.502Z" fill="#D9D9D9"/>
</mask>
<g mask="url(#mask1_book_laurel)">
<path d="M16.6721 144.121C14.9173 138.688 20.0665 134.397 24.0575 133.404L29.7981 146.686C26.114 148.132 18.4268 149.554 16.6721 144.121Z" fill="#FBEFCB"/>
</g>
<mask id="mask2_book_laurel" style="mask-type:alpha" maskUnits="userSpaceOnUse" x="14" y="130" width="13" height="13">
<path d="M26.4876 135.502C22.1259 135.682 17.1194 139.844 15.0728 142.003C13.8879 137.816 18.6664 132.386 21.2037 130.195L26.4876 135.502Z" fill="#D9D9D9"/>
</mask>
<g mask="url(#mask2_book_laurel)">
<path d="M29.5935 143.762C29.3299 143.911 29.0408 144.064 28.7308 144.217L25.9629 137.813L29.5935 143.762ZM23.3907 133.597C20.4015 134.582 17.0309 137.262 16.4174 140.798C16.2462 136.848 19.9328 133.216 22.5617 132.239L23.3907 133.597Z" fill="#D8B655"/>
</g>
</svg>
