<svg width="24" height="24" viewBox="0 0 24 24" fill="none" xmlns="http://www.w3.org/2000/svg">
<mask id="mask0_55068_220170" style="mask-type:luminance" maskUnits="userSpaceOnUse" x="0" y="3" width="24" height="18">
<path d="M0 3H24V21H0V3Z" fill="white"/>
</mask>
<g mask="url(#mask0_55068_220170)">
<path d="M1.22602 18.22C-0.0379842 16.032 3.76202 11.472 9.71202 8.037C15.662 4.601 21.511 3.591 22.775 5.78" stroke="#8FC2FF" stroke-width="1.6"/>
<path d="M11.9677 20.9277C16.927 20.9277 20.9472 16.9074 20.9472 11.9482C20.9472 6.989 16.927 2.96875 11.9677 2.96875C7.00853 2.96875 2.98828 6.989 2.98828 11.9482C2.98828 16.9074 7.00853 20.9277 11.9677 20.9277Z" fill="#2F81F9"/>
<path d="M6.78505 6.5247C7.09436 6.69659 7.35295 6.94689 7.53481 7.25044C7.71667 7.55399 7.81539 7.90008 7.82103 8.25389C7.8303 8.74211 8.03119 9.20709 8.38032 9.54848C8.62807 9.82344 8.85824 10.1137 9.06944 10.4177C9.18252 10.6051 9.23867 10.8213 9.23106 11.0401C9.22684 11.1366 9.24318 11.2329 9.27899 11.3227C9.31479 11.4125 9.36924 11.4936 9.43876 11.5607C9.50827 11.6279 9.59126 11.6795 9.68221 11.7121C9.77317 11.7448 9.87001 11.7578 9.96635 11.7502H10.3132C10.8443 11.7502 10.8443 11.7502 10.6154 11.3074C10.5238 11.0377 10.5127 10.7471 10.5835 10.4712C10.6543 10.1953 10.804 9.946 11.0141 9.75372C11.3158 9.569 11.6668 9.69882 11.9942 9.66957C12.0761 9.64994 12.1613 9.64781 12.2441 9.66331C12.3269 9.67881 12.4055 9.71159 12.4748 9.75953C12.5441 9.80746 12.6025 9.86947 12.6462 9.9415C12.6899 10.0135 12.7179 10.0939 12.7284 10.1775C12.749 10.2735 12.8311 10.3828 12.9511 10.3356C13.0712 10.2883 13.2544 10.3084 13.2764 10.1159C13.2917 10.0013 13.2976 9.88571 13.2939 9.77014C13.2776 9.60997 13.3015 9.44827 13.3635 9.29965C13.4254 9.15103 13.5233 9.02017 13.6484 8.91889C13.753 8.83476 13.8386 8.72964 13.9 8.61032C13.9613 8.491 13.9969 8.36013 14.0045 8.22619C14.0244 8.05928 14.0975 7.90321 14.2131 7.78112C14.3286 7.65902 14.4804 7.57741 14.6459 7.54836C14.7473 7.53837 14.8425 7.49517 14.9167 7.42548C14.9909 7.35579 15.0401 7.26352 15.0564 7.16302C15.0621 7.11496 15.0772 7.0685 15.101 7.02634C15.1247 6.98419 15.1566 6.94718 15.1948 6.91748C15.233 6.88778 15.2768 6.86597 15.3235 6.85333C15.3702 6.84069 15.419 6.83747 15.4669 6.84386C15.5312 6.84721 15.5956 6.84464 15.6593 6.83616C15.8261 6.81256 16.0047 6.79973 15.999 6.56062C15.9934 6.32151 15.8076 6.29432 15.646 6.30407C15.4476 6.32633 15.2468 6.29725 15.0629 6.21962C14.879 6.14199 14.7181 6.01841 14.5957 5.86074C14.5497 5.82102 14.5192 5.76626 14.5098 5.70621C14.5004 5.64616 14.5127 5.58473 14.5443 5.53286C14.7465 5.09569 14.6177 4.9202 14.1339 4.9084C14.044 4.90353 13.9539 4.90353 13.864 4.9084C13.7305 4.9202 13.5561 4.83143 13.4755 4.98383C13.4399 5.06146 13.4307 5.14861 13.4492 5.23198C13.4677 5.31536 13.513 5.39038 13.5782 5.44563C13.7536 5.61855 13.7783 5.7535 13.5705 5.91256C13.3847 6.05315 13.454 6.2661 13.4473 6.45184C13.4386 6.68736 13.4109 6.8962 13.1158 6.92185C12.8644 6.94443 12.6438 6.90749 12.6027 6.59962C12.5735 6.38873 12.419 6.3328 12.2482 6.30971C12.1076 6.29755 11.9664 6.29361 11.8254 6.29791C11.5231 6.29483 11.2153 6.3251 11.2209 5.86587C11.226 5.43229 11.5175 5.45538 11.8064 5.45538C11.9218 5.45538 12.0383 5.46153 12.1527 5.44922C12.3821 5.42408 12.5781 5.3584 12.6099 5.07721C12.6366 4.84016 12.7972 4.75395 13.0204 4.77242C13.2436 4.7909 13.3257 4.69597 13.3103 4.48046C13.2898 4.18183 13.4576 4.10281 13.7336 4.06382C14.1607 4.02027 14.592 4.08105 14.9905 4.24094C15.3889 4.40083 15.7426 4.65506 16.0211 4.98177C16.4421 5.38685 16.9132 5.73638 17.4229 6.02185C17.8616 6.18615 18.3384 6.22036 18.796 6.12037C17.7783 4.92733 16.4663 4.02113 14.9902 3.4917C14.0995 3.59939 13.2003 3.6195 12.3056 3.55173C12.1374 3.54062 11.969 3.57246 11.8164 3.64427C11.6639 3.71607 11.532 3.82548 11.4333 3.96222C11.2871 4.16439 11.0536 4.33423 11.0229 4.62927C10.9987 4.87351 10.794 4.8966 10.5857 4.89711C10.3774 4.89762 10.1849 4.85965 10.1557 4.61695C10.1193 4.30908 9.93352 4.25264 9.67235 4.25777C9.32651 4.26598 8.98015 4.26393 8.6338 4.25777C8.34953 4.25059 8.11145 4.169 8.04167 3.86832C6.92313 4.41498 5.92993 5.18735 5.12462 6.13679C5.12103 6.1527 5.11538 6.16655 5.1123 6.18246C5.69102 6.13633 6.27096 6.25498 6.78505 6.5247Z" fill="#7BD58F"/>
<path d="M18.9103 16.3049C18.7958 16.2837 18.6905 16.2282 18.6083 16.1457C18.5261 16.0632 18.471 15.9577 18.4502 15.8431C18.4497 15.7194 18.4241 15.5971 18.3748 15.4836C18.3256 15.3701 18.2538 15.2678 18.1637 15.183C18.0737 15.0981 17.9673 15.0325 17.8511 14.9901C17.7349 14.9477 17.6112 14.9294 17.4877 14.9364C17.1514 14.8999 16.812 14.905 16.4769 14.9515C15.9554 15.0866 15.9706 14.4843 15.6198 14.4114C15.5873 14.4001 15.5588 14.3795 15.5379 14.3521C15.517 14.3247 15.5047 14.2918 15.5023 14.2575C15.5012 14.2155 15.4905 14.1744 15.4709 14.1373C15.4 14.036 15.2988 13.9813 15.1914 14.0698C15.053 14.1832 15.0641 14.3959 14.9213 14.5154C14.8997 14.5333 14.9385 14.5755 14.971 14.5893C15.2663 14.7152 15.4 15.0602 15.7474 15.1379C15.8773 15.1948 15.9998 15.2671 16.1124 15.3533C16.1954 15.3999 16.2194 15.4546 16.1437 15.5319C16.0041 15.684 15.9012 15.866 15.8426 16.064C15.7841 16.262 15.7717 16.4707 15.8062 16.6743C15.815 16.7887 15.8638 16.8963 15.944 16.9783C16.0243 17.0602 16.1309 17.1113 16.245 17.1226C16.3603 17.1396 16.4676 17.1917 16.5521 17.2719C16.6367 17.3521 16.6945 17.4564 16.7177 17.5706C16.7251 17.9757 16.7177 18.3825 16.7177 18.7883C16.7256 18.8477 16.7097 18.908 16.6734 18.9557C16.6371 19.0035 16.5833 19.0349 16.5239 19.0431C16.4131 19.0654 16.3014 19.0864 16.3132 19.241C16.325 19.3956 16.4648 19.3905 16.559 19.4057C16.7128 19.4141 16.8665 19.3882 17.0091 19.3298C17.1516 19.2714 17.2793 19.2546 17.383 19.1407C17.9519 18.6491 18.4918 18.1249 18.9998 17.5706C19.2065 17.3929 19.3369 17.0698 19.3637 16.7985C19.3675 16.6733 19.3222 16.5516 19.2375 16.4594C19.1528 16.3672 19.0353 16.3118 18.9103 16.3049Z" fill="#7BD58F"/>
<path d="M22.7741 5.78027C24.0381 7.96827 20.2381 12.5282 14.2881 15.9632C8.3381 19.4002 2.4901 20.4102 1.2251 18.2202" stroke="#8FC2FF" stroke-width="1.6"/>
</g>
</svg>
