<svg width="40" height="40" viewBox="0 0 40 40" fill="none" xmlns="http://www.w3.org/2000/svg">
<g clip-path="url(#clip0_286_2680)">
<path d="M29.546 26.371L24.538 24.468C21.614 23.357 18.385 23.357 15.461 24.468L10.453 26.371C8.042 27.287 6.047 29.007 4.782 31.209C4.263 32.113 3.935 33.113 3.686 34.125L3.046 36.726C2.949 37.119 3.247 37.499 3.652 37.499H36.347C36.752 37.499 37.05 37.119 36.953 36.726L36.313 34.124C36.064 33.112 35.736 32.112 35.217 31.208C33.953 29.005 31.957 27.286 29.547 26.37L29.546 26.371Z" fill="#5A81FF"/>
<path d="M20 25.0299C25.0468 25.0299 29.138 20.9387 29.138 15.8919C29.138 10.8451 25.0468 6.75391 20 6.75391C14.9532 6.75391 10.862 10.8451 10.862 15.8919C10.862 20.9387 14.9532 25.0299 20 25.0299Z" fill="#FFCCA8"/>
<path d="M11.661 19.579C13.6812 19.579 15.319 18.0429 15.319 16.148C15.319 14.2532 13.6812 12.717 11.661 12.717C9.64073 12.717 8.00299 14.2532 8.00299 16.148C8.00299 18.0429 9.64073 19.579 11.661 19.579Z" fill="#FFCCA8"/>
<path d="M28.339 19.579C30.3593 19.579 31.997 18.0429 31.997 16.148C31.997 14.2532 30.3593 12.717 28.339 12.717C26.3187 12.717 24.681 14.2532 24.681 16.148C24.681 18.0429 26.3187 19.579 28.339 19.579Z" fill="#FFCCA8"/>
<path d="M30.334 13.272C30.43 6.71898 24.538 1.42298 17.779 2.68898C13.558 3.47898 10.18 6.89598 9.439 11.126C9.305 11.889 9.254 12.64 9.277 13.372C9.279 13.43 9.325 13.482 9.384 13.482C9.618 13.484 10.215 13.603 10.798 14.662C10.886 14.821 11.1 14.857 11.221 14.721L16.997 8.25798C16.997 8.25798 24.315 14.135 29.144 13.814C29.25 13.807 29.373 13.77 29.494 13.718C29.816 13.537 30.086 13.2 30.334 13.272Z" fill="#333333"/>
<path d="M17.433 16.617C17.9698 16.617 18.405 16.0945 18.405 15.45C18.405 14.8054 17.9698 14.283 17.433 14.283C16.8962 14.283 16.461 14.8054 16.461 15.45C16.461 16.0945 16.8962 16.617 17.433 16.617Z" fill="black"/>
<path d="M22.567 16.617C23.1038 16.617 23.539 16.0945 23.539 15.45C23.539 14.8054 23.1038 14.283 22.567 14.283C22.0302 14.283 21.595 14.8054 21.595 15.45C21.595 16.0945 22.0302 16.617 22.567 16.617Z" fill="black"/>
<path d="M21.21 20.051C21.429 20.051 21.584 20.261 21.526 20.472C21.342 21.142 20.729 21.633 20.001 21.633C19.273 21.633 18.66 21.141 18.476 20.472C18.418 20.261 18.573 20.051 18.792 20.051H21.211H21.21Z" fill="#5C2F17"/>
<path d="M17.809 23.6279H22.191V27.7869C22.191 28.9959 21.209 29.9779 20 29.9779C18.791 29.9779 17.809 28.9959 17.809 27.7869V23.6279Z" fill="#FFCCA8"/>
<path d="M34.149 37.4999H5.851L4.627 23.0159C4.572 22.3709 5.081 21.8169 5.729 21.8169H34.271C34.918 21.8169 35.427 22.3709 35.373 23.0159L34.149 37.4999Z" fill="#C4C4C4"/>
</g>
<defs>
<clipPath id="clip0_286_2680">
<rect width="40" height="40" fill="white"/>
</clipPath>
</defs>
</svg>
