<svg width="140" height="140" viewBox="0 0 140 140" fill="none" xmlns="http://www.w3.org/2000/svg">
<rect width="140" height="140" rx="24" fill="#3787FF"/>
<path d="M35.1892 42.9598L26.2234 58.489" stroke="#D17C5A" stroke-width="5" stroke-linecap="round"/>
<circle cx="40.7775" cy="33.2804" r="14.1143" transform="rotate(30 40.7775 33.2804)" fill="#6EA0FF"/>
<path d="M45.2415 25.5477C49.5121 28.0133 50.976 33.4745 48.5105 37.7451L48.3919 37.9427C45.8736 42.0598 40.5166 43.4398 36.3128 41.0127L36.1155 40.8954C31.9982 38.3773 30.6177 33.0197 33.0447 28.8159C35.5103 24.5455 40.971 23.0824 45.2415 25.5477ZM43.8651 27.9318C40.9112 26.2266 37.1342 27.2386 35.4288 30.1923C33.7236 33.1462 34.7356 36.9231 37.6893 38.6286C40.6432 40.334 44.4209 39.3224 46.1264 36.3686C47.8318 33.4146 46.819 29.6373 43.8651 27.9318Z" fill="white"/>
<path d="M72.5823 42.9598L81.548 58.489" stroke="#D17C5A" stroke-width="5" stroke-linecap="round"/>
<circle cx="66.9938" cy="33.2804" r="14.1143" transform="rotate(-30 66.9938 33.2804)" fill="#FF6767"/>
<path d="M68.2084 23.4301C68.4051 22.6959 69.1597 22.2603 69.8939 22.457C70.6282 22.6537 71.0638 23.4083 70.8671 24.1425L68.9376 31.3412C68.7946 31.8747 69.1112 32.4231 69.6447 32.566L76.8441 34.4951C77.5782 34.6919 78.0139 35.4465 77.8173 36.1806C77.6206 36.9148 76.8659 37.3504 76.1317 37.1538L68.9323 35.2247C68.3988 35.0817 67.8504 35.3984 67.7075 35.9319L65.7792 43.1308C65.5824 43.865 64.8279 44.3007 64.0937 44.104C63.3595 43.9072 62.9239 43.1526 63.1205 42.4184L65.0489 35.2193C65.1918 34.6859 64.8752 34.1376 64.3417 33.9947L57.1435 32.0659C56.4092 31.8691 55.9736 31.1146 56.1703 30.3803C56.3671 29.6461 57.1216 29.2105 57.8558 29.4072L65.0541 31.336C65.5876 31.4789 66.1359 31.1624 66.2789 30.6289L68.2084 23.4301Z" fill="white"/>
<path d="M26.75 86.2188V100.438H24.8438V93.2656H23.5625V99.7812H21.6719V86.4219H23.5625V91.6406H24.8438V86.2188H26.75ZM20.4844 87.6875V96.8594H14.8281V87.6875H20.4844ZM16.6875 89.2656V95.2969H18.625V89.2656H16.6875ZM32.2969 86.6406C34.4531 86.6406 36.0938 87.9844 36.0938 89.8906C36.0938 91.7656 34.4531 93.125 32.2969 93.125C30.0938 93.125 28.4688 91.7656 28.4688 89.8906C28.4688 87.9844 30.0938 86.6406 32.2969 86.6406ZM32.2969 88.2656C31.2031 88.2656 30.3906 88.8594 30.4062 89.8906C30.3906 90.9062 31.2031 91.5156 32.2969 91.5156C33.375 91.5156 34.1719 90.9062 34.1719 89.8906C34.1719 88.8594 33.375 88.2656 32.2969 88.2656ZM40.1562 86.2188V93.3438H38.1562V86.2188H40.1562ZM40.1562 93.9375V97.7969H32.5938V98.7188H40.5469V100.281H30.6406V96.3438H38.1719V95.4688H30.6094V93.9375H40.1562ZM54.4062 86.2188V100.438H52.5V93.2656H51.2188V99.7812H49.3281V86.4219H51.2188V91.6406H52.5V86.2188H54.4062ZM48.1406 87.6875V96.8594H42.4844V87.6875H48.1406ZM44.3438 89.2656V95.2969H46.2812V89.2656H44.3438ZM59.9531 86.6406C62.1094 86.6406 63.75 87.9844 63.75 89.8906C63.75 91.7656 62.1094 93.125 59.9531 93.125C57.75 93.125 56.125 91.7656 56.125 89.8906C56.125 87.9844 57.75 86.6406 59.9531 86.6406ZM59.9531 88.2656C58.8594 88.2656 58.0469 88.8594 58.0625 89.8906C58.0469 90.9062 58.8594 91.5156 59.9531 91.5156C61.0312 91.5156 61.8281 90.9062 61.8281 89.8906C61.8281 88.8594 61.0312 88.2656 59.9531 88.2656ZM67.8125 86.2188V93.3438H65.8125V86.2188H67.8125ZM67.8125 93.9375V97.7969H60.25V98.7188H68.2031V100.281H58.2969V96.3438H65.8281V95.4688H58.2656V93.9375H67.8125ZM25.3125 115.344C25.3125 119.031 23.0156 121.156 20.0312 121.156C17.0156 121.156 14.7344 119.016 14.7344 115.344C14.7344 111.656 17.0156 109.531 20.0312 109.531C23.0156 109.531 25.3125 111.656 25.3125 115.344ZM22.9219 115.344C22.9219 112.922 21.7812 111.609 20.0312 111.609C18.2812 111.609 17.125 112.922 17.125 115.344C17.125 117.766 18.2812 119.078 20.0312 119.078C21.7812 119.078 22.9219 117.766 22.9219 115.344ZM28.6562 109.688L30.9688 113.578H31.0469L33.375 109.688H36.0312L32.5781 115.344L36.1094 121H33.3906L31.0469 117.109H30.9688L28.625 121H25.9219L29.4688 115.344L25.9844 109.688H28.6562ZM48.9062 109.141V110.016C48.8906 111.18 48.8906 112.758 48.4688 115.031C48.9766 115 49.4766 114.961 49.9688 114.906L50.1094 116.375C48.7969 116.562 47.4609 116.68 46.1406 116.75V121.656H44.1406V116.844C42.9609 116.883 41.8281 116.891 40.7656 116.891L40.5156 115.281C42.3203 115.273 44.3906 115.258 46.4688 115.156C46.5938 114.539 46.6875 113.961 46.7656 113.422L41.625 113.875L41.3594 112.234L46.9062 112C46.9297 111.531 46.9453 111.117 46.9531 110.734H41.7031V109.141H48.9062ZM52.7969 108.219V122.438H50.7812V108.219H52.7969ZM67.4531 119.094V120.719H54.4375V119.094H67.4531ZM61.9688 111.031C61.9688 113.016 63.75 114.891 66.9688 115.375L66.1875 116.953C63.6953 116.516 61.8516 115.297 60.9375 113.609C60.0312 115.328 58.2031 116.594 55.75 117.031L54.9688 115.438C58.0781 114.953 59.875 113.016 59.875 111.031V111.016H55.5156V109.422H66.3125V111.016H61.9688V111.031Z" fill="white"/>
</svg>
