<svg width="82" height="82" viewBox="0 0 82 82" fill="none" xmlns="http://www.w3.org/2000/svg">
<g clip-path="url(#clip0_128_2176)">
<path d="M37.0911 32.593H37.5821V30.594C37.5821 29.946 38.1071 29.421 38.7551 29.421C39.4031 29.421 39.9281 29.946 39.9281 30.594V32.593H41.8931V30.594C41.8931 29.946 42.4181 29.421 43.0661 29.421C43.7141 29.421 44.2391 29.946 44.2391 30.594V32.593H47.6331V28.876C47.6331 28.876 47.6251 28.876 47.6211 28.876H34.1241C34.1241 28.876 34.1161 28.876 34.1121 28.876V32.593H37.0881H37.0911Z" fill="#CCCCCC"/>
<path d="M36.7329 36.298H31.4729V39.456L36.8379 36.298H36.7329Z" fill="#CCCCCC"/>
<path d="M50.2771 39.456V36.298H45.1621L50.2771 39.456Z" fill="#CCCCCC"/>
<path d="M35.904 44.325H27.313V48.131H32.941V46.132C32.941 45.484 33.466 44.959 34.114 44.959C34.762 44.959 35.287 45.484 35.287 46.132V48.131H39.928V46.132C39.928 45.484 40.453 44.959 41.101 44.959C41.749 44.959 42.274 45.484 42.274 46.132V48.131H46.459V46.132C46.459 45.484 46.984 44.959 47.632 44.959C48.28 44.959 48.805 45.484 48.805 46.132V48.131H54.433V44.325H35.904Z" fill="#CCCCCC"/>
<path d="M58.275 42.9951C57.165 43.0551 53.915 42.9351 52.595 39.4551H50.275L45.165 36.2951H51.635C52.135 36.2951 52.625 36.1751 53.065 35.9551L54.075 35.4251C54.145 35.3951 54.115 35.2851 54.035 35.2851C53.125 35.3251 50.765 35.1651 49.795 32.5951H31.955C30.985 35.1651 28.625 35.3251 27.715 35.2851C27.635 35.2851 27.605 35.3951 27.675 35.4251L28.685 35.9551C29.125 36.1751 29.615 36.2951 30.115 36.2951H36.835L31.475 39.4551H29.155C27.835 42.9351 24.585 43.0551 23.475 42.9951C23.395 42.9851 23.365 43.0951 23.435 43.1351L25.075 43.9751C25.515 44.2051 26.005 44.3251 26.495 44.3251H55.255C55.745 44.3251 56.235 44.2051 56.675 43.9751L58.315 43.1351C58.385 43.0951 58.355 42.9851 58.275 42.9951ZM44.265 39.8151H37.515C37.315 39.8151 37.225 39.6051 37.315 39.4551C37.335 39.4251 37.345 39.4051 37.375 39.3751L40.835 36.9551C40.915 36.8951 41.025 36.9051 41.115 36.9651L44.405 39.3851C44.435 39.4051 44.445 39.4351 44.465 39.4551C44.555 39.6051 44.465 39.8151 44.265 39.8151Z" fill="#1F494D"/>
<path d="M40.8751 28.876H47.6231C47.6231 28.876 47.6311 28.876 47.6351 28.876C48.2721 28.874 48.8921 28.676 49.4121 28.308L50.3771 27.625C50.4371 27.582 50.4041 27.486 50.3301 27.492C49.4851 27.559 47.0121 27.429 46.0131 23.811H35.7381C34.7391 27.428 32.2661 27.559 31.4211 27.492C31.3471 27.486 31.3141 27.582 31.3741 27.625L32.3391 28.308C32.8591 28.676 33.4791 28.874 34.1161 28.876C34.1201 28.876 34.1241 28.876 34.1281 28.876H40.8751Z" fill="#1F494D"/>
<path d="M41.113 36.9611C41.03 36.9001 40.917 36.8991 40.832 36.9581L37.374 39.3791C37.344 39.4001 37.334 39.4291 37.317 39.4561C37.225 39.6051 37.313 39.8181 37.512 39.8181H44.266C44.465 39.8181 44.553 39.6061 44.461 39.4561C44.445 39.4311 44.436 39.4031 44.409 39.3831L41.112 36.9621L41.113 36.9611Z" fill="#CCCCCC"/>
<path d="M55.715 57.9351H26.035C25.345 57.9351 24.835 57.2851 25.015 56.6151L27.315 48.1351H32.945V46.1351C32.945 45.4851 33.465 44.9551 34.115 44.9551C34.765 44.9551 35.285 45.4851 35.285 46.1351V48.1351H39.925V46.1351C39.925 45.4851 40.455 44.9551 41.105 44.9551C41.755 44.9551 42.275 45.4851 42.275 46.1351V48.1351H46.465V46.1351C46.465 45.4851 46.985 44.9551 47.635 44.9551C48.285 44.9551 48.805 45.4851 48.805 46.1351V48.1351H54.435L56.735 56.6151C56.915 57.2851 56.405 57.9351 55.715 57.9351Z" fill="#6E6E6E"/>
<path d="M38.756 29.42C38.108 29.42 37.583 29.945 37.583 30.593V32.592H39.93V30.593C39.93 29.945 39.404 29.42 38.756 29.42Z" fill="#6E6E6E"/>
<path d="M43.067 29.42C42.419 29.42 41.894 29.945 41.894 30.593V32.592H44.241V30.593C44.241 29.945 43.716 29.42 43.068 29.42H43.067Z" fill="#6E6E6E"/>
</g>
<defs>
<clipPath id="clip0_128_2176">
<rect width="40" height="40" fill="white" transform="translate(20.875 20.875)"/>
</clipPath>
</defs>
</svg>
