<svg width="32" height="32" viewBox="0 0 32 32" fill="none" xmlns="http://www.w3.org/2000/svg">
<g clip-path="url(#clip0_286_2715)">
<path d="M16 26.9265C8.268 26.9265 2 26.2921 2 16.0657C2 8.33367 8.268 2.06567 16 2.06567C23.732 2.06567 30 8.33367 30 16.0657C30 26.2921 23.732 26.9265 16 26.9265Z" fill="#CECFCF"/>
<path d="M22.9471 20.5088V27.0448C22.9471 28.6408 21.6535 29.9344 20.0575 29.9344H11.9423C10.3463 29.9344 9.05273 28.6408 9.05273 27.0448V20.5088H22.9471Z" fill="#CECFCF"/>
<path d="M23.0103 15.1288C23.0103 13.5652 21.7427 12.2976 20.1791 12.2976C18.6155 12.2976 17.3479 13.5652 17.3479 15.1288V16.0976C17.3479 17.6612 18.6155 18.9288 20.1791 18.9288C21.7427 18.9288 23.0103 17.6612 23.0103 16.0976V15.1288Z" fill="#17171B"/>
<path d="M14.6519 15.1288C14.6519 13.5652 13.3843 12.2976 11.8207 12.2976C10.2571 12.2976 8.9895 13.5652 8.9895 15.1288V16.0976C8.9895 17.6612 10.2571 18.9288 11.8207 18.9288C13.3843 18.9288 14.6519 17.6612 14.6519 16.0976V15.1288Z" fill="#17171B"/>
<path d="M13.6 29.9345V27.0913C13.6 26.6489 13.2424 26.2913 12.8 26.2913C12.3576 26.2913 12 26.6489 12 27.0913V29.9345H13.6Z" fill="#A1A4A4"/>
<path d="M16.8 29.9345V27.0913C16.8 26.6489 16.4424 26.2913 16 26.2913C15.5576 26.2913 15.2 26.6489 15.2 27.0913V29.9345H16.8Z" fill="#A1A4A4"/>
<path d="M19.9999 29.9345V27.0913C19.9999 26.6489 19.6423 26.2913 19.1999 26.2913C18.7575 26.2913 18.3999 26.6489 18.3999 27.0913V29.9345H19.9999Z" fill="#A1A4A4"/>
<path d="M14.5761 20.3912L15.2705 19.404C15.6369 18.8832 16.4113 18.8904 16.7681 19.4184L17.4345 20.4056C17.8417 21.0096 17.4097 21.8232 16.6809 21.8232H15.3201C14.5833 21.8232 14.1529 20.9936 14.5761 20.3912Z" fill="#17171B"/>
</g>
<defs>
<clipPath id="clip0_286_2715">
<rect width="32" height="32" fill="white"/>
</clipPath>
</defs>
</svg>
