<svg width="60" height="60" viewBox="0 0 60 60" fill="none" xmlns="http://www.w3.org/2000/svg">
<g clip-path="url(#clip0_287_2726)">
<path d="M30 56.25C44.4975 56.25 56.25 44.4975 56.25 30C56.25 15.5025 44.4975 3.75 30 3.75C15.5025 3.75 3.75 15.5025 3.75 30C3.75 44.4975 15.5025 56.25 30 56.25Z" fill="#FFC84D"/>
<path d="M22.9276 26.954C24.6623 26.954 26.0686 25.122 26.0686 22.862C26.0686 20.6021 24.6623 18.77 22.9276 18.77C21.1929 18.77 19.7866 20.6021 19.7866 22.862C19.7866 25.122 21.1929 26.954 22.9276 26.954Z" fill="black"/>
<path d="M37.0726 26.954C38.8074 26.954 40.2136 25.122 40.2136 22.862C40.2136 20.6021 38.8074 18.77 37.0726 18.77C35.3379 18.77 33.9316 20.6021 33.9316 22.862C33.9316 25.122 35.3379 26.954 37.0726 26.954Z" fill="black"/>
<path d="M40.8465 36.6453L21.471 41.9643C20.6715 42.1833 19.8465 41.7138 19.6275 40.9143C19.4085 40.1148 19.878 39.2898 20.6775 39.0708L40.053 33.7518C40.8525 33.5328 41.6775 34.0023 41.8965 34.8018C42.1155 35.6013 41.646 36.4263 40.8465 36.6453Z" fill="#FF6D00"/>
</g>
<defs>
<clipPath id="clip0_287_2726">
<rect width="60" height="60" fill="white"/>
</clipPath>
</defs>
</svg>
