<svg width="32" height="32" viewBox="0 0 32 32" fill="none" xmlns="http://www.w3.org/2000/svg">
<g clip-path="url(#clip0_286_2705)">
<path d="M15.8247 30C23.5567 30 29.8247 23.732 29.8247 16C29.8247 8.26801 23.5567 2 15.8247 2C8.09272 2 1.82471 8.26801 1.82471 16C1.82471 23.732 8.09272 30 15.8247 30Z" fill="#FFC84D"/>
<path d="M9.69026 14.7392C9.50226 14.8536 9.26066 14.7032 9.28546 14.484C9.42386 13.268 10.3735 12.2808 11.6047 12.1728C12.8359 12.0648 13.9423 12.8728 14.2895 14.0456C14.3519 14.2568 14.1407 14.4472 13.9351 14.3672C13.4871 14.1928 12.7319 13.9896 11.7703 14.0736C10.8087 14.1576 10.0999 14.4888 9.68946 14.7384L9.69026 14.7392Z" fill="black"/>
<path d="M21.9585 14.7392C22.1465 14.8536 22.3881 14.7032 22.3633 14.484C22.2249 13.268 21.2753 12.2808 20.0441 12.1728C18.8129 12.0648 17.7065 12.8728 17.3593 14.0456C17.2969 14.2568 17.5081 14.4472 17.7137 14.3672C18.1617 14.1928 18.9169 13.9896 19.8785 14.0736C20.8401 14.1576 21.5489 14.4888 21.9593 14.7384L21.9585 14.7392Z" fill="black"/>
<path d="M25.7471 28.5456C25.5599 28.6696 25.3183 28.6696 25.1303 28.5456C24.5359 28.1528 23.2399 27.2144 22.6823 26.164C21.9463 24.7784 22.8103 23.396 23.9527 23.396C24.6039 23.396 24.9951 23.736 25.2119 24.0288C25.3263 24.1832 25.5519 24.1832 25.6655 24.0288C25.8823 23.736 26.2735 23.396 26.9247 23.396C28.0663 23.396 28.9303 24.7784 28.1951 26.164C27.6375 27.2144 26.3415 28.1528 25.7471 28.5456Z" fill="#F5172B"/>
<path d="M26.6958 11.3632C26.4182 11.5464 26.0598 11.5464 25.783 11.3632C24.9022 10.7816 22.9822 9.39044 22.1558 7.83444C21.0654 5.78164 22.3462 3.73364 24.0374 3.73364C25.0022 3.73364 25.5822 4.23764 25.903 4.67044C26.0718 4.89844 26.4062 4.89844 26.575 4.67044C26.8958 4.23684 27.4758 3.73364 28.4406 3.73364C30.1318 3.73364 31.4126 5.78164 30.3222 7.83444C29.4958 9.39044 27.5766 10.7808 26.6958 11.3632Z" fill="#F5172B"/>
<path d="M4.98156 24.8263C4.77356 24.9639 4.50476 24.9639 4.29676 24.8263C3.63596 24.3895 2.19596 23.3471 1.57676 22.1799C0.759158 20.6399 1.71916 19.1047 2.98796 19.1047C3.71116 19.1047 4.14636 19.4823 4.38716 19.8071C4.51436 19.9783 4.76476 19.9783 4.89116 19.8071C5.13196 19.4823 5.56716 19.1047 6.29036 19.1047C7.55916 19.1047 8.51916 20.6407 7.70156 22.1799C7.08156 23.3471 5.64236 24.3895 4.98156 24.8263Z" fill="#F5172B"/>
<path d="M15.8248 19.5968C13.4416 19.5968 11.6752 19.1704 10.62 18.816C10.1392 18.6544 9.76636 19.2512 10.124 19.6104C11.176 20.6672 13.3896 21.5776 15.8248 21.5776C18.26 21.5776 20.4736 20.6672 21.5256 19.6104C21.884 19.2504 21.5112 18.6544 21.0296 18.816C19.9736 19.1704 18.208 19.5968 15.8248 19.5968Z" fill="#FF6D00"/>
</g>
<defs>
<clipPath id="clip0_286_2705">
<rect width="32" height="32" fill="white"/>
</clipPath>
</defs>
</svg>
