<svg width="32" height="32" viewBox="0 0 32 32" fill="none" xmlns="http://www.w3.org/2000/svg">
<g clip-path="url(#clip0_286_2696)">
<path d="M8.5863 27.2104C12.003 27.2104 14.7727 22.1913 14.7727 16C14.7727 9.80862 12.003 4.78955 8.5863 4.78955C5.16965 4.78955 2.3999 9.80862 2.3999 16C2.3999 22.1913 5.16965 27.2104 8.5863 27.2104Z" fill="#E5E8EB"/>
<path d="M23.4135 27.2104C26.8301 27.2104 29.5999 22.1913 29.5999 16C29.5999 9.80862 26.8301 4.78955 23.4135 4.78955C19.9968 4.78955 17.2271 9.80862 17.2271 16C17.2271 22.1913 19.9968 27.2104 23.4135 27.2104Z" fill="#E5E8EB"/>
<path d="M7.0006 19.1255C8.72682 19.1255 10.1262 17.7261 10.1262 15.9999C10.1262 14.2736 8.72682 12.8743 7.0006 12.8743C5.27438 12.8743 3.875 14.2736 3.875 15.9999C3.875 17.7261 5.27438 19.1255 7.0006 19.1255Z" fill="#191F28"/>
<path d="M22.1632 19.1255C23.8894 19.1255 25.2888 17.7261 25.2888 15.9999C25.2888 14.2736 23.8894 12.8743 22.1632 12.8743C20.437 12.8743 19.0376 14.2736 19.0376 15.9999C19.0376 17.7261 20.437 19.1255 22.1632 19.1255Z" fill="#191F28"/>
<path d="M5.72303 15.6511C6.1357 15.6511 6.47023 15.3166 6.47023 14.9039C6.47023 14.4913 6.1357 14.1567 5.72303 14.1567C5.31036 14.1567 4.97583 14.4913 4.97583 14.9039C4.97583 15.3166 5.31036 15.6511 5.72303 15.6511Z" fill="white"/>
<path d="M20.9679 15.6511C21.3806 15.6511 21.7151 15.3166 21.7151 14.9039C21.7151 14.4913 21.3806 14.1567 20.9679 14.1567C20.5552 14.1567 20.2207 14.4913 20.2207 14.9039C20.2207 15.3166 20.5552 15.6511 20.9679 15.6511Z" fill="white"/>
</g>
<defs>
<clipPath id="clip0_286_2696">
<rect width="32" height="32" fill="white"/>
</clipPath>
</defs>
</svg>
