<svg width="82" height="82" viewBox="0 0 82 82" fill="none" xmlns="http://www.w3.org/2000/svg">
<g clip-path="url(#clip0_128_2125)">
<path d="M55.5379 36.508C55.2599 28.791 48.9299 22.551 41.2099 22.379C32.9539 22.195 26.2029 28.833 26.2029 37.048C26.2029 39.535 26.8239 41.877 27.9159 43.929L27.9099 43.925C27.9259 43.954 27.9409 43.98 27.9569 44.008C27.9979 44.084 28.0419 44.158 28.0849 44.234C28.1289 44.312 28.1739 44.39 28.2179 44.465C28.2889 44.587 28.3619 44.707 28.4369 44.826C28.4799 44.894 28.5219 44.959 28.5649 45.025C28.6199 45.11 28.6739 45.196 28.7299 45.28C30.8079 48.374 32.5749 48.596 33.2009 50.957H39.5509V43.895L36.1619 40.506C35.6139 39.958 35.6139 39.07 36.1619 38.522C36.7099 37.974 37.5979 37.974 38.1459 38.522L40.8969 41.273L43.6039 38.566C44.1519 38.018 45.0399 38.018 45.5879 38.566C46.1359 39.114 46.1359 40.002 45.5879 40.55L42.1989 43.939V50.956H48.5489C49.1769 48.586 50.9539 48.371 53.0409 45.25C53.0429 45.248 53.0439 45.245 53.0459 45.243C53.1459 45.094 53.2459 44.937 53.3469 44.774C53.3989 44.69 53.4499 44.606 53.4999 44.521C53.6139 44.33 53.7279 44.134 53.8419 43.924L53.8329 43.929C55.0039 41.728 55.6339 39.195 55.5369 36.507L55.5379 36.508Z" fill="#FFC33A"/>
<path d="M42.199 50.958V43.941L45.588 40.552C46.136 40.004 46.136 39.116 45.588 38.568C45.04 38.02 44.152 38.02 43.604 38.568L40.897 41.275L38.146 38.524C37.598 37.976 36.71 37.976 36.162 38.524C35.614 39.072 35.614 39.96 36.162 40.508L39.551 43.897V50.959H42.2L42.199 50.958Z" fill="#FF9000"/>
<path d="M33.2288 50.958C33.2358 51.116 33.2408 51.28 33.2428 51.452V54.331C33.2428 57.116 35.7008 59.374 38.4868 59.374H43.2628C46.0478 59.374 48.5368 57.116 48.5368 54.331V51.563C48.5368 51.349 48.5428 51.15 48.5518 50.957H33.2298L33.2288 50.958Z" fill="#7D8996"/>
<path d="M48.7231 51.183H33.0591V54.183H48.7231V51.183Z" fill="#4B596A"/>
</g>
<defs>
<clipPath id="clip0_128_2125">
<rect width="40" height="40" fill="white" transform="translate(20.875 20.875)"/>
</clipPath>
</defs>
</svg>
