<svg width="82" height="82" viewBox="0 0 82 82" fill="none" xmlns="http://www.w3.org/2000/svg">
<g clip-path="url(#clip0_128_2099)">
<path fill-rule="evenodd" clip-rule="evenodd" d="M53.708 47.455C53.708 51.122 48.041 54.622 40.875 54.622C33.709 54.622 28.042 50.955 28.042 47.455V38.288L40.875 34.455L53.708 38.122V47.455Z" fill="#4E5968"/>
<path fill-rule="evenodd" clip-rule="evenodd" d="M22.542 34.122L39.208 24.455C40.208 23.788 41.541 23.788 42.541 24.455L59.208 34.122C60.375 34.789 60.375 36.289 59.208 36.955L42.541 46.622C41.541 47.289 40.208 47.289 39.208 46.622L22.542 36.955C21.375 36.288 21.375 34.788 22.542 34.122Z" fill="#6B7683"/>
<path fill-rule="evenodd" clip-rule="evenodd" d="M41.375 34.6219L39.542 33.1219L27.875 40.4549V54.455C27.875 55.122 28.375 55.622 29.042 55.622C29.709 55.622 30.209 55.122 30.209 54.455V41.6219L41.375 34.6219Z" fill="#FFC100"/>
<path fill-rule="evenodd" clip-rule="evenodd" d="M43.542 33.622C43.542 34.622 42.375 35.455 40.875 35.455C39.375 35.455 38.208 34.622 38.208 33.622C38.208 32.622 39.375 31.789 40.875 31.789C42.375 31.622 43.542 32.622 43.542 33.622Z" fill="#303D4C"/>
<path fill-rule="evenodd" clip-rule="evenodd" d="M29.208 50.955C27.875 50.955 26.875 51.955 26.875 53.122V56.584C26.875 57.103 27.913 57.796 29.125 57.796C30.337 57.796 31.375 57.277 31.375 56.584V53.122C31.375 51.955 30.542 50.955 29.208 50.955Z" fill="#FFDA16"/>
</g>
<defs>
<clipPath id="clip0_128_2099">
<rect width="40" height="40" fill="white" transform="translate(20.875 20.875)"/>
</clipPath>
</defs>
</svg>
