<svg width="82" height="82" viewBox="0 0 82 82" fill="none" xmlns="http://www.w3.org/2000/svg">
<g clip-path="url(#clip0_128_2133)">
<path d="M58.315 42.305V54.735H47.615C48.225 54.165 48.615 53.365 48.635 52.475C49.225 52.235 49.635 51.665 49.635 50.995V35.695C49.635 34.805 48.925 34.085 48.035 34.085H27.845L35.395 24.015L36.075 23.115L36.355 22.745C36.965 21.925 38.185 21.925 38.795 22.745L39.075 23.115L44.555 30.415L45.305 31.415L47.375 28.645C47.995 27.825 49.215 27.825 49.825 28.645L56.915 38.095C57.825 39.305 58.315 40.785 58.315 42.305Z" fill="#7BD58F"/>
<path d="M42.186 52.5959H30.883C30.826 53.4389 30.456 54.1909 29.877 54.7349H43.193C42.614 54.1909 42.243 53.4379 42.186 52.5959Z" fill="#7BD58F"/>
<path d="M23.9979 54.7349H25.4509C24.8719 54.1909 24.5019 53.4379 24.4439 52.5959H23.4309V55.0339C23.5619 54.8579 23.7609 54.7349 23.9979 54.7349Z" fill="#7BD58F"/>
<path d="M58.319 54.735H47.619C47.039 55.28 46.264 55.619 45.406 55.619C44.548 55.619 43.773 55.279 43.193 54.735H29.877C29.297 55.28 28.522 55.619 27.664 55.619C26.806 55.619 26.031 55.279 25.451 54.735H23.998C23.761 54.735 23.562 54.857 23.431 55.033C23.343 55.152 23.28 55.293 23.28 55.452C23.28 55.848 23.601 56.17 23.998 56.17H58.319C58.715 56.17 59.037 55.849 59.037 55.452C59.037 55.055 58.716 54.735 58.319 54.735Z" fill="#6B7683"/>
<path d="M30.8841 52.5959H28.9171C28.8101 53.2039 28.3031 53.6749 27.6641 53.6749C27.0251 53.6749 26.5181 53.2039 26.4111 52.5959H24.4441C24.5011 53.4389 24.8711 54.1909 25.4511 54.7349C26.0311 55.2799 26.8061 55.6189 27.6641 55.6189C28.5221 55.6189 29.2971 55.2789 29.8771 54.7349C30.4561 54.1909 30.8271 53.4379 30.8841 52.5959Z" fill="#313D4C"/>
<path d="M48.638 52.477C48.452 52.553 48.248 52.596 48.035 52.596H46.659C46.552 53.204 46.045 53.675 45.406 53.675C44.767 53.675 44.26 53.204 44.153 52.596H42.186C42.243 53.439 42.613 54.191 43.192 54.735C43.772 55.28 44.547 55.619 45.405 55.619C46.263 55.619 47.038 55.279 47.618 54.735C48.225 54.165 48.609 53.368 48.637 52.476L48.638 52.477Z" fill="#313D4C"/>
<path d="M27.6641 53.6749C28.3031 53.6749 28.8091 53.2039 28.9171 52.5959H26.4121C26.5191 53.2039 27.0251 53.6749 27.6641 53.6749Z" fill="#6B7683"/>
<path d="M45.4061 53.6749C46.0451 53.6749 46.5521 53.2039 46.6591 52.5959H44.1541C44.2611 53.2039 44.7671 53.6749 45.4061 53.6749Z" fill="#6B7683"/>
<path d="M49.6389 44.451V37.491H23.4309V38.833H24.7749C25.6469 38.833 26.3539 39.54 26.3539 40.412V45.553C26.3539 46.425 25.6469 47.132 24.7749 47.132H23.4309V48.434H49.6389V44.451ZM41.3369 47.132H31.7329C30.8609 47.132 30.1539 46.425 30.1539 45.553V40.412C30.1539 39.54 30.8609 38.833 31.7329 38.833H41.3369C42.2089 38.833 42.9159 39.54 42.9159 40.412V45.553C42.9159 46.425 42.2089 47.132 41.3369 47.132ZM46.6859 45.553V40.412C46.6859 39.54 47.3929 38.833 48.2649 38.833H49.6089V47.132H48.2649C47.3929 47.132 46.6859 46.425 46.6859 45.553Z" fill="#FFE3A0"/>
<path d="M41.335 38.835H31.735C30.8624 38.835 30.155 39.5424 30.155 40.415V45.555C30.155 46.4276 30.8624 47.135 31.735 47.135H41.335C42.2076 47.135 42.915 46.4276 42.915 45.555V40.415C42.915 39.5424 42.2076 38.835 41.335 38.835Z" fill="#313D4C"/>
<path d="M26.3539 45.553V40.412C26.3539 39.54 25.6469 38.833 24.7749 38.833H23.4309V47.132H24.7749C25.6469 47.132 26.3539 46.425 26.3539 45.553Z" fill="#313D4C"/>
<path d="M49.6088 38.833H48.2648C47.3928 38.833 46.6858 39.54 46.6858 40.412V45.553C46.6858 46.425 47.3928 47.132 48.2648 47.132H49.6088V38.833Z" fill="#313D4C"/>
<path d="M25.2769 52.5961H48.0349C48.2489 52.5961 48.4519 52.552 48.6379 52.477C49.2249 52.238 49.6389 51.6641 49.6389 50.9921V49.951H23.4309V52.597L25.2769 52.5961Z" fill="#FFB72D"/>
<path d="M49.6389 37.491V35.692C49.6389 34.806 48.9209 34.088 48.0339 34.088H23.4309V37.492H49.6389V37.491Z" fill="#FFB72D"/>
<path d="M49.6389 49.9501H49.6399V48.4351H49.6389H23.4309V49.9501H49.6389Z" fill="#48B57A"/>
</g>
<defs>
<clipPath id="clip0_128_2133">
<rect width="40" height="40" fill="white" transform="translate(20.875 20.875)"/>
</clipPath>
</defs>
</svg>
