<svg width="24" height="24" viewBox="0 0 24 24" fill="none" xmlns="http://www.w3.org/2000/svg">
<path fill-rule="evenodd" clip-rule="evenodd" d="M9.7832 13.3472H14.9662L18.5032 22.8842H13.3202L9.7832 13.3472Z" fill="#CE2030"/>
<path fill-rule="evenodd" clip-rule="evenodd" d="M14.2171 13.3472H9.03407L5.49707 22.8842H10.6801L14.2171 13.3472Z" fill="#ED4452"/>
<path fill-rule="evenodd" clip-rule="evenodd" d="M3.5 9.11622C3.5 6.86175 4.39559 4.69961 5.98974 3.10546C7.58389 1.51131 9.74603 0.615723 12.0005 0.615723C14.255 0.615723 16.4171 1.51131 18.0113 3.10546C19.6054 4.69961 20.501 6.86175 20.501 9.11622C20.501 11.3707 19.6054 13.5328 18.0113 15.127C16.4171 16.7211 14.255 17.6167 12.0005 17.6167C9.74603 17.6167 7.58389 16.7211 5.98974 15.127C4.39559 13.5328 3.5 11.3707 3.5 9.11622Z" fill="#FABF2D"/>
<path fill-rule="evenodd" clip-rule="evenodd" d="M6.0498 9.11602C6.0498 8.33465 6.20371 7.56094 6.50272 6.83905C6.80174 6.11716 7.24001 5.46124 7.79252 4.90873C8.34503 4.35622 9.00095 3.91795 9.72284 3.61893C10.4447 3.31992 11.2184 3.16602 11.9998 3.16602C12.7812 3.16602 13.5549 3.31992 14.2768 3.61893C14.9987 3.91795 15.6546 4.35622 16.2071 4.90873C16.7596 5.46124 17.1979 6.11716 17.4969 6.83905C17.7959 7.56094 17.9498 8.33465 17.9498 9.11602C17.9498 10.6941 17.3229 12.2075 16.2071 13.3233C15.0912 14.4391 13.5778 15.066 11.9998 15.066C10.4218 15.066 8.90836 14.4391 7.79252 13.3233C6.67668 12.2075 6.0498 10.6941 6.0498 9.11602Z" fill="#FCD735"/>
</svg>
