<svg width="40" height="40" viewBox="0 0 40 40" fill="none" xmlns="http://www.w3.org/2000/svg">
<g clip-path="url(#clip0_55068_190743)">
<path opacity="0.3" d="M20 40.001C31.0457 40.001 40 31.0467 40 20.001C40 8.95528 31.0457 0.000976562 20 0.000976562C8.9543 0.000976562 0 8.95528 0 20.001C0 31.0467 8.9543 40.001 20 40.001Z" fill="#0090FF"/>
<path d="M28 28H12C10.895 28 10 27.105 10 26V14C10 12.895 10.895 12 12 12H28C29.105 12 30 12.895 30 14V26C30 27.105 29.105 28 28 28Z" fill="#B0BFCC"/>
<path d="M28 26.331H12C10.895 26.331 10 25.436 10 24.331V14C10 12.895 10.895 12 12 12H28C29.105 12 30 12.895 30 14V24.331C30 25.436 29.105 26.331 28 26.331Z" fill="#27A3FF"/>
<path d="M11 12H29C29.552 12 30 12.448 30 13V15H10V13C10 12.448 10.448 12 11 12Z" fill="#007CF7"/>
</g>
<defs><clipPath id="clip0_55068_190743"><rect width="40" height="40" fill="white"/></clipPath></defs>
</svg>
