<svg width="40" height="40" viewBox="0 0 40 40" fill="none" xmlns="http://www.w3.org/2000/svg">
<g clip-path="url(#clip0_55068_190640)">
<path d="M20 40C31.0457 40 40 31.0457 40 20C40 8.9543 31.0457 0 20 0C8.9543 0 0 8.9543 0 20C0 31.0457 8.9543 40 20 40Z" fill="#B0B8C1"/>
<path fill-rule="evenodd" clip-rule="evenodd" d="M27.664 24.0602C27.664 26.2142 24.232 28.3502 20 28.3502C15.767 28.3502 12.335 26.2142 12.335 24.0602V18.5482L20 16.2422L27.664 18.4622V24.0612V24.0602Z" fill="#303D4C"/>
<path fill-rule="evenodd" clip-rule="evenodd" d="M8.95381 16.0678L18.9998 10.2678C19.3039 10.0924 19.6488 10 19.9998 10C20.3509 10 20.6957 10.0924 20.9998 10.2678L31.0458 16.0678C31.1976 16.1555 31.3236 16.2816 31.4113 16.4334C31.4989 16.5853 31.545 16.7575 31.545 16.9328C31.545 17.1081 31.4989 17.2803 31.4113 17.4322C31.3236 17.584 31.1976 17.7101 31.0458 17.7978L20.9998 23.5988C20.6959 23.7747 20.351 23.8674 19.9998 23.8674C19.6487 23.8674 19.3037 23.7747 18.9998 23.5988L8.95381 17.7988C8.80202 17.7111 8.67598 17.585 8.58835 17.4332C8.50072 17.2813 8.45459 17.1091 8.45459 16.9338C8.45459 16.7585 8.50072 16.5863 8.58835 16.4344C8.67598 16.2826 8.80202 16.1555 8.95381 16.0678Z" fill="#8B95A1"/>
<path fill-rule="evenodd" clip-rule="evenodd" d="M20.2749 16.4169L19.1679 15.4839L12.1559 19.8779H12.1519V19.8809L12.1489 19.8829L12.1519 19.8839V28.3049L12.1499 28.3109L12.1519 28.3149V28.3219C12.1546 28.5189 12.2346 28.7069 12.3747 28.8454C12.5149 28.9839 12.7039 29.0616 12.9009 29.0619C13.0976 29.0611 13.2861 28.9831 13.4258 28.8447C13.5655 28.7063 13.6453 28.5185 13.6479 28.3219H13.6519V20.6369L20.2749 16.4169Z" fill="#FFCE57"/>
<path fill-rule="evenodd" clip-rule="evenodd" d="M21.6301 15.77C21.6301 16.404 20.9001 16.917 20.0001 16.917C19.1001 16.917 18.3701 16.404 18.3701 15.771C18.3701 15.138 19.1001 14.625 20.0001 14.625C20.9001 14.625 21.6301 15.137 21.6301 15.77Z" fill="#303D4C"/>
<path fill-rule="evenodd" clip-rule="evenodd" d="M14.2832 29.4919C14.2832 29.8639 13.6902 30.2319 12.9602 30.2319C12.2292 30.2319 11.6372 29.8639 11.6372 29.4919V27.5399L14.2832 27.5249V29.4909V29.4919Z" fill="#FFE295"/>
<path fill-rule="evenodd" clip-rule="evenodd" d="M14.2832 28.1871H11.6372V27.5251C11.6372 27.1743 11.7766 26.8378 12.0247 26.5896C12.2728 26.3415 12.6093 26.2021 12.9602 26.2021C13.3111 26.2021 13.6476 26.3415 13.8957 26.5896C14.1438 26.8378 14.2832 27.1743 14.2832 27.5251V28.1871Z" fill="#FFE295"/>
</g>
<defs><clipPath id="clip0_55068_190640"><rect width="40" height="40" fill="white"/></clipPath></defs>
</svg>
