<svg width="40" height="40" viewBox="0 0 40 40" fill="none" xmlns="http://www.w3.org/2000/svg">
<g clip-path="url(#clip0_55068_190096)">
<path d="M20 40C9 40 0 31 0 20C0 9 9 0 20 0C31 0 40 9 40 20C40 31 31 40 20 40Z" fill="#3180F2"/>
<path d="M25.8001 26.4L28.8001 27.7C29.1001 27.8 29.4001 27.6 29.3001 27.3L29.0001 24.6C30.7001 23.2 31.6001 21.1 31.6001 18.9C31.6001 14.5 27.8001 11 23.1001 11C18.4001 11 14.6001 14.5 14.6001 18.9C14.6001 23.3 18.4001 26.8 23.1001 26.8C24.1001 26.8 24.9001 26.7 25.8001 26.4Z" fill="white"/>
<path d="M13.2002 18.8002C13.2002 17.9002 13.3002 17.0002 13.6002 16.2002C10.9002 16.6002 8.80023 18.6002 8.50023 21.2002C8.30023 22.8002 8.90023 24.4002 9.90023 25.6002L9.50023 27.5002C9.50023 27.7002 9.60023 27.9002 9.90023 27.8002L12.2002 27.1002C12.8002 27.4002 13.4002 27.5002 14.1002 27.6002C15.6002 27.8002 17.0002 27.4002 18.2002 26.7002C15.2002 25.2002 13.2002 22.2002 13.2002 18.8002Z" fill="#CADEFC"/>
</g>
<defs><clipPath id="clip0_55068_190096"><rect width="40" height="40" fill="white"/></clipPath></defs>
</svg>
