<svg width="40" height="40" viewBox="0 0 40 40" fill="none" xmlns="http://www.w3.org/2000/svg">
<g clip-path="url(#clip0_55068_190114)">
<path opacity="0.3" fill-rule="evenodd" clip-rule="evenodd" d="M20 40C8.9 40 0 31 0 20C0 8.9 8.9 0 20 0C31.1 0 40 8.9 40 20C40 31 31 40 20 40Z" fill="#6CAFFF"/>
<path d="M30.597 20.096C29.507 20.073 28.573 19.898 27.794 19.63C24.946 18.674 23.99 16.604 23.99 16.604C23.99 16.604 22.079 18.852 19.989 18.852C17.922 18.852 15.831 16.604 15.831 16.604C14.564 18.204 13.252 19.096 12.117 19.63C10.429 20.41 9.16002 20.342 9.16002 20.342V20.275C8.22702 20.922 7.62402 21.923 7.62402 23.101C7.62402 25.035 9.31402 26.617 11.381 26.636C12.202 28.458 13.582 29.95 15.294 30.951C16.697 31.753 18.274 32.243 19.987 32.243C21.722 32.243 23.301 31.753 24.68 30.951C26.415 29.95 27.794 28.461 28.593 26.636C30.684 26.613 32.373 25.035 32.373 23.101C32.379 21.831 31.667 20.719 30.597 20.096ZM17.343 23.564C16.788 23.564 16.342 23.029 16.342 22.362C16.342 21.694 16.785 21.16 17.343 21.16C17.901 21.16 18.344 21.695 18.344 22.362C18.344 23.029 17.901 23.564 17.343 23.564ZM19.99 28.748C19.255 28.748 18.611 28.237 18.434 27.546C18.369 27.325 18.523 27.123 18.743 27.123H21.233C21.479 27.123 21.634 27.321 21.566 27.546C21.392 28.237 20.748 28.748 19.99 28.748ZM22.636 23.564C22.101 23.564 21.635 23.029 21.635 22.362C21.635 21.694 22.101 21.16 22.636 21.16C23.191 21.16 23.659 21.695 23.659 22.362C23.659 23.029 23.193 23.564 22.636 23.564Z" fill="#FFCBA7"/>
<path d="M17.3531 23.573C17.9081 23.573 18.3541 23.035 18.3541 22.37C18.3541 21.707 17.9051 21.167 17.3531 21.167C16.7981 21.167 16.3521 21.705 16.3521 22.37C16.3521 23.034 16.8011 23.573 17.3531 23.573Z" fill="black"/>
<path d="M22.6471 23.573C23.2021 23.573 23.6481 23.035 23.6481 22.37C23.6481 21.707 23.1991 21.167 22.6471 21.167C22.0921 21.167 21.6431 21.705 21.6431 22.37C21.6451 23.034 22.0941 23.573 22.6471 23.573Z" fill="black"/>
<path d="M19.9999 28.7438C20.7509 28.7438 21.3819 28.2378 21.5729 27.5468C21.6339 27.3318 21.4729 27.1128 21.2479 27.1128H18.7529C18.5279 27.1128 18.3689 27.3278 18.4279 27.5468C18.6179 28.2368 19.2489 28.7438 19.9999 28.7438Z" fill="#643718"/>
<path d="M12.1123 19.6199C13.2473 19.0909 14.5623 18.1959 15.8273 16.6079C15.8273 16.6079 17.9153 18.8569 19.9973 18.8569C22.0793 18.8569 23.9793 16.6079 23.9793 16.6079C23.9793 16.6079 24.9553 18.6749 27.7963 19.6369C28.5783 19.9009 29.5053 20.0759 30.5993 20.1029C30.6893 20.1069 30.7633 20.1259 30.8563 20.1259C30.9503 13.6579 25.3873 8.37695 18.7973 9.08595C13.7293 9.62895 9.67129 13.7499 9.19329 18.8249C9.14529 19.3099 9.13629 19.7939 9.15229 20.2659C9.15229 20.2939 9.14829 20.3229 9.14829 20.3499C9.15129 20.3489 10.4243 20.4059 12.1123 19.6199Z" fill="#3A3A3A"/>
<path d="M22.6661 13.552C22.5321 13.459 22.3641 13.552 22.4121 13.707L22.9981 15.567C23.0661 15.782 22.9471 16.013 22.7321 16.083C22.6641 16.103 22.5931 16.108 22.5231 16.092C21.0061 15.772 17.3991 14.933 16.1071 13.907C15.9071 13.754 15.6221 13.792 15.4711 13.991C15.4521 14.016 15.4381 14.04 15.4251 14.067C14.7511 15.396 12.9891 18.599 11.0451 19.857C10.7041 20.084 9.47611 20.538 9.16411 20.275L8.96011 19.547C8.96011 19.547 7.75811 11.274 13.7401 9.75502C15.9701 7.61302 19.1271 6.73702 22.1431 7.42202C27.4301 8.51002 30.4071 12.224 30.9021 14.618C31.1751 15.596 31.3891 17.095 31.1371 18.629L30.8521 20.13C30.3251 19.745 29.6101 19.767 29.5111 19.603L22.6661 13.552Z" fill="#3A3A3A"/>
</g>
<defs><clipPath id="clip0_55068_190114"><rect width="40" height="40" fill="white"/></clipPath></defs>
</svg>
