<svg width="40" height="40" viewBox="0 0 40 40" fill="none" xmlns="http://www.w3.org/2000/svg">
<g clip-path="url(#clip0_55068_190290)">
<path opacity="0.3" d="M20 40C31.0457 40 40 31.0457 40 20C40 8.9543 31.0457 0 20 0C8.9543 0 0 8.9543 0 20C0 31.0457 8.9543 40 20 40Z" fill="#F7B900"/>
<path d="M14 11.7998H27V19.7998H14V11.7998Z" fill="#F0FAF6"/>
<path d="M14 19.7998H27V27.7998H14V19.7998Z" fill="#FFCE0D"/>
<path d="M27.5 9.7998H12.5C11.9 9.7998 11.5 10.1998 11.5 10.7998V28.7998C11.5 29.3998 11.9 29.7998 12.5 29.7998H27.5C28.1 29.7998 28.5 29.3998 28.5 28.7998V10.7998C28.5 10.1998 28.1 9.7998 27.5 9.7998ZM24.4 25.9998H15.5C15.1 25.9998 14.7 25.6998 14.7 25.1998C14.7 24.6998 15 24.3998 15.5 24.3998H24.4C24.8 24.3998 25.2 24.6998 25.2 25.1998C25.2 25.6998 24.8 25.9998 24.4 25.9998ZM24.4 22.9998H15.5C15.1 22.9998 14.7 22.6998 14.7 22.1998C14.7 21.6998 15 21.3998 15.5 21.3998H24.4C24.8 21.3998 25.2 21.6998 25.2 22.1998C25.2 22.6998 24.8 22.9998 24.4 22.9998ZM24.4 17.0998H15.7C15.2 17.0998 14.8 16.6998 14.8 16.1998V14.2998C14.8 13.7998 15.2 13.3998 15.7 13.3998H24.4C24.9 13.3998 25.3 13.7998 25.3 14.2998V16.1998C25.3 16.6998 24.9 17.0998 24.4 17.0998Z" fill="#FFAC00"/>
<path fill-rule="evenodd" clip-rule="evenodd" d="M32 25.7998C32 26.5878 31.845 27.3678 31.543 28.0958C31.241 28.8238 30.8 29.4848 30.242 30.0428C29.685 30.5998 29.023 31.0418 28.295 31.3438C27.567 31.6458 26.787 31.8008 25.999 31.8008C25.211 31.8008 24.431 31.6458 23.703 31.3438C22.975 31.0418 22.314 30.6008 21.757 30.0428C21.2 29.4858 20.758 28.8238 20.456 28.0958C20.154 27.3678 19.999 26.5878 19.999 25.7998C19.999 24.2088 20.631 22.6828 21.756 21.5568C22.881 20.4308 24.407 19.7998 25.999 19.7998C27.591 19.7998 29.116 20.4318 30.242 21.5568C31.367 22.6818 31.999 24.2078 32 25.7998Z" fill="#EE4452"/>
<path fill-rule="evenodd" clip-rule="evenodd" d="M25.2788 28.1667C25.2788 28.3577 25.3548 28.5407 25.4898 28.6757C25.6248 28.8107 25.8078 28.8867 25.9988 28.8867C26.1898 28.8867 26.3728 28.8107 26.5078 28.6757C26.6428 28.5407 26.7188 28.3577 26.7188 28.1667C26.7188 27.9757 26.6428 27.7927 26.5078 27.6577C26.3728 27.5227 26.1898 27.4467 25.9988 27.4467C25.8078 27.4467 25.6248 27.5227 25.4898 27.6577C25.3548 27.7927 25.2788 27.9757 25.2788 28.1667ZM25.3998 25.9857V22.9857C25.3998 22.8277 25.4628 22.6747 25.5758 22.5617C25.6878 22.4497 25.8408 22.3857 25.9998 22.3857C26.1588 22.3857 26.3108 22.4487 26.4238 22.5617C26.5358 22.6747 26.5998 22.8267 26.5998 22.9857V25.9857C26.5998 26.1457 26.5368 26.2967 26.4238 26.4097C26.3108 26.5227 26.1578 26.5847 25.9998 26.5847C25.8418 26.5847 25.6888 26.5217 25.5758 26.4087C25.4638 26.2967 25.3998 26.1437 25.3998 25.9857Z" fill="white"/>
</g>
<defs><clipPath id="clip0_55068_190290"><rect width="40" height="40" fill="white"/></clipPath></defs>
</svg>
