<svg width="40" height="40" viewBox="0 0 40 40" fill="none" xmlns="http://www.w3.org/2000/svg">
<g clip-path="url(#clip0_55068_190739)">
<path opacity="0.2" fill-rule="evenodd" clip-rule="evenodd" d="M20 40C31.046 40 40 31.046 40 20C40 8.954 31.046 0 20 0C8.954 0 0 8.954 0 20C0 31.046 8.954 40 20 40Z" fill="#7E8A97"/>
<mask id="mask0_55068_190739" style="mask-type:luminance" maskUnits="userSpaceOnUse" x="11" y="9" width="19" height="23">
<path fill-rule="evenodd" clip-rule="evenodd" d="M11 9H29.46V31.3523H11V9Z" fill="white"/>
</mask>
<g mask="url(#mask0_55068_190739)">
<path fill-rule="evenodd" clip-rule="evenodd" d="M18.1031 9.23719C14.1078 10.1291 10.8644 14.4529 11.0044 18.5435C11.121 21.9772 13.1993 25.0359 19.4206 31.027C19.8705 31.4594 20.5876 31.4613 21.0374 31.0289C27.4482 24.8552 29.4605 21.7945 29.4605 18.2306C29.4605 12.4377 24.1262 7.89245 18.1031 9.23719Z" fill="#FCBC00"/>
</g>
<path fill-rule="evenodd" clip-rule="evenodd" d="M17.655 14.7427C18.4294 14.7427 19.058 15.3703 19.058 16.1457C19.058 16.9201 18.4294 17.5487 17.655 17.5487C16.8796 17.5487 16.252 16.9201 16.252 16.1457C16.252 15.3703 16.8796 14.7427 17.655 14.7427Z" fill="#020203"/>
<path fill-rule="evenodd" clip-rule="evenodd" d="M20.2271 23.2597C18.1905 23.2597 16.4912 22.0666 16.1035 20.4818C16.016 20.1233 16.361 19.792 16.804 19.792H23.6492C24.0922 19.792 24.4381 20.1233 24.3497 20.4818C23.962 22.0656 22.2636 23.2597 20.2271 23.2597Z" fill="#E83850"/>
<path fill-rule="evenodd" clip-rule="evenodd" d="M22.9953 17.5487C22.22 17.5487 21.5923 16.9201 21.5923 16.1457C21.5923 15.3703 22.22 14.7427 22.9953 14.7427C23.7707 14.7427 24.3984 15.3703 24.3984 16.1457C24.3984 16.9201 23.7707 17.5487 22.9953 17.5487Z" fill="#020203"/>
</g>
<defs><clipPath id="clip0_55068_190739"><rect width="40" height="40" fill="white"/></clipPath></defs>
</svg>
