<svg width="40" height="40" viewBox="0 0 40 40" fill="none" xmlns="http://www.w3.org/2000/svg">
<g clip-path="url(#clip0_55068_190329)">
<path opacity="0.4" fill-rule="evenodd" clip-rule="evenodd" d="M20 40C31.046 40 40 31.046 40 20C40 8.954 31.046 0 20 0C8.954 0 0 8.954 0 20C0 31.046 8.954 40 20 40Z" fill="#8B95A1"/>
<path fill-rule="evenodd" clip-rule="evenodd" d="M31 20C31 26.075 26.075 31 20 31C13.925 31 9 26.075 9 20C9 13.925 13.925 9 20 9C26.075 9 31 13.925 31 20Z" fill="white"/>
<path fill-rule="evenodd" clip-rule="evenodd" d="M19.9998 18.7348C20.2385 18.7348 20.4674 18.8296 20.6362 18.9984C20.805 19.1672 20.8998 19.3961 20.8998 19.6348V24.6348C20.8998 24.8735 20.805 25.1024 20.6362 25.2712C20.4674 25.44 20.2385 25.5348 19.9998 25.5348C19.7611 25.5348 19.5322 25.44 19.3634 25.2712C19.1946 25.1024 19.0998 24.8735 19.0998 24.6348V19.6348C19.0998 19.3961 19.1946 19.1672 19.3634 18.9984C19.5322 18.8296 19.7611 18.7348 19.9998 18.7348ZM19.9998 14.7998C20.3181 14.7998 20.6233 14.9262 20.8483 15.1513C21.0734 15.3763 21.1998 15.6815 21.1998 15.9998C21.1998 16.3181 21.0734 16.6233 20.8483 16.8483C20.6233 17.0734 20.3181 17.1998 19.9998 17.1998C19.6815 17.1998 19.3763 17.0734 19.1513 16.8483C18.9262 16.6233 18.7998 16.3181 18.7998 15.9998C18.7998 15.6815 18.9262 15.3763 19.1513 15.1513C19.3763 14.9262 19.6815 14.7998 19.9998 14.7998Z" fill="#333D4B"/>
</g>
<defs><clipPath id="clip0_55068_190329"><rect width="40" height="40" fill="white"/></clipPath></defs>
</svg>
