<svg width="30" height="30" viewBox="0 0 30 30" fill="none" xmlns="http://www.w3.org/2000/svg">
<path d="M13.8467 8.13878C14.5381 7.65068 15.4619 7.65068 16.1533 8.13878L21.5586 11.9542C22.0894 12.329 22.4053 12.9382 22.4053 13.588V20.6769C22.4052 21.7814 21.5098 22.6769 20.4053 22.6769H17.6354C17.4144 22.6769 17.2354 22.4978 17.2354 22.2769V18.5515C17.2354 18.3306 17.0563 18.1515 16.8354 18.1515H13.1646C12.9437 18.1515 12.7646 18.3306 12.7646 18.5515V22.2769C12.7646 22.4978 12.5856 22.6769 12.3646 22.6769H9.59473C8.4902 22.6769 7.5948 21.7814 7.59473 20.6769V13.588C7.59473 12.9382 7.91057 12.329 8.44141 11.9542L13.8467 8.13878Z" fill="currentColor"/>
</svg>
