<svg width="140" height="140" viewBox="0 0 140 140" fill="none" xmlns="http://www.w3.org/2000/svg">
<rect width="140" height="140" rx="24" fill="#5AD39F"/>
<g clip-path="url(#clip0_285_2139)">
<path d="M25.47 61.3461H18.975C17.884 61.3461 17 60.4621 17 59.3711V48.6291C17 47.5381 17.884 46.6541 18.975 46.6541H25.47V61.3461Z" fill="#26B52E"/>
<path d="M25.47 61.346V46.654L43.944 37.894C45.254 37.273 46.765 38.228 46.765 39.679V68.322C46.765 69.772 45.254 70.728 43.944 70.107L25.47 61.346Z" fill="#A4EB8F"/>
<path d="M46.7649 50.327H49.0249C50.1159 50.327 50.9999 51.211 50.9999 52.302V55.698C50.9999 56.789 50.1159 57.673 49.0249 57.673H46.7649" fill="#26B52E"/>
</g>
<path d="M19.0469 89.75C19.0469 92.1875 19.7188 94.5 21.7188 95.5625L20.5469 97.1406C19.3125 96.4688 18.5156 95.3203 18.0469 93.9062C17.5391 95.4766 16.6875 96.7891 15.4062 97.5625L14.1562 96.1094C16.2969 94.8281 17.0938 92.2969 17.1094 89.8906V87.4375H19.0469V89.75ZM26.75 86.2188V100.438H24.8438V93.3594H23.6094V99.7812H21.7344V86.4219H23.6094V91.7656H24.8438V86.2188H26.75ZM41.2656 97.2188V98.8594H28.25V97.2188H33.7344V95.0781H29.75V90.2969H37.7969V88.7344H29.7344V87.1406H39.7656V91.8594H31.75V93.4531H40.0938V95.0781H35.7188V97.2188H41.2656ZM55.0781 93.1406V94.7344H49.6875V97.2031H47.6719V94.7344H42.0625V93.1406H55.0781ZM53.6406 98.5781V100.188H43.6094V95.9375H45.625V98.5781H53.6406ZM48.5625 86.4844C51.6406 86.5 53.6875 87.6406 53.7031 89.4375C53.6875 91.25 51.6406 92.375 48.5625 92.375C45.4688 92.375 43.4062 91.25 43.4062 89.4375C43.4062 87.6406 45.4688 86.5 48.5625 86.4844ZM48.5625 88.0625C46.7188 88.0625 45.5469 88.5312 45.5625 89.4375C45.5469 90.3125 46.7188 90.7812 48.5625 90.7812C50.3906 90.7812 51.5625 90.3125 51.5625 89.4375C51.5625 88.5312 50.3906 88.0625 48.5625 88.0625ZM20.8281 117.078C23.9375 117.078 25.8906 118.062 25.9062 119.766C25.8906 121.438 23.9375 122.438 20.8281 122.438C17.75 122.438 15.7656 121.438 15.7656 119.766C15.7656 118.062 17.75 117.078 20.8281 117.078ZM20.8281 118.562C18.875 118.562 17.75 118.969 17.75 119.766C17.75 120.531 18.875 120.922 20.8281 120.922C22.7812 120.922 23.9219 120.531 23.9219 119.766C23.9219 118.969 22.7812 118.562 20.8281 118.562ZM25.8281 108.859V110.016C25.8281 111.141 25.8281 112.359 25.4219 113.828L23.4688 113.641C23.7812 112.352 23.8203 111.391 23.8438 110.422H15.9062V108.859H25.8281ZM27.3594 114.562V116.172H14.4531V114.562H19.2969V112.078H21.2656V114.562H27.3594ZM33.7656 112.094C33.7656 114.391 34.9375 116.844 37.3281 117.844L36.25 119.406C34.5703 118.695 33.4141 117.281 32.7812 115.547C32.1328 117.43 30.9531 118.992 29.2812 119.766L28.1406 118.188C30.5 117.141 31.7188 114.5 31.7188 112.094V111.219H28.7031V109.594H36.7344V111.219H33.7656V112.094ZM40.1562 108.219V122.438H38.1406V108.219H40.1562ZM47.3125 111.438C47.2969 113.984 48.3906 116.562 50.6719 117.656L49.4688 119.25C47.9453 118.5 46.9219 117.094 46.3281 115.375C45.7109 117.219 44.6094 118.727 43 119.516L41.7656 117.906C44.1719 116.797 45.3125 114.078 45.3125 111.438V109.312H47.3125V111.438ZM53.2969 108.219V113.703H55.3906V115.391H53.2969V122.438H51.2969V108.219H53.2969ZM67.1875 108.219V111.859H69.1094V113.516H67.1875V117.25H65.1875V108.219H67.1875ZM62.5469 117.375C65.4688 117.375 67.3438 118.328 67.3438 119.922C67.3438 121.484 65.4688 122.438 62.5469 122.438C59.5625 122.438 57.7188 121.484 57.7344 119.922C57.7188 118.328 59.5625 117.375 62.5469 117.375ZM62.5469 118.891C60.6875 118.891 59.6875 119.219 59.7031 119.922C59.6875 120.594 60.6875 120.953 62.5469 120.953C64.3594 120.953 65.3438 120.594 65.3438 119.922C65.3438 119.219 64.3594 118.891 62.5469 118.891ZM64.3438 109.578V111.125H55.9062V109.578H59.1406V108.141H61.125V109.578H64.3438ZM60.125 111.609C62.1875 111.609 63.625 112.656 63.625 114.172C63.625 115.703 62.1875 116.719 60.125 116.719C58.0312 116.719 56.5938 115.703 56.5938 114.172C56.5938 112.656 58.0312 111.609 60.125 111.609ZM60.125 113.062C59.1719 113.062 58.5312 113.453 58.5469 114.172C58.5312 114.875 59.1719 115.25 60.125 115.234C61.0781 115.25 61.7344 114.875 61.7344 114.172C61.7344 113.453 61.0781 113.062 60.125 113.062Z" fill="white"/>
<defs>
<clipPath id="clip0_285_2139">
<rect width="40" height="40" fill="white" transform="translate(14 34)"/>
</clipPath>
</defs>
</svg>
