<svg width="40" height="40" viewBox="0 0 40 40" fill="none" xmlns="http://www.w3.org/2000/svg">
<path d="M31.171 3H8.82904C7.22004 3 5.91504 4.305 5.91504 5.914V6.885C5.91504 8.494 7.22004 9.799 8.82904 9.799H31.172C32.781 9.799 34.086 11.104 34.086 12.713V10.77C34.086 9.161 32.781 7.856 31.172 7.856H8.82904C8.29304 7.856 7.85804 7.421 7.85804 6.885V5.914C7.85804 5.378 8.29304 4.943 8.82904 4.943H31.172C32.782 4.943 34.086 6.248 34.086 7.857V5.914C34.086 4.304 32.78 3 31.171 3Z" fill="#3787FF"/>
<path d="M31.171 9.79999H8.82904C7.22004 9.79999 5.91504 8.49499 5.91504 6.88599V13.088C5.94404 13.084 5.97004 13.071 6.00104 13.071H7.85804C8.27204 13.071 8.60804 13.407 8.60804 13.821C8.60804 14.235 8.27204 14.571 7.85804 14.571H6.00104C5.97104 14.571 5.94504 14.557 5.91504 14.554V19.528C5.94404 19.524 5.97004 19.511 6.00104 19.511H7.85804C8.27204 19.511 8.60804 19.847 8.60804 20.261C8.60804 20.675 8.27204 21.011 7.85804 21.011H6.00104C5.97104 21.011 5.94504 20.997 5.91504 20.994V25.967C5.94404 25.963 5.97004 25.95 6.00104 25.95H7.85804C8.27204 25.95 8.60804 26.286 8.60804 26.7C8.60804 27.114 8.27204 27.45 7.85804 27.45H6.00104C5.97104 27.45 5.94504 27.436 5.91504 27.433V32.406C5.94404 32.402 5.97004 32.389 6.00104 32.389H7.85804C8.27204 32.389 8.60804 32.725 8.60804 33.139C8.60804 33.553 8.27204 33.889 7.85804 33.889H6.00104C5.97104 33.889 5.94504 33.875 5.91504 33.872V34.088C5.91504 35.697 7.22004 37.002 8.82904 37.002H31.172C32.781 37.002 34.086 35.697 34.086 34.088V12.714C34.086 11.104 32.78 9.79999 31.171 9.79999Z" fill="#3787FF"/>
<path d="M31.1709 4.94289H8.82891C8.29291 4.94289 7.85791 5.37789 7.85791 5.91389V6.88489C7.85791 7.42189 8.29291 7.85589 8.82891 7.85589H31.1719C32.7819 7.85589 34.0859 9.1609 34.0859 10.7699V7.85589C34.0859 6.24689 32.7809 4.94189 31.1719 4.94189L31.1709 4.94289Z" fill="#E5E8EB"/>
<path d="M5.25003 13.8199C5.25003 13.4359 5.54303 13.1319 5.91403 13.0869V13.0519C5.25503 13.0049 4.72803 12.4689 4.72803 11.7979C4.72803 11.1269 5.25503 10.5899 5.91403 10.5439V9.03491C4.42603 9.08191 3.22803 10.2989 3.22803 11.7979C3.22803 13.2969 4.42603 14.5139 5.91403 14.5609V14.5519C5.54203 14.5079 5.25003 14.2039 5.25003 13.8199Z" fill="#65778E"/>
<path d="M5.25003 20.2599C5.25003 19.8759 5.54303 19.5719 5.91403 19.5269V19.4919C5.25503 19.4449 4.72803 18.9079 4.72803 18.2369C4.72803 17.5659 5.25503 17.0289 5.91403 16.9829V15.4739C4.42603 15.5209 3.22803 16.7379 3.22803 18.2369C3.22803 19.7359 4.42603 20.9539 5.91403 21.0009V20.9919C5.54203 20.9479 5.25003 20.6439 5.25003 20.2599Z" fill="#65778E"/>
<path d="M5.25003 26.6979C5.25003 26.3139 5.54303 26.0099 5.91403 25.9649V25.9299C5.25503 25.8829 4.72803 25.3459 4.72803 24.6749C4.72803 24.0039 5.25503 23.4669 5.91403 23.4209V21.9119C4.42603 21.9589 3.22803 23.1759 3.22803 24.6749C3.22803 26.1739 4.42603 27.3919 5.91403 27.4389V27.4299C5.54203 27.3859 5.25003 27.0819 5.25003 26.6979Z" fill="#65778E"/>
<path d="M5.25003 33.1368C5.25003 32.7528 5.54303 32.4488 5.91403 32.4038V32.3688C5.25503 32.3218 4.72803 31.7848 4.72803 31.1138C4.72803 30.4428 5.25503 29.9058 5.91403 29.8598V28.3508C4.42603 28.3978 3.22803 29.6148 3.22803 31.1138C3.22803 32.6128 4.42603 33.8308 5.91403 33.8778V33.8688C5.54203 33.8248 5.25003 33.5208 5.25003 33.1368Z" fill="#65778E"/>
<path d="M5.25 33.137C5.25 33.521 5.543 33.825 5.914 33.87C5.943 33.874 5.969 33.887 6 33.887H7.857C8.271 33.887 8.607 33.551 8.607 33.137C8.607 32.723 8.271 32.387 7.857 32.387H6C5.97 32.387 5.944 32.401 5.914 32.404C5.542 32.448 5.25 32.753 5.25 33.137Z" fill="#65778E"/>
<path d="M5.25 26.698C5.25 27.082 5.543 27.386 5.914 27.431C5.943 27.435 5.969 27.448 6 27.448H7.857C8.271 27.448 8.607 27.112 8.607 26.698C8.607 26.284 8.271 25.948 7.857 25.948H6C5.97 25.948 5.944 25.962 5.914 25.965C5.542 26.009 5.25 26.314 5.25 26.698Z" fill="#65778E"/>
<path d="M5.25 20.26C5.25 20.644 5.543 20.948 5.914 20.993C5.943 20.997 5.969 21.01 6 21.01H7.857C8.271 21.01 8.607 20.674 8.607 20.26C8.607 19.846 8.271 19.51 7.857 19.51H6C5.97 19.51 5.944 19.524 5.914 19.527C5.542 19.571 5.25 19.876 5.25 20.26Z" fill="#65778E"/>
<path d="M5.25 13.8198C5.25 14.2038 5.543 14.5078 5.914 14.5528C5.943 14.5568 5.969 14.5698 6 14.5698H7.857C8.271 14.5698 8.607 14.2338 8.607 13.8198C8.607 13.4058 8.271 13.0698 7.857 13.0698H6C5.97 13.0698 5.944 13.0838 5.914 13.0868C5.542 13.1308 5.25 13.4358 5.25 13.8198Z" fill="#65778E"/>
</svg>
