<svg width="24" height="24" viewBox="0 0 24 24" fill="none" xmlns="http://www.w3.org/2000/svg">
<style>
  .spk { transform-box: fill-box; transform-origin: center; animation: acornTwinkle 1.5s ease-in-out infinite; }
  .spk-b { animation-delay: 0.55s; animation-duration: 1.8s; }
  @keyframes acornTwinkle {
    0%, 100% { opacity: 0.25; transform: scale(0.55) rotate(-8deg); }
    50%      { opacity: 1;    transform: scale(1.15) rotate(8deg); }
  }
  @media (prefers-reduced-motion: reduce) {
    .spk { animation: none; opacity: 0.95; transform: none; }
  }
</style>
<path d="M12.1201 1.91992H12.0001C10.6201 1.91992 9.6001 2.51992 9.6001 3.29992V4.67992H14.5201V3.29992C14.5201 2.51992 13.5001 1.91992 12.1201 1.91992Z" fill="#FFB600"/>
<path d="M13.3198 21.9599L12.9598 22.0799C12.3598 22.2599 11.7598 22.2599 11.1598 22.0799L10.7998 21.9599C6.3598 20.6999 3.2998 16.6199 3.2998 11.9999V8.87988H20.8798V11.9999C20.8798 16.6799 17.7598 20.6999 13.3198 21.9599Z" fill="#FFB600"/>
<path d="M3.6002 9.18012H20.5202C21.9002 9.18012 22.5002 7.44012 21.4202 6.60012C15.9002 2.40012 8.4002 2.40012 2.8802 6.42012L2.76019 6.54012C1.62019 7.38012 2.2202 9.18012 3.6002 9.18012Z" fill="#FFD650"/>
<path class="spk" fill-rule="evenodd" clip-rule="evenodd" d="M16.4401 17.1575L15.6001 17.3975C15.1201 17.5775 14.8201 17.8775 14.6401 18.3575L14.3401 19.2575C14.2201 19.4375 13.9801 19.4375 13.9801 19.2575L13.7401 18.4175C13.5601 17.9375 13.2601 17.6375 12.7801 17.4575L11.8801 17.1575C11.7001 17.0375 11.7001 16.7975 11.8801 16.7975L12.6601 16.5575C13.1401 16.3775 13.4401 16.0775 13.6201 15.5975L13.9201 14.6975C14.0401 14.5175 14.2801 14.5175 14.2801 14.6975L14.5201 15.5375C14.7001 15.9575 15.0601 16.3175 15.5401 16.4975L16.3801 16.7375C16.6201 16.8575 16.6201 17.0975 16.4401 17.1575Z" fill="#FFFF9C"/>
<path class="spk spk-b" fill-rule="evenodd" clip-rule="evenodd" d="M19.6201 11.3375L18.3601 11.6975C17.6401 11.9375 17.1601 12.4775 16.9201 13.1375L16.4401 14.4575C16.3201 14.6975 16.0201 14.6975 15.9601 14.4575L15.6001 13.1975C15.3601 12.4775 14.8201 11.9975 14.1601 11.7575L12.7801 11.2775C12.5401 11.1575 12.5401 10.8575 12.7801 10.7975L13.9801 10.4375C14.7001 10.1975 15.1801 9.6575 15.4201 8.9975L15.9601 7.6175C16.0801 7.3775 16.3801 7.3775 16.4401 7.6175L16.8001 8.8775C17.0401 9.5375 17.5201 10.0775 18.2401 10.3775L19.5001 10.7375C19.8601 10.8575 19.8601 11.2175 19.6201 11.3375Z" fill="#FFFF9C"/>
</svg>
