<svg width="24" height="24" viewBox="0 0 24 24" fill="none" xmlns="http://www.w3.org/2000/svg">
<path d="M19.3451 2.25H4.64512C3.31963 2.25 2.24512 3.32452 2.24512 4.65V19.35C2.24512 20.6755 3.31963 21.75 4.64512 21.75H19.3451C20.6706 21.75 21.7451 20.6755 21.7451 19.35V4.65C21.7451 3.32452 20.6706 2.25 19.3451 2.25Z" fill="#E6E8EB"/>
<path d="M12.0639 16.2259C14.3979 16.2259 16.2899 14.3339 16.2899 11.9999C16.2899 9.66598 14.3979 7.77393 12.0639 7.77393C9.72994 7.77393 7.83789 9.66598 7.83789 11.9999C7.83789 14.3339 9.72994 16.2259 12.0639 16.2259Z" stroke="white" stroke-width="1.8" stroke-linecap="round" stroke-linejoin="round"/>
<path d="M13.1709 13.1069L16.0889 16.0259" stroke="white" stroke-width="1.8" stroke-linecap="round" stroke-linejoin="round"/>
</svg>
