<svg width="100" height="100" viewBox="0 0 100 100" fill="none" xmlns="http://www.w3.org/2000/svg">
<circle cx="50.0001" cy="50.0001" r="36.5778" fill="#FF6767"/>
<path d="M65.4915 29.467C66.8844 28.074 69.1425 28.074 70.5354 29.467C71.9284 30.8599 71.9284 33.1179 70.5354 34.5109L56.8777 48.1686C55.8656 49.1807 55.8656 50.8216 56.8777 51.8337L70.5345 65.4904C71.9272 66.8834 71.9273 69.1414 70.5345 70.5344C69.1415 71.9272 66.8835 71.9271 65.4905 70.5344L51.8338 56.8776C50.8217 55.8655 49.1808 55.8655 48.1687 56.8776L34.512 70.5344C33.119 71.9271 30.8609 71.9272 29.468 70.5344C28.0753 69.1415 28.0754 66.8834 29.468 65.4904L43.1248 51.8337C44.1369 50.8216 44.1369 49.1807 43.1248 48.1686L29.4671 34.5109C28.0741 33.118 28.0741 30.8599 29.4671 29.467C30.86 28.074 33.118 28.074 34.511 29.467L48.1688 43.1247C49.1808 44.1368 50.8217 44.1368 51.8338 43.1247L65.4915 29.467Z" fill="white"/>
</svg>
