<svg width="100" height="100" viewBox="0 0 100 100" fill="none" xmlns="http://www.w3.org/2000/svg">
<circle cx="50.0001" cy="50.0001" r="36.5778" fill="#6EA0FF"/>
<path d="M49.9983 26.86C62.7777 26.86 73.1387 37.2202 73.1389 49.9996L73.1311 50.5973C72.8142 63.1008 62.5781 73.1403 49.9983 73.1403L49.4026 73.1315C36.8988 72.815 26.8597 62.5797 26.8596 49.9996C26.8598 37.2204 37.2191 26.8603 49.9983 26.86ZM49.9983 33.9948C41.159 33.9951 33.9936 41.1604 33.9934 49.9996C33.9934 58.839 41.159 66.0061 49.9983 66.0065C58.8379 66.0065 66.0051 58.8392 66.0051 49.9996C66.0049 41.1602 58.8378 33.9948 49.9983 33.9948Z" fill="white"/>
</svg>
