<svg width="1024" height="1024" viewBox="0 0 1024 1024" fill="none" xmlns="http://www.w3.org/2000/svg">
<g clip-path="url(#clip0_249_1824)">
<path d="M882.2 464.249C981.994 651.861 785.302 839.93 677.933 910.031L160.84 593.318C487.932 305.801 782.407 276.637 882.2 464.249Z" fill="#3787FF"/>
<mask id="mask0_249_1824" style="mask-type:alpha" maskUnits="userSpaceOnUse" x="54" y="49" width="567" height="577">
<path d="M620.374 308.806C407.688 317.588 163.559 520.492 63.7639 625.802C5.98832 421.636 238.995 156.859 362.721 49.9907L620.374 308.806Z" fill="#D9D9D9"/>
</mask>
<g mask="url(#mask0_249_1824)">
<path d="M727.745 595.56C721.767 599.779 715.465 604.082 708.871 608.442L590.737 414.846L727.745 595.56ZM399.403 162.476C278.228 222.241 129.762 380.053 129.034 552.762C84.0701 370.367 257.348 186.133 359.404 109.717L399.403 162.476Z" fill="#6EA8FF"/>
</g>
<mask id="mask1_249_1824" style="mask-type:alpha" maskUnits="userSpaceOnUse" x="54" y="49" width="567" height="577">
<path d="M620.374 308.806C407.688 317.588 163.559 520.492 63.7639 625.802C5.9883 421.636 238.995 156.859 362.72 49.9907L620.374 308.806Z" fill="#D9D9D9"/>
</mask>
<g mask="url(#mask1_249_1824)">
<path d="M141.728 729.061C56.1631 464.138 307.247 254.928 501.858 206.494L781.776 854.16C602.133 924.647 227.293 993.983 141.728 729.061Z" fill="#E7F1FF"/>
</g>
<mask id="mask2_249_1824" style="mask-type:alpha" maskUnits="userSpaceOnUse" x="54" y="49" width="567" height="577">
<path d="M620.374 308.806C407.688 317.588 163.559 520.492 63.7639 625.802C5.9883 421.636 238.995 156.859 362.72 49.9907L620.374 308.806Z" fill="#D9D9D9"/>
</mask>
<g mask="url(#mask2_249_1824)">
<path d="M771.804 711.581C758.95 718.837 744.85 726.291 729.735 733.741L594.769 421.459L771.804 711.581ZM469.344 215.916C323.583 263.947 159.226 394.618 129.309 567.028C120.96 374.397 300.73 197.32 428.92 149.668L469.344 215.916Z" fill="#B3D2FF"/>
</g>
</g>
<defs>
<clipPath id="clip0_249_1824">
<rect width="1024" height="1024" fill="white"/>
</clipPath>
</defs>
</svg>
