<svg width="965" height="350" viewBox="0 0 965 350" fill="none" xmlns="http://www.w3.org/2000/svg">
<path d="M300.73 158.257C334.749 222.211 267.699 286.322 231.098 310.218L54.828 202.255C166.329 104.244 266.712 94.3023 300.73 158.257Z" fill="#3787FF"/>
<mask id="mask0_286_2622" style="mask-type:alpha" maskUnits="userSpaceOnUse" x="18" y="17" width="194" height="197">
<path d="M211.477 105.268C138.975 108.262 55.7549 177.429 21.7359 213.328C2.04094 143.731 81.4701 53.4715 123.647 17.0415L211.477 105.268Z" fill="#D9D9D9"/>
</mask>
<g mask="url(#mask0_286_2622)">
<path d="M248.079 203.02C246.041 204.458 243.893 205.925 241.645 207.411L201.374 141.416L248.079 203.02ZM136.151 55.3867C94.8441 75.7599 44.2339 129.556 43.9857 188.43C28.6581 126.254 87.7263 63.4511 122.516 37.4019L136.151 55.3867Z" fill="#6EA8FF"/>
</g>
<mask id="mask1_286_2622" style="mask-type:alpha" maskUnits="userSpaceOnUse" x="18" y="17" width="194" height="197">
<path d="M211.477 105.268C138.975 108.262 55.7549 177.429 21.7359 213.328C2.04094 143.731 81.4701 53.4715 123.646 17.0415L211.477 105.268Z" fill="#D9D9D9"/>
</mask>
<g mask="url(#mask1_286_2622)">
<path d="M48.3129 248.528C19.1448 158.219 104.736 86.9019 171.077 70.3914L266.497 291.172C205.259 315.201 77.4809 338.836 48.3129 248.528Z" fill="#E7F1FF"/>
</g>
<mask id="mask2_286_2622" style="mask-type:alpha" maskUnits="userSpaceOnUse" x="18" y="17" width="194" height="197">
<path d="M211.477 105.268C138.975 108.262 55.7549 177.429 21.7359 213.328C2.04094 143.731 81.4701 53.4715 123.646 17.0415L211.477 105.268Z" fill="#D9D9D9"/>
</mask>
<g mask="url(#mask2_286_2622)">
<path d="M263.097 242.57C258.716 245.043 253.909 247.584 248.757 250.124L202.748 143.671L263.097 242.57ZM159.993 73.6038C110.305 89.977 54.2774 134.521 44.079 193.293C41.233 127.628 102.514 67.2647 146.213 51.0208L159.993 73.6038Z" fill="#B3D2FF"/>
</g>
<path d="M884.966 225.004L857.968 290.634H888.039L964.643 102.964H933.475L899.672 189.446H873.307C874.671 202.405 883.081 208.503 884.966 225.004Z" fill="#3787FF"/>
<path d="M761.551 234.003C730.602 234.003 698.336 209.42 698.336 167.276C698.336 124.694 729.504 100.33 761.99 100.33C778.672 100.33 793.597 106.915 803.036 118.109V58.435H832.887V231.369H803.255V214.688C793.817 226.76 778.452 234.003 761.551 234.003ZM766.38 206.786C788.549 206.786 804.792 189.007 804.792 166.837C804.792 144.888 788.549 127.328 766.38 127.328C744.43 127.328 727.529 144.668 727.529 166.837C727.529 189.226 744.43 206.786 766.38 206.786Z" fill="#3787FF"/>
<path d="M614.291 234.003C583.342 234.003 551.076 209.42 551.076 167.277C551.076 124.694 582.245 100.33 614.73 100.33C631.631 100.33 646.557 107.134 655.996 118.329V102.964H685.628V231.37H655.996V214.688C646.557 226.76 631.192 234.003 614.291 234.003ZM619.12 206.786C641.289 206.786 657.532 189.007 657.532 166.838C657.532 144.888 641.289 127.328 619.12 127.328C597.17 127.328 580.269 144.668 580.269 166.838C580.269 189.226 597.17 206.786 619.12 206.786Z" fill="#3787FF"/>
<path d="M467.254 129.524V102.964H489.204V83.4293L519.055 63.0161V102.964H545.175V129.524H519.055V177.593C519.055 199.982 522.348 203.494 545.175 203.494V231.37H541.005C501.276 231.37 489.204 218.639 489.204 177.813V129.524H467.254Z" fill="#3787FF"/>
<path d="M411.625 233.565C382.871 233.565 363.775 221.273 349.069 204.811L376.286 183.3C384.408 197.348 396.699 205.03 411.406 205.03C427.209 205.03 435.77 194.714 435.77 183.519C435.77 170.13 419.308 165.74 402.406 160.472C380.676 153.448 356.97 145.327 356.97 114.817C356.97 89.1358 379.359 68.9421 410.089 68.9421C435.77 68.9421 450.915 78.8195 463.865 92.2088L439.282 110.866C432.477 100.55 422.819 95.5012 410.308 95.5012C395.602 95.5012 387.92 103.403 387.92 113.719C387.92 126.67 403.065 130.401 420.624 136.328C442.355 143.351 466.938 153.009 466.938 183.739C466.938 208.981 446.745 233.565 411.625 233.565Z" fill="#3787FF"/>
<path d="M822.67 103.01C860.843 125.445 889.834 165.627 899.656 189.625L885.259 225.313C867.043 169.057 827.008 139.015 809.819 129.974L822.67 103.01Z" fill="#3787FF"/>
</svg>
