<svg width="140" height="140" viewBox="0 0 140 140" fill="none" xmlns="http://www.w3.org/2000/svg">
<rect width="140" height="140" rx="24" fill="#FF9CB2"/>
<g clip-path="url(#clip0_285_2147)">
<path d="M23.787 73.589C23.518 73.589 23.245 73.52 22.995 73.375C22.235 72.937 21.974 71.966 22.414 71.206L29.832 58.357C30.27 57.598 31.24 57.336 32.001 57.776C32.761 58.214 33.022 59.185 32.582 59.945L25.164 72.794C24.87 73.304 24.337 73.589 23.787 73.589Z" fill="#4B596A"/>
<path d="M48.8549 43.871L35.6169 36.228C34.4949 35.58 33.0929 36.39 33.0929 37.685V40.042C33.0929 43.048 31.4899 45.825 28.8869 47.328L19.1459 52.952C18.0239 53.6 18.0239 55.219 19.1459 55.866L40.0829 67.954C41.2049 68.602 42.6069 67.792 42.6069 66.497V55.249C42.6069 52.243 44.2099 49.466 46.8129 47.963L48.8549 46.784C49.9769 46.136 49.9769 44.517 48.8549 43.87V43.871Z" fill="#EF4452"/>
</g>
<path d="M21.9062 88.0938C21.9062 90.1719 23.75 92.4062 26.9688 92.9531L26.0938 94.6094C23.6172 94.1172 21.7734 92.7266 20.8594 90.8906C19.9141 92.7109 18.0703 94.1094 15.6094 94.6094L14.75 92.9531C17.9062 92.3906 19.7656 90.1562 19.7812 88.0938V87.0625H21.9062V88.0938ZM27.4375 97.0469V98.6875H14.4219V97.0469H27.4375ZM35.5469 87.3906V89.0156H30.8281V91.3594H35.3438V92.9219H30.8281V95.6094C32.8672 95.5938 34.5234 95.5078 36.4219 95.2031L36.6094 96.8125C34.4375 97.1406 32.5 97.2031 30.0156 97.2031H28.8125V87.3906H35.5469ZM39.4688 86.2188V91.6094H41.5625V93.2812H39.4688V100.438H37.4688V86.2188H39.4688ZM53.9844 86.2188V100.469H51.9688V86.2188H53.9844ZM49.8594 87.4688V89.0938H44.9375V95.3906C47.4844 95.3828 49.0469 95.3281 50.8438 95L51.0312 96.6406C49.0625 97.0156 47.25 97.0781 44.1719 97.0781H42.9375V87.4688H49.8594ZM19.6719 112.094C19.6562 114.266 20.8125 116.766 23.1562 117.844L22.0469 119.406C20.4609 118.68 19.3281 117.227 18.7031 115.516C18.0625 117.398 16.8984 118.992 15.25 119.766L14.0938 118.188C16.4688 117.078 17.6562 114.438 17.6719 112.094V111.219H14.6562V109.594H22.5312V111.219H19.6719V112.094ZM25.6406 108.219V113.641H27.7344V115.312H25.6406V122.438H23.6406V108.219H25.6406ZM41.2188 116.062V117.656H35.6875V122.438H33.7188V117.656H28.25V116.062H41.2188ZM40.0625 108.969V110.531H35.9219C36.1172 111.922 37.6875 113.32 40.6094 113.672L39.8906 115.234C37.3906 114.898 35.6016 113.828 34.75 112.359C33.875 113.828 32.1016 114.898 29.625 115.234L28.8906 113.672C31.7656 113.32 33.3516 111.922 33.5781 110.531H29.4219V108.969H40.0625ZM53.6875 120.703V122.281H43.6094V117.453H47.5625V116.219H42.0781V114.625H55.0469V116.219H49.5312V117.453H53.5469V119.047H45.6094V120.703H53.6875ZM53.4062 108.688V113.609H43.6875V108.688H53.4062ZM45.6406 110.266V112.047H51.4531V110.266H45.6406ZM67.4531 112.094V113.656H57.5156V108.719H59.5V112.094H67.4531ZM68.9062 115.188V116.75H55.8906V115.188H68.9062ZM67.5469 120.531V122.125H57.3906V117.906H59.3906V120.531H67.5469ZM85.3125 108.219V115.516H83.3281V108.219H85.3125ZM85.3281 116.078V119.875H77.7656V120.812H85.7188V122.344H75.8125V118.453H83.3438V117.594H75.7812V116.078H85.3281ZM81.8281 108.875V110.469H78.9844C79.125 111.891 80.1875 113.266 82.375 113.844L81.4219 115.375C79.7734 114.922 78.6328 113.969 78 112.75C77.3438 114.109 76.1406 115.18 74.3906 115.672L73.4844 114.094C75.7031 113.484 76.7891 111.984 76.9219 110.469H74.0156V108.875H81.8281ZM100.25 115.25V116.828H94.8906V119.281H92.9219V116.828H87.2344V115.25H100.25ZM98.5781 108.844V114.078H88.8594V108.844H98.5781ZM90.8125 110.391V112.531H96.625V110.391H90.8125ZM98.8125 120.594V122.188H88.7656V118.047H90.75V120.594H98.8125Z" fill="white"/>
<defs>
<clipPath id="clip0_285_2147">
<rect width="40" height="40" fill="white" transform="translate(14 34)"/>
</clipPath>
</defs>
</svg>
