<svg width="40" height="40" viewBox="0 0 40 40" fill="none" xmlns="http://www.w3.org/2000/svg">
<g clip-path="url(#clip0_286_2607)">
<path d="M11.4749 16.3421L14.4559 13.0061L10.7749 11.8871C10.5729 11.8261 10.4249 11.6851 10.3299 11.5171C10.1279 12.1601 9.98293 12.8271 9.91793 13.5161C9.87393 13.9891 9.86193 14.4561 9.88193 14.9141C9.88193 14.9141 9.92093 14.9091 9.97793 14.9081C10.2129 14.9071 10.8709 15.0301 11.4749 16.3421Z" fill="#333333"/>
<path d="M23.1108 13.746C24.9618 14.65 26.9548 15.332 28.6308 15.22C28.7308 15.213 28.8468 15.178 28.9618 15.13C29.2528 14.966 29.4978 14.678 29.7238 14.712C29.7338 14.714 29.7448 14.707 29.7548 14.71C29.7698 13.704 29.6238 12.734 29.3608 11.812C29.3148 11.837 29.2778 11.872 29.2248 11.888L23.1108 13.746Z" fill="#333333"/>
<path d="M28.6309 15.2201C26.9549 15.3311 24.9619 14.6491 23.1109 13.7461L20.4979 14.5401C20.1729 14.6391 19.8259 14.6391 19.5009 14.5401L14.4559 13.0071L11.4749 16.3431C10.8699 15.0311 10.2129 14.9091 9.97793 14.9101C9.18993 15.5011 8.67993 16.4021 8.67993 17.4211C8.67993 19.2011 10.1999 20.6411 12.0999 20.6611C13.1699 23.0911 15.3199 24.9211 17.9399 25.5611V28.4111C17.9399 29.5511 18.8699 30.4811 20.0099 30.4811C21.1499 30.4811 22.0799 29.5511 22.0799 28.4111V25.5611C24.6899 24.9111 26.8299 23.0811 27.8999 20.6611C29.7999 20.6411 31.3199 19.2011 31.3199 17.4211C31.3199 16.2791 30.6799 15.2861 29.7229 14.7131C29.4979 14.6791 29.2519 14.9671 28.9609 15.1311C28.8469 15.1801 28.7309 15.2151 28.6299 15.2211L28.6309 15.2201Z" fill="#FFCCA8"/>
<path d="M17.5769 17.8671C18.0839 17.8671 18.4949 17.3737 18.4949 16.7651C18.4949 16.1565 18.0839 15.6631 17.5769 15.6631C17.0699 15.6631 16.6589 16.1565 16.6589 16.7651C16.6589 17.3737 17.0699 17.8671 17.5769 17.8671Z" fill="black"/>
<path d="M22.4229 17.8671C22.9299 17.8671 23.3409 17.3737 23.3409 16.7651C23.3409 16.1565 22.9299 15.6631 22.4229 15.6631C21.9159 15.6631 21.5049 16.1565 21.5049 16.7651C21.5049 17.3737 21.9159 17.8671 22.4229 17.8671Z" fill="black"/>
<path d="M21.142 21.1082C21.348 21.1082 21.495 21.3062 21.44 21.5052C21.266 22.1372 20.687 22.6012 20 22.6012C19.313 22.6012 18.734 22.1372 18.56 21.5052C18.505 21.3062 18.652 21.1082 18.858 21.1082H21.142Z" fill="#5C2F17"/>
<path d="M20.0099 30.4801C18.8699 30.4801 17.9399 29.5501 17.9399 28.4101V26.7341C17.4199 26.8421 16.9059 26.9831 16.4039 27.1741L12.4359 28.6821C10.5259 29.4081 8.94491 30.7701 7.94291 32.5161C7.53191 33.2321 7.27191 34.0251 7.07391 34.8261L6.56691 36.8871C6.48991 37.1991 6.72591 37.5001 7.04691 37.5001H32.9529C33.2739 37.5001 33.5099 37.1991 33.4329 36.8871L32.9259 34.8261C32.7289 34.0241 32.4679 33.2321 32.0569 32.5161C31.0549 30.7711 29.4739 29.4081 27.5639 28.6821L23.5959 27.1741C23.1009 26.9861 22.5929 26.8461 22.0799 26.7391V28.4101C22.0799 29.5501 21.1499 30.4801 20.0099 30.4801Z" fill="#333333"/>
<path d="M33.9269 5.65501L20.5919 2.56701C20.2029 2.47701 19.7979 2.47701 19.4089 2.56701L6.07391 5.65501C5.86191 5.70401 5.85591 6.00301 6.06591 6.06101L7.70091 6.51001V6.38001C7.70091 6.27001 7.78091 6.17001 7.89091 6.14001L17.1609 3.95001C17.2909 3.92001 17.4209 4.00001 17.4509 4.13001C17.4909 4.27001 17.4009 4.40001 17.2709 4.43001L8.19091 6.58001V6.64501L11.7449 7.62201L10.2899 10.808C10.1799 11.049 10.2119 11.307 10.3319 11.518C10.4279 11.686 10.5749 11.827 10.7769 11.888L14.4579 13.007L19.5029 14.54C19.8279 14.639 20.1749 14.639 20.4999 14.54L23.1129 13.746L29.2259 11.888C29.2779 11.872 29.3159 11.837 29.3619 11.812C29.7169 11.62 29.8889 11.192 29.7129 10.808L28.2579 7.62201L33.9369 6.06101C34.1469 6.00301 34.1399 5.70401 33.9289 5.65501H33.9269Z" fill="#262626"/>
<path d="M17.27 4.4299C17.4 4.3999 17.49 4.2699 17.45 4.1299C17.42 3.9999 17.29 3.9199 17.16 3.9499L7.89001 6.1399C7.78001 6.1699 7.70001 6.2699 7.70001 6.3799V12.2799C7.30001 12.3799 7.01001 12.7499 7.01001 13.1799C7.01001 13.6999 7.43001 14.1199 7.95001 14.1199C8.47001 14.1199 8.89001 13.6999 8.89001 13.1799C8.89001 12.7399 8.59001 12.3799 8.19001 12.2699V6.5799L17.27 4.4299Z" fill="#FFAA00"/>
</g>
<defs>
<clipPath id="clip0_286_2607">
<rect width="40" height="40" fill="white"/>
</clipPath>
</defs>
</svg>
