<svg width="24" height="24" viewBox="0 0 24 24" fill="none" xmlns="http://www.w3.org/2000/svg">
<path d="M9.55579 21.2611L4.59479 17.4651C4.00079 17.0111 3.54579 16.4001 3.28079 15.7011L1.08779 9.93211C0.59379 8.63411 0.80579 7.17211 1.64779 6.06811L3.60879 3.49511C4.36879 2.49711 5.55179 1.91211 6.80579 1.91211H17.1958C18.4508 1.91211 19.6338 2.49811 20.3938 3.49711L22.3528 6.07011C23.1938 7.17511 23.4058 8.63511 22.9118 9.93311L20.7178 15.7021C20.4518 16.4011 19.9968 17.0121 19.4028 17.4661L14.4408 21.2621C12.9988 22.3651 10.9968 22.3641 9.55579 21.2611Z" fill="#E6E6E6"/>
<path d="M20.5422 7.21703L18.8022 4.93203C18.3792 4.37703 17.7222 4.05103 17.0252 4.05103H6.97622C6.27922 4.05103 5.62122 4.37703 5.19922 4.93103L3.45722 7.21703C2.98922 7.83103 2.87122 8.64303 3.14622 9.36503L5.23722 14.863C5.38522 15.251 5.63822 15.591 5.96822 15.843L10.6412 19.419C11.4422 20.032 12.5552 20.032 13.3562 19.419L18.0312 15.842C18.3612 15.59 18.6142 15.25 18.7622 14.862L20.8532 9.36303C21.1272 8.64203 21.0102 7.83003 20.5422 7.21503V7.21703Z" fill="#A2A2A2"/>
<path d="M16.4331 8.96094L14.6951 10.7359L12.5961 7.50794C12.4661 7.30794 12.2481 7.21194 12.0271 7.21094C11.8051 7.21094 11.5881 7.30794 11.4581 7.50794L9.35909 10.7359L7.62109 8.96094C7.11409 8.69894 6.52909 9.13994 6.64209 9.69894L6.67909 14.0959C6.76509 14.5199 7.13809 14.8249 7.57009 14.8249C10.4071 13.5599 13.6471 13.5599 16.4841 14.8249C16.9171 14.8249 17.2891 14.5199 17.3751 14.0959L17.4121 9.69894C17.5261 9.13994 16.9401 8.69794 16.4331 8.96094Z" fill="#EAEAEA"/>
<path d="M11.9562 10.4254L10.9825 11.3991C10.9048 11.4768 10.9048 11.6028 10.9825 11.6805L11.9562 12.6542C12.0339 12.7319 12.1599 12.7319 12.2376 12.6542L13.2113 11.6805C13.289 11.6028 13.289 11.4768 13.2113 11.3991L12.2376 10.4254C12.1599 10.3477 12.0339 10.3477 11.9562 10.4254Z" fill="#48C8FF"/>
</svg>
