<svg width="24" height="24" viewBox="0 0 24 24" fill="none" xmlns="http://www.w3.org/2000/svg">
<path d="M9.55579 21.2611L4.59479 17.4651C4.00079 17.0111 3.54579 16.4001 3.28079 15.7011L1.08779 9.93211C0.59379 8.63411 0.80579 7.17211 1.64779 6.06811L3.60879 3.49511C4.36879 2.49711 5.55179 1.91211 6.80579 1.91211H17.1958C18.4508 1.91211 19.6338 2.49811 20.3938 3.49711L22.3528 6.07011C23.1938 7.17511 23.4058 8.63511 22.9118 9.93311L20.7178 15.7021C20.4518 16.4011 19.9968 17.0121 19.4028 17.4661L14.4408 21.2621C12.9988 22.3651 10.9968 22.3641 9.55579 21.2611Z" fill="#CACACA"/>
<path d="M20.5422 7.21703L18.8022 4.93203C18.3792 4.37703 17.7222 4.05103 17.0252 4.05103H6.97622C6.27922 4.05103 5.62122 4.37703 5.19922 4.93103L3.45722 7.21703C2.98922 7.83103 2.87122 8.64303 3.14622 9.36503L5.23722 14.863C5.38522 15.251 5.63822 15.591 5.96822 15.843L10.6412 19.419C11.4422 20.032 12.5552 20.032 13.3562 19.419L18.0312 15.842C18.3612 15.59 18.6142 15.25 18.7622 14.862L20.8532 9.36303C21.1272 8.64203 21.0102 7.83003 20.5422 7.21503V7.21703Z" fill="#929292"/>
<path d="M16.282 8.39688L14.601 10.1129L12.496 6.87588C12.366 6.67588 12.147 6.57888 11.926 6.57788C11.704 6.57788 11.485 6.67488 11.356 6.87588L9.25097 10.1129L7.50797 8.33288C7.11897 8.01688 6.47897 8.45088 6.52697 9.07388L6.56297 13.4829C6.51297 13.9919 7.05097 14.3959 7.45597 14.2129C10.301 12.9449 13.55 12.9449 16.394 14.2129C16.817 14.3979 17.338 13.9759 17.287 13.4829L17.323 9.07388C17.323 8.32488 16.716 7.99188 16.28 8.39688H16.282Z" fill="#D1D1D1"/>
</svg>
