<svg width="24" height="24" viewBox="0 0 24 24" fill="none" xmlns="http://www.w3.org/2000/svg">
<g clip-path="url(#clip0_55463_485)">
<path d="M11.3776 0.183094C9.19057 1.91809 6.43357 3.04309 3.41457 3.29809C2.74057 3.35509 2.33057 4.06309 2.62357 4.67209L3.73157 6.97109C3.81957 7.15409 3.84757 7.36009 3.81257 7.56009L2.14857 16.8941C1.92857 18.1301 2.52857 19.3671 3.63657 19.9581L10.6356 23.6951C11.4886 24.1501 12.5116 24.1501 13.3646 23.6951L20.3636 19.9581C21.4706 19.3671 22.0716 18.1301 21.8516 16.8941L20.1876 7.56009C20.1516 7.36009 20.1806 7.15409 20.2686 6.97109L21.3706 4.68309C21.6646 4.07409 21.2546 3.36609 20.5806 3.30909C17.5826 3.05409 14.8156 1.92809 12.6156 0.183094C12.2496 -0.107906 11.7436 -0.107906 11.3776 0.183094Z" fill="#57EEFF"/>
<path d="M4.39844 16.6909L5.98144 6.27693C6.06844 5.70693 6.44744 5.22493 6.98044 5.00593L11.3764 3.19893C11.7764 3.03493 12.2244 3.03493 12.6244 3.19893L17.0234 5.00593C17.5564 5.22493 17.9364 5.70793 18.0224 6.27793L19.6034 16.6909C19.7074 17.3789 19.3674 18.0579 18.7534 18.3849L12.7734 21.5779C12.2904 21.8359 11.7104 21.8359 11.2274 21.5779L5.24844 18.3849C4.63444 18.0569 4.29444 17.3789 4.39844 16.6909Z" fill="#48C8FF"/>
<path d="M15.9081 9.6121L14.3471 11.2061L12.3921 8.2001C12.2711 8.0141 12.0681 7.9241 11.8621 7.9231C11.6561 7.9231 11.4521 8.0131 11.3321 8.2001L9.37714 11.2061L7.75814 9.5531C7.39614 9.2591 6.80214 9.6631 6.84714 10.2411L6.88114 14.3361C6.83414 14.8091 7.33414 15.1841 7.71114 15.0141C10.3531 13.8361 13.3711 13.8361 16.0131 15.0141C16.4061 15.1861 16.8901 14.7941 16.8431 14.3361L16.8771 10.2411C16.8771 9.5461 16.3141 9.2361 15.9081 9.6121Z" fill="#FAE6FF"/>
</g>
<defs>
<clipPath id="clip0_55463_485">
<rect width="24" height="24" fill="white"/>
</clipPath>
</defs>
</svg>
