<svg width="24" height="24" viewBox="0 0 24 24" fill="none" xmlns="http://www.w3.org/2000/svg">
<path d="M7.79916 0.677979C7.05416 0.677979 6.33516 0.954979 5.78316 1.45598L3.24316 3.75998C2.33816 4.58098 2.02616 5.86498 2.44816 7.01198C2.95716 8.39698 3.24116 9.93198 3.24116 11.548C3.24116 13.001 3.01216 14.388 2.59716 15.66C2.15916 17.002 2.78416 18.464 4.00616 19.17L10.5002 22.919C10.9642 23.187 11.4822 23.321 12.0002 23.321V0.677979H7.79916Z" fill="#89FF9F"/>
<path d="M13.5 22.92L19.994 19.171C21.216 18.465 21.841 17.002 21.403 15.661C20.988 14.389 20.759 13.002 20.759 11.549C20.759 9.93195 21.043 8.39796 21.552 7.01296C21.973 5.86596 21.661 4.58195 20.756 3.76095L18.216 1.45696C17.664 0.955955 16.946 0.678955 16.201 0.678955H12V23.322C12.518 23.322 13.036 23.188 13.5 22.92Z" fill="#35E59B"/>
<path d="M5.7251 17.3731C5.1391 17.0351 4.8481 16.3451 5.0301 15.6931C5.4061 14.3401 5.6011 12.9161 5.6011 11.4831C5.6011 9.82412 5.3401 8.18112 4.8391 6.64312C4.6581 6.08712 4.7921 5.47712 5.2261 5.08412L7.1231 3.36312C7.3991 3.11312 7.7581 2.97412 8.1311 2.97412H15.8681C16.2411 2.97412 16.6001 3.11312 16.8761 3.36312L18.7731 5.08412C19.2061 5.47712 19.3411 6.08712 19.1601 6.64312C18.6591 8.18012 18.3981 9.82412 18.3981 11.4841C18.3981 12.9161 18.5931 14.3401 18.9691 15.6941C19.1501 16.3461 18.8601 17.0351 18.2741 17.3741L12.7511 20.5631C12.2871 20.8311 11.7151 20.8311 11.2511 20.5631L5.7271 17.3741L5.7251 17.3731Z" fill="#6EFF70"/>
<path d="M16.1542 9.09999L14.5512 10.736L12.5442 7.64899C12.4202 7.45799 12.2122 7.36599 12.0002 7.36499C11.7882 7.36499 11.5802 7.45799 11.4562 7.64899L9.44917 10.736L7.78717 9.03899C7.41617 8.73699 6.80517 9.15199 6.85217 9.74599L6.88717 13.951C6.83917 14.437 7.35217 14.822 7.73917 14.648C10.4522 13.438 13.5502 13.438 16.2632 14.648C16.6662 14.824 17.1632 14.422 17.1152 13.951L17.1502 9.74599C17.1502 9.03199 16.5722 8.71399 16.1562 9.09999H16.1542Z" fill="#FAE6FF"/>
</svg>
