<svg width="24" height="24" viewBox="0 0 24 24" fill="none" xmlns="http://www.w3.org/2000/svg">
<path fill-rule="evenodd" clip-rule="evenodd" d="M23.7472 3.61805V8.60905C23.7472 8.87405 23.6042 9.11805 23.3742 9.24705L19.6602 11.331C19.4352 11.458 19.1592 11.457 18.9352 11.328L13.5732 8.22305L22.6412 2.98605C23.1302 2.69705 23.7472 3.05005 23.7472 3.61805Z" fill="#CE5CEA"/>
<path fill-rule="evenodd" clip-rule="evenodd" d="M0.25293 3.61803V8.60903C0.25293 8.87403 0.39593 9.11803 0.62593 9.24703L4.33993 11.331C4.56493 11.458 4.84093 11.457 5.06493 11.328L10.4269 8.22303L1.35893 2.98703C0.86993 2.69803 0.25293 3.05003 0.25293 3.61803Z" fill="#CE5CEA"/>
<path d="M21.7693 15.8919V8.10792C21.7693 7.01992 21.1883 6.01392 20.2463 5.46992L13.5053 1.57792C12.5633 1.03392 11.4013 1.03392 10.4593 1.57792L3.71831 5.46992C2.77631 6.01392 2.19531 7.01992 2.19531 8.10792V15.8919C2.19531 16.9799 2.77631 17.9859 3.71831 18.5299L10.4593 22.4219C11.4013 22.9659 12.5633 22.9659 13.5053 22.4219L20.2463 18.5299C21.1883 17.9859 21.7693 16.9799 21.7693 15.8919Z" fill="#E98FFF"/>
<path d="M19.591 15.322V8.67698C19.591 8.01498 19.238 7.40198 18.664 7.07098L12.909 3.74898C12.335 3.41798 11.628 3.41798 11.055 3.74898L5.30005 7.07098C4.72605 7.40198 4.37305 8.01398 4.37305 8.67698V15.322C4.37305 15.984 4.72605 16.597 5.30005 16.928L11.055 20.25C11.629 20.581 12.336 20.581 12.909 20.25L18.664 16.928C19.238 16.597 19.591 15.985 19.591 15.322Z" fill="#C242DD"/>
<path d="M16.5563 9.43905L14.7913 11.2411L12.5813 7.84205C12.4443 7.63205 12.2153 7.53005 11.9823 7.52905C11.7493 7.52905 11.5193 7.63105 11.3833 7.84205L9.17329 11.2411L7.34329 9.37205C6.93429 9.04005 6.26229 9.49605 6.31329 10.1501L6.35129 14.7801C6.29829 15.3151 6.86329 15.7391 7.28929 15.5471C10.2763 14.2151 13.6883 14.2151 16.6753 15.5471C17.1193 15.7411 17.6663 15.2981 17.6133 14.7801L17.6513 10.1501C17.6513 9.36405 17.0143 9.01405 16.5563 9.43905Z" fill="white"/>
<path d="M16.5563 9.43905L14.7913 11.2411L12.5813 7.84205C12.4443 7.63205 12.2153 7.53005 11.9823 7.52905C11.7493 7.52905 11.5193 7.63105 11.3833 7.84205L9.17329 11.2411L7.34329 9.37205C6.93429 9.04005 6.26229 9.49605 6.31329 10.1501L6.35129 14.7801C6.29829 15.3151 6.86329 15.7391 7.28929 15.5471C10.2763 14.2151 13.6883 14.2151 16.6753 15.5471C17.1193 15.7411 17.6663 15.2981 17.6133 14.7801L17.6513 10.1501C17.6513 9.36405 17.0143 9.01405 16.5563 9.43905Z" fill="#FAE6FF"/>
</svg>
