<svg width="40" height="40" viewBox="0 0 40 40" fill="none" xmlns="http://www.w3.org/2000/svg">
<g clip-path="url(#clip0_55372_2998)">
<path d="M36.1199 24.5979H21.1099C20.5096 24.5979 20.0229 25.0846 20.0229 25.6849V30.8279C20.0229 31.4282 20.5096 31.9149 21.1099 31.9149H36.1199C36.7203 31.9149 37.2069 31.4282 37.2069 30.8279V25.6849C37.2069 25.0846 36.7203 24.5979 36.1199 24.5979Z" fill="#8A94A0"/>
<path d="M28.6548 24.4789C28.2408 24.4789 27.9048 24.1429 27.9048 23.7289V9.32788C27.9048 8.91388 28.2408 8.57788 28.6548 8.57788C29.0688 8.57788 29.4048 8.91388 29.4048 9.32788V23.7289C29.4048 24.1429 29.0688 24.4789 28.6548 24.4789Z" fill="#4B596A"/>
<path d="M3.83397 12.388L32.017 11.232C32.553 11.21 32.976 10.769 32.976 10.233V8.44004C32.976 7.90404 32.553 7.46304 32.017 7.44104L3.83397 6.28404C3.26597 6.26104 2.79297 6.71504 2.79297 7.28304V11.388C2.79297 11.956 3.26597 12.411 3.83397 12.388Z" fill="#FFCD00"/>
<path d="M30.3511 6.74512H26.8781C26.6207 6.74512 26.4121 6.95375 26.4121 7.21112V11.9211C26.4121 12.1785 26.6207 12.3871 26.8781 12.3871H30.3511C30.6085 12.3871 30.8171 12.1785 30.8171 11.9211V7.21112C30.8171 6.95375 30.6085 6.74512 30.3511 6.74512Z" fill="#FFAA00"/>
<path d="M25.4979 32.6649C25.4079 32.6649 25.3179 32.6489 25.2289 32.6149C24.8419 32.4669 24.6489 32.0329 24.7969 31.6459L28.6549 21.5759L32.5429 31.6439C32.6919 32.0309 32.4999 32.4649 32.1139 32.6139C31.7279 32.7679 31.2929 32.5709 31.1439 32.1849L28.6609 25.7529L26.1969 32.1829C26.0829 32.4809 25.7989 32.6639 25.4969 32.6639L25.4979 32.6649Z" fill="#4B596A"/>
<path d="M13.8958 35.912L12.7308 4.016C12.7108 3.478 12.2698 3.052 11.7318 3.052H7.47183C6.93383 3.052 6.49183 3.478 6.47283 4.016L5.30783 35.912C5.28683 36.478 5.74083 36.948 6.30683 36.948H12.8968C13.4638 36.948 13.9168 36.478 13.8958 35.912Z" fill="#FFAA00"/>
</g>
<defs>
<clipPath id="clip0_55372_2998">
<rect width="40" height="40" fill="white"/>
</clipPath>
</defs>
</svg>
