<svg width="140" height="140" viewBox="0 0 140 140" fill="none" xmlns="http://www.w3.org/2000/svg">
<rect width="140" height="140" rx="24" fill="#A58CFF"/>
<rect x="20.7026" y="41.7181" width="54.2046" height="9.43811" rx="2" transform="rotate(-12.5641 20.7026 41.7181)" fill="#C0AFFF"/>
<rect x="21.0803" y="41.906" width="56.6021" height="9.43811" rx="2" transform="rotate(-7.62577 21.0803 41.906)" fill="white"/>
<rect x="18.1665" y="41.2192" width="65.5615" height="32.7808" rx="3" fill="#895CD2"/>
<path d="M27.2324 62.9647V53.0459H33.8907V54.7447H29.2874V57.1559H33.5482V58.8547H29.2874V61.2659H33.9044V62.9647H27.2324ZM37.4801 58.6629V62.9647H35.4525V55.5256H37.3842V56.8271H37.4664C37.8089 55.964 38.6035 55.4297 39.6995 55.4297C41.2476 55.4297 42.2751 56.4846 42.2614 58.2245V62.9647H40.2475V58.5807C40.2475 57.6628 39.7406 57.1148 38.9049 57.1148C38.0555 57.1148 37.4801 57.6765 37.4801 58.6629ZM47.1797 65.9102C45.1247 65.9102 43.8643 64.9923 43.741 63.5812H45.7412C45.8508 64.1703 46.4125 64.4443 47.2208 64.4443C48.1661 64.4443 48.7964 64.047 48.7964 63.0058V61.6495H48.7005C48.4265 62.2523 47.7688 62.8551 46.5769 62.8551C44.8918 62.8551 43.5492 61.6769 43.5492 59.1972C43.5492 56.6764 44.9329 55.4297 46.5769 55.4297C47.8236 55.4297 48.4265 56.1695 48.7005 56.7723H48.7827V55.5256H50.7966V63.0469C50.7966 64.9375 49.2896 65.9102 47.1797 65.9102ZM47.2071 61.3344C48.2209 61.3344 48.7964 60.5398 48.7964 59.2246C48.7964 57.8957 48.2209 57.0463 47.2071 57.0463C46.1796 57.0463 45.6316 57.9368 45.6316 59.2246C45.6316 60.5124 46.1796 61.3344 47.2071 61.3344ZM54.3997 53.0459V62.9647H52.3721V53.0459H54.3997ZM55.9752 62.9647V55.5256H58.0028V62.9647H55.9752ZM56.989 54.5529C56.3725 54.5529 55.8793 54.0871 55.8793 53.5254C55.8793 52.95 56.3725 52.4842 56.989 52.4842C57.5918 52.4842 58.085 52.95 58.085 53.5254C58.085 54.0871 57.5918 54.5529 56.989 54.5529ZM63.8253 57.7313C63.7431 57.2107 63.2773 56.8682 62.606 56.8682C61.9484 56.8682 61.4415 57.1833 61.4552 57.6354C61.4415 57.9642 61.7155 58.2245 62.4142 58.3752L63.7431 58.6492C65.1816 58.9506 65.8804 59.5945 65.8941 60.6631C65.8804 62.129 64.5651 63.1154 62.5923 63.1154C60.5784 63.1154 59.4002 62.2112 59.2358 60.759H61.2771C61.373 61.3481 61.8525 61.6495 62.5923 61.6495C63.3321 61.6495 63.8253 61.3481 63.8253 60.8686C63.8253 60.485 63.5102 60.2521 62.8115 60.1014L61.5785 59.8548C60.1674 59.5808 59.4276 58.841 59.4413 57.745C59.4276 56.3202 60.6606 55.4297 62.5786 55.4297C64.4555 55.4297 65.62 56.3202 65.7296 57.7313H63.8253ZM69.1684 58.6629V62.9647H67.1408V53.0459H69.1136V56.8271H69.1958C69.5383 55.964 70.2918 55.4297 71.4152 55.4297C72.9633 55.4297 73.9908 56.4709 73.9908 58.2245V62.9647H71.9632V58.5807C71.9632 57.6628 71.47 57.1148 70.6206 57.1148C69.7712 57.1148 69.1684 57.6765 69.1684 58.6629Z" fill="white"/>
<path d="M14 48.6096H19.2151" stroke="#C8C8C8" stroke-width="5" stroke-linecap="round"/>
<path d="M14 57.6096H19.2151" stroke="#C8C8C8" stroke-width="5" stroke-linecap="round"/>
<path d="M14 66.6096H19.2151" stroke="#C8C8C8" stroke-width="5" stroke-linecap="round"/>
<path d="M18.3906 86.9844C19.5234 86.9844 20.5156 87.3984 21.2031 88.0938H24.4219V86.2188H26.4062V94.5469H24.4219V92.8438H21.1875C20.5 93.5312 19.5156 93.9453 18.3906 93.9375C16.2344 93.9531 14.5938 92.4688 14.6094 90.4688C14.5938 88.4375 16.2344 86.9844 18.3906 86.9844ZM18.3906 88.6875C17.2812 88.6875 16.4844 89.3438 16.5 90.4688C16.4844 91.5625 17.2812 92.2656 18.3906 92.25C19.4688 92.2656 20.25 91.5625 20.25 90.4688C20.25 89.3438 19.4688 88.6875 18.3906 88.6875ZM21.5469 94.8438C24.5625 94.8438 26.4375 95.875 26.4531 97.6406C26.4375 99.4062 24.5625 100.438 21.5469 100.438C18.5469 100.438 16.6562 99.4062 16.6562 97.6406C16.6562 95.875 18.5469 94.8438 21.5469 94.8438ZM21.5469 96.3594C19.6562 96.3594 18.6094 96.7812 18.6094 97.6406C18.6094 98.4688 19.6562 98.8906 21.5469 98.8906C23.4688 98.8906 24.5 98.4688 24.5 97.6406C24.5 96.7812 23.4688 96.3594 21.5469 96.3594ZM22.0625 89.6719C22.1094 89.9219 22.1406 90.1953 22.1406 90.4688C22.1406 90.7422 22.1094 91 22.0625 91.25H24.4219V89.6719H22.0625ZM39.5312 86.2188V90.0938H41.4531V91.7344H39.5312V96.5H37.5312V86.2188H39.5312ZM35.2188 87.3594V88.9531H30.7969V92.5469C33.3672 92.5312 34.7812 92.4531 36.375 92.1094L36.5781 93.7031C34.7969 94.0781 33.1562 94.1562 30 94.1562H28.7969V87.3594H35.2188ZM40.0469 98.5938V100.188H30.3125V95.4062H32.2969V98.5938H40.0469ZM46 87.2188C47.9219 87.2188 49.3516 88.8047 49.6406 91.3594H52.1094V86.2188H54.0781V100.469H52.1094V92.9531H49.6562C49.4453 95.6875 47.9844 97.3594 46 97.3594C43.8438 97.3594 42.2969 95.4062 42.3125 92.2812C42.2969 89.1875 43.8438 87.2188 46 87.2188ZM46 89.0156C44.9375 89.0156 44.2031 90.1719 44.2188 92.2812C44.2031 94.4062 44.9375 95.5469 46 95.5469C47.0781 95.5469 47.7812 94.4062 47.7812 92.2812C47.7812 90.1719 47.0781 89.0156 46 89.0156ZM22.7188 109.141V110.016C22.7031 111.18 22.7031 112.758 22.2812 115.031C22.7891 115 23.2891 114.961 23.7812 114.906L23.9219 116.375C22.6094 116.562 21.2734 116.68 19.9531 116.75V121.656H17.9531V116.844C16.7734 116.883 15.6406 116.891 14.5781 116.891L14.3281 115.281C16.1328 115.273 18.2031 115.258 20.2812 115.156C20.4062 114.539 20.5 113.961 20.5781 113.422L15.4375 113.875L15.1719 112.234L20.7188 112C20.7422 111.531 20.7578 111.117 20.7656 110.734H15.5156V109.141H22.7188ZM26.6094 108.219V122.438H24.5938V108.219H26.6094ZM41.2656 119.094V120.719H28.25V119.094H41.2656ZM35.7812 111.031C35.7812 113.016 37.5625 114.891 40.7812 115.375L40 116.953C37.5078 116.516 35.6641 115.297 34.75 113.609C33.8438 115.328 32.0156 116.594 29.5625 117.031L28.7812 115.438C31.8906 114.953 33.6875 113.016 33.6875 111.031V111.016H29.3281V109.422H40.125V111.016H35.7812V111.031Z" fill="white"/>
</svg>
