<svg width="82" height="82" viewBox="0 0 82 82" fill="none" xmlns="http://www.w3.org/2000/svg">
<g clip-path="url(#clip0_128_2222)">
<path d="M42.378 34.7181L37.391 30.3231C36.774 29.7791 35.848 29.7791 35.231 30.3231L25.095 39.2561C24.743 39.5661 24.542 40.0121 24.542 40.4811V52.9521C24.542 54.7561 26.005 56.2191 27.809 56.2191H53.942C55.746 56.2191 57.209 54.7561 57.209 52.9521V27.1681C57.209 25.7621 55.551 25.0131 54.496 25.9431L44.539 34.7181C43.922 35.2621 42.995 35.2621 42.378 34.7181Z" fill="#FDAEB3"/>
<path d="M54.495 25.9429L44.538 34.7179C43.921 35.2619 42.996 35.2619 42.378 34.7179L37.391 30.3229C36.774 29.7789 35.849 29.7789 35.231 30.3229L25.095 39.2549C24.743 39.5649 24.542 40.0119 24.542 40.4809V44.7439L35.231 35.3229C35.849 34.7789 36.774 34.7789 37.391 35.3229L42.378 39.7179C42.996 40.2619 43.921 40.2619 44.538 39.7179L57.208 28.5519V27.1689C57.208 25.7629 55.55 25.0139 54.495 25.9429Z" fill="#EF4452"/>
</g>
<defs>
<clipPath id="clip0_128_2222">
<rect width="40" height="40" fill="white" transform="translate(20.875 20.875)"/>
</clipPath>
</defs>
</svg>
