<svg width="82" height="82" viewBox="0 0 82 82" fill="none" xmlns="http://www.w3.org/2000/svg">
<path d="M30.77 38.669C30.77 37.553 35.295 36.6479 40.875 36.6479C46.455 36.6479 50.98 37.553 50.98 38.669V52.728C50.98 53.844 46.455 54.749 40.875 54.749C35.295 54.749 30.77 53.844 30.77 52.728" fill="#997642"/>
<path d="M38.854 38.669C38.854 37.553 39.759 36.6479 40.875 36.6479C41.991 36.6479 42.896 37.553 42.896 38.669V52.728C42.896 53.844 41.991 54.749 40.875 54.749C39.759 54.749 38.854 53.844 38.854 52.728" fill="#D7BF95"/>
<path d="M50.981 54.748C49.865 54.748 48.96 53.843 48.96 52.727V38.668C48.96 37.552 49.865 36.647 50.981 36.647C52.097 36.647 53.002 37.552 53.002 38.668V52.727C53.002 53.843 52.097 54.748 50.981 54.748Z" fill="#D7BF95"/>
<path d="M30.77 54.748C29.654 54.748 28.749 53.843 28.749 52.727V38.668C28.749 37.552 29.654 36.647 30.77 36.647C31.886 36.647 32.791 37.552 32.791 38.668V52.727C32.791 53.843 31.886 54.748 30.77 54.748Z" fill="#D7BF95"/>
<path d="M42.897 35.392H38.854V41.352H42.897V35.392Z" fill="#C1966B"/>
<path d="M53.002 35.392H48.959V41.352H53.002V35.392Z" fill="#C1966B"/>
<path d="M32.792 35.392H28.749V41.352H32.792V35.392Z" fill="#C1966B"/>
<path fill-rule="evenodd" clip-rule="evenodd" d="M54.688 34.3699L42.1 24.6189C41.379 24.0609 40.371 24.0609 39.65 24.6189L27.062 34.3699V36.2849H54.688V34.3699Z" fill="#D7BF95"/>
<path d="M55.864 52.4969H25.886C25.3276 52.4969 24.875 52.9496 24.875 53.5079V56.5389C24.875 57.0973 25.3276 57.5499 25.886 57.5499H55.864C56.4224 57.5499 56.875 57.0973 56.875 56.5389V53.5079C56.875 52.9496 56.4224 52.4969 55.864 52.4969Z" fill="#E3D6C3"/>
<path fill-rule="evenodd" clip-rule="evenodd" d="M40.8751 32.878C39.5501 32.878 38.4751 31.803 38.4751 30.478C38.4751 29.153 39.5501 28.078 40.8751 28.078C42.2001 28.078 43.2751 29.153 43.2751 30.478C43.2751 31.803 42.2001 32.878 40.8751 32.878Z" fill="#E3D6C3"/>
<path d="M55.864 34.468H25.886C25.3276 34.468 24.875 34.9207 24.875 35.479V38.51C24.875 39.0684 25.3276 39.521 25.886 39.521H55.864C56.4224 39.521 56.875 39.0684 56.875 38.51V35.479C56.875 34.9207 56.4224 34.468 55.864 34.468Z" fill="#E3D6C3"/>
</svg>
