<svg width="82" height="82" viewBox="0 0 82 82" fill="none" xmlns="http://www.w3.org/2000/svg">
<g clip-path="url(#clip0_128_2216)">
<path d="M42.4899 25.465C42.1809 25.256 41.8779 25.037 41.5689 24.832C41.0779 24.506 40.5569 24.535 40.0459 24.896C39.3889 25.36 38.8259 25.941 37.9189 26.037C37.4229 26.09 36.9649 26.557 36.9419 27.203C36.9189 27.835 37.3839 28.152 37.8299 28.385C38.1739 28.564 38.5929 28.458 38.7079 27.974C38.8099 27.545 39.0479 27.259 39.4569 27.113C39.8239 26.983 39.9609 26.663 40.1329 26.352C40.5059 25.678 41.0959 25.612 41.6479 26.143C42.0479 26.529 42.5799 26.942 42.2619 27.528C41.9449 28.112 41.5289 28.689 40.6759 28.705C39.9999 28.718 39.5859 29.346 39.0539 29.692C38.3899 30.124 37.9359 30.13 37.2829 29.698C36.6519 29.28 36.1319 28.655 35.3049 28.569C35.0039 28.538 34.8129 28.331 34.7409 28.038C34.6349 27.608 34.4439 27.251 33.9339 27.362C33.4149 27.475 33.0539 27.851 32.9199 28.349C32.7739 28.892 33.1649 29.089 33.6199 29.209C33.9889 29.307 34.1079 29.585 34.1009 29.957C34.0949 30.305 33.9539 30.552 33.6249 30.633C32.9879 30.79 32.6829 31.139 33.0149 31.766C33.3869 32.469 34.2339 32.728 34.7869 32.35C35.2179 32.056 35.6209 31.722 36.0449 31.419C36.5489 31.06 37.0969 31.027 37.5669 31.423C37.9509 31.746 38.4099 31.942 38.7799 32.293C39.2459 32.734 39.8659 32.559 40.0799 31.961C40.2189 31.574 40.3719 31.291 40.8459 31.289C41.3089 31.286 41.5339 31.516 41.6229 31.935C41.7519 32.539 42.2179 32.516 42.6779 32.512C43.4229 32.506 44.1899 32.405 44.7189 33.144C44.9199 33.424 45.0369 33.704 45.0189 34.045C44.9899 34.611 44.5709 34.954 44.1219 34.637C42.9769 33.831 41.7149 34.151 40.4949 34.111C39.6009 34.082 38.7499 34.097 38.6349 32.904C38.6179 32.729 38.5199 32.647 38.3289 32.673C37.2989 32.814 36.1629 32.54 35.3449 33.485C34.7699 34.148 33.9909 34.12 33.2059 34.106C32.2219 34.088 31.6389 34.538 31.4599 35.519C31.3709 36.007 31.0569 36.353 30.7859 36.658C30.2059 37.312 30.2379 38.047 30.1689 38.822C30.0589 40.056 30.5769 40.914 31.4889 41.658C32.0379 42.105 32.6699 41.993 33.2659 42.059C33.9319 42.133 34.6129 42.075 35.2879 42.077C36.8929 42.081 38.1299 43.287 38.1799 44.91C38.1979 45.511 38.2299 46.116 38.1779 46.713C38.0969 47.637 38.2869 48.466 38.9429 49.125C39.4909 49.675 39.6229 50.317 39.5349 51.039C39.4419 51.802 39.6169 52.527 40.3459 52.796C41.0659 53.061 41.8779 52.986 42.5809 52.568C44.0139 51.716 44.9609 50.572 44.9069 48.776C44.8879 48.161 45.5319 47.849 45.7909 47.343C45.9489 47.035 46.2569 46.778 46.2189 46.407C46.1039 45.289 46.4759 44.29 46.9449 43.323C47.2579 42.677 47.6669 42.076 48.1759 41.57C48.5769 41.172 48.5129 40.933 48.0719 40.637C47.5999 40.319 47.1559 39.965 46.7529 39.545C46.1489 38.917 46.2149 38.183 46.2789 37.435C46.2929 37.276 46.3599 37.061 46.5749 37.053C46.7809 37.046 46.8719 37.24 46.9159 37.402C47.0739 37.983 47.6059 38.366 47.6889 39.004C47.7379 39.384 48.1129 39.372 48.4169 39.237C49.1739 38.902 49.6909 38.291 50.0959 37.607C50.2619 37.328 50.2769 36.939 49.8789 36.686C49.6349 36.531 49.4579 36.272 49.2319 36.082C49.0199 35.904 48.8389 35.725 49.0869 35.468C49.3309 35.216 49.5319 35.403 49.7259 35.578C50.4459 36.226 51.2419 36.659 52.2519 36.696C53.0749 36.726 54.3429 38.104 54.3459 38.936C54.3479 39.562 54.5309 40.057 55.0239 40.441C55.3569 40.701 55.5789 40.626 55.6809 40.23C55.9499 39.18 56.5659 38.361 57.3579 37.66C57.5469 37.493 57.7669 37.328 58.0119 37.331C56.7429 31.166 52.2299 26.188 46.3369 24.252C46.3159 24.315 46.2919 24.376 46.2659 24.429C45.5949 25.836 43.7599 26.329 42.4869 25.467L42.4899 25.465Z" fill="#7BD58F"/>
<path d="M23.375 40.875C23.375 50.54 31.21 58.375 40.875 58.375C50.54 58.375 58.375 50.54 58.375 40.875C58.375 39.66 58.251 38.474 58.015 37.329C57.771 37.326 57.55 37.492 57.361 37.658C56.569 38.359 55.953 39.179 55.684 40.228C55.583 40.624 55.36 40.699 55.027 40.439C54.534 40.054 54.351 39.559 54.349 38.934C54.346 38.102 53.078 36.724 52.255 36.694C51.246 36.657 50.449 36.224 49.729 35.576C49.534 35.401 49.333 35.214 49.09 35.466C48.842 35.722 49.023 35.902 49.235 36.08C49.461 36.27 49.637 36.529 49.882 36.684C50.28 36.937 50.264 37.325 50.099 37.605C49.694 38.289 49.177 38.9 48.42 39.235C48.116 39.37 47.741 39.382 47.692 39.002C47.609 38.364 47.078 37.981 46.919 37.4C46.875 37.238 46.784 37.044 46.578 37.051C46.363 37.058 46.296 37.273 46.282 37.433C46.218 38.181 46.152 38.914 46.756 39.543C47.159 39.962 47.603 40.317 48.075 40.635C48.516 40.932 48.579 41.17 48.179 41.568C47.67 42.074 47.261 42.675 46.948 43.321C46.479 44.289 46.107 45.288 46.222 46.405C46.26 46.776 45.952 47.033 45.794 47.341C45.535 47.847 44.891 48.16 44.91 48.774C44.964 50.57 44.017 51.714 42.584 52.566C41.881 52.984 41.069 53.059 40.349 52.794C39.62 52.525 39.445 51.8 39.538 51.037C39.626 50.315 39.494 49.673 38.946 49.123C38.29 48.465 38.1 47.635 38.181 46.711C38.233 46.114 38.201 45.509 38.183 44.908C38.134 43.285 36.896 42.079 35.291 42.075C34.616 42.073 33.936 42.131 33.269 42.057C32.672 41.991 32.04 42.103 31.492 41.656C30.58 40.912 30.062 40.055 30.172 38.82C30.241 38.045 30.208 37.31 30.789 36.656C31.06 36.351 31.374 36.005 31.463 35.517C31.642 34.536 32.225 34.086 33.209 34.104C33.994 34.119 34.773 34.147 35.348 33.483C36.166 32.538 37.302 32.812 38.332 32.671C38.523 32.645 38.621 32.727 38.638 32.902C38.753 34.095 39.604 34.08 40.498 34.109C41.718 34.149 42.981 33.829 44.125 34.635C44.575 34.952 44.994 34.609 45.022 34.043C45.039 33.702 44.922 33.422 44.722 33.142C44.193 32.403 43.426 32.505 42.681 32.51C42.221 32.513 41.755 32.537 41.626 31.933C41.536 31.514 41.312 31.284 40.849 31.287C40.375 31.29 40.222 31.572 40.083 31.959C39.868 32.557 39.248 32.732 38.783 32.291C38.413 31.94 37.953 31.744 37.57 31.421C37.1 31.025 36.552 31.058 36.048 31.417C35.623 31.72 35.22 32.054 34.79 32.348C34.237 32.726 33.39 32.466 33.018 31.764C32.686 31.137 32.992 30.788 33.628 30.631C33.956 30.55 34.098 30.304 34.104 29.955C34.11 29.584 33.992 29.305 33.623 29.207C33.168 29.087 32.777 28.89 32.923 28.347C33.057 27.849 33.418 27.473 33.937 27.36C34.447 27.249 34.639 27.605 34.744 28.036C34.816 28.329 35.008 28.536 35.308 28.567C36.135 28.654 36.655 29.279 37.286 29.696C37.938 30.128 38.393 30.121 39.057 29.69C39.589 29.344 40.003 28.715 40.679 28.703C41.532 28.687 41.948 28.11 42.265 27.526C42.583 26.941 42.051 26.527 41.651 26.141C41.1 25.61 40.51 25.676 40.136 26.35C39.964 26.66 39.827 26.98 39.46 27.111C39.051 27.256 38.813 27.543 38.711 27.972C38.596 28.457 38.177 28.562 37.833 28.383C37.386 28.15 36.922 27.833 36.945 27.201C36.969 26.556 37.426 26.088 37.922 26.035C38.829 25.938 39.393 25.358 40.049 24.894C40.56 24.533 41.081 24.504 41.572 24.83C41.881 25.035 42.183 25.254 42.493 25.463C43.766 26.325 45.601 25.832 46.272 24.425C46.297 24.372 46.322 24.311 46.343 24.248C44.623 23.683 42.787 23.373 40.878 23.373C31.21 23.375 23.375 31.21 23.375 40.875ZM47.732 48.727C47.828 48.396 47.464 47.716 48.344 47.756C48.639 47.77 48.818 47.867 48.822 48.183C48.827 48.555 48.833 48.926 48.836 49.298C48.839 49.668 48.813 49.979 48.297 49.983C47.8 49.987 47.72 49.718 47.731 49.325C47.736 49.152 47.731 48.978 47.731 48.726L47.732 48.727Z" fill="#2F81F9"/>
<path d="M48.2981 49.9841C48.8141 49.9801 48.8401 49.6691 48.8371 49.2991C48.8341 48.9271 48.8291 48.5561 48.8231 48.1841C48.8191 47.8671 48.6391 47.7701 48.3451 47.7571C47.4651 47.7171 47.8291 48.3971 47.7331 48.7281C47.7331 48.9801 47.7371 49.1541 47.7331 49.3271C47.7221 49.7201 47.8021 49.9891 48.2991 49.9851L48.2981 49.9841Z" fill="#7BD58F"/>
</g>
<defs>
<clipPath id="clip0_128_2216">
<rect width="40" height="40" fill="white" transform="translate(20.875 20.875)"/>
</clipPath>
</defs>
</svg>
