<svg width="82" height="82" viewBox="0 0 82 82" fill="none" xmlns="http://www.w3.org/2000/svg">
<g clip-path="url(#clip0_128_2157)">
<path d="M54.0999 57.875L58.1979 50.778C58.3599 50.497 58.3769 50.154 58.2439 49.858L57.9609 49.233L52.9709 57.876L54.0999 57.875Z" fill="#30B5B5"/>
<path d="M51.7759 46.826L49.5149 50.743L50.1359 57.875H52.9699L57.9599 49.232L53.1529 46.457C52.6709 46.178 52.0549 46.344 51.7759 46.826Z" fill="#88D7D7"/>
<path d="M42.5779 30.475C45.6539 30.475 48.1509 32.972 48.1509 36.048V48.504H37.0059V36.048C37.0059 32.972 39.5029 30.475 42.5789 30.475H42.5779Z" fill="#30B5B5"/>
<path d="M32.9041 36.41L34.3571 38.775C36.2411 41.842 39.5831 43.711 43.1821 43.711H46.1401C49.0001 43.711 51.3191 46.03 51.3191 48.89V57.875H36.6381C35.8191 57.875 35.0771 57.393 34.7451 56.645L30.0261 46.025C29.3771 44.565 29.4391 42.887 30.1921 41.479L32.9031 36.411L32.9041 36.41Z" fill="#109494"/>
<path d="M51.091 34.161L47.73 33.763C47.7 33.669 47.668 33.576 47.631 33.484C47.597 33.4 47.563 33.318 47.524 33.237C47.489 33.165 47.449 33.094 47.409 33.024L50.113 31.57C50.374 31.43 50.263 30.977 49.977 31.013L46.038 31.52C45.896 31.419 45.749 31.323 45.595 31.235L47.359 28.406C47.527 28.136 47.238 27.803 47.004 27.997L43.859 30.597C43.707 30.567 43.551 30.543 43.394 30.524L42.773 26.166C42.726 25.839 42.318 25.839 42.271 26.166L41.645 30.557C41.542 30.574 41.442 30.597 41.341 30.619L38.17 27.997C37.936 27.804 37.647 28.136 37.815 28.406L39.615 31.293C39.488 31.369 39.365 31.449 39.246 31.533L35.197 31.013C34.911 30.976 34.8 31.43 35.061 31.57L37.833 33.061L37.864 33.077C37.773 33.245 37.69 33.417 37.624 33.595C37.606 33.644 37.594 33.697 37.578 33.747L34.083 34.16C33.791 34.194 33.773 34.676 34.061 34.739L37.437 35.482C37.439 35.495 37.443 35.508 37.445 35.521C37.464 35.636 37.484 35.75 37.514 35.861C37.606 36.211 37.752 36.543 37.936 36.857C37.955 36.89 37.969 36.926 37.989 36.958C37.987 36.91 37.98 36.863 37.98 36.815C37.98 36.485 38.039 36.167 38.139 35.861C38.666 34.253 40.487 33.062 42.652 33.062C44.073 33.062 45.346 33.576 46.203 34.383C46.361 34.531 46.502 34.69 46.63 34.858C46.791 35.069 46.917 35.297 47.024 35.533C47.074 35.641 47.128 35.748 47.165 35.862C47.265 36.167 47.324 36.486 47.324 36.816C47.324 36.865 47.317 36.912 47.315 36.959C47.528 36.617 47.689 36.249 47.79 35.862C47.798 35.832 47.801 35.801 47.808 35.771C47.832 35.666 47.856 35.561 47.872 35.453L51.114 34.739C51.402 34.676 51.384 34.194 51.092 34.16L51.091 34.161ZM38.786 33.494L38.771 33.538L38.786 33.493V33.494ZM47.273 34.684C47.264 34.677 47.256 34.669 47.247 34.662C47.255 34.67 47.264 34.677 47.273 34.685V34.684ZM47.254 34.671C47.254 34.671 47.256 34.674 47.257 34.676C47.267 34.691 47.276 34.706 47.286 34.722C47.277 34.707 47.267 34.691 47.257 34.676C47.256 34.674 47.255 34.673 47.254 34.671Z" fill="#109494"/>
<path d="M29.449 32.353H30.772V30.745C30.772 30.081 30.369 29.512 29.795 29.267H25.893C25.319 29.513 24.916 30.082 24.916 30.745C24.916 31.604 25.593 32.291 26.44 32.336H29.454L29.449 32.353Z" fill="#88D7D7"/>
<path d="M32.904 36.41L30.772 32.353L29.448 32.356L28.406 35.673L30.708 40.514L32.904 36.41Z" fill="#88D7D7"/>
<path d="M30.335 22.655C30.422 23.237 30.524 23.57 30.107 23.57C29.54 23.57 29.54 22.229 28.581 21.465C27.633 20.71 26.926 20.893 26.911 20.898C27.701 21.558 27.26 22.642 26.743 22.941C26.247 23.228 25.68 22.866 25.977 22.015C25.325 22.907 24.762 23.987 24.762 25.064C24.762 25.901 25.091 26.655 25.619 27.223H30.267C30.795 26.655 31.124 25.901 31.124 25.064C31.124 24.234 30.789 23.402 30.337 22.655H30.335Z" fill="#109494"/>
<path d="M31.248 27.223H24.44C23.876 27.223 23.418 27.681 23.418 28.245C23.418 28.809 23.876 29.267 24.44 29.267H31.248C31.812 29.267 32.27 28.809 32.27 28.245C32.27 27.681 31.812 27.223 31.248 27.223Z" fill="#30B5B5"/>
<path d="M26.353 32.3371L27.699 36.4161C27.775 36.6471 28.102 36.6441 28.175 36.4131L28.407 35.6741L29.476 32.3391V32.3361L26.353 32.3371Z" fill="#30B5B5"/>
<path d="M42.552 42.032C45.1626 42.032 47.2789 39.9157 47.2789 37.305C47.2789 34.6944 45.1626 32.578 42.552 32.578C39.9413 32.578 37.825 34.6944 37.825 37.305C37.825 39.9157 39.9413 42.032 42.552 42.032Z" fill="#88D7D7"/>
<path d="M40.894 41.3571H44.21V43.5451C44.21 44.4601 43.467 45.2031 42.552 45.2031C41.637 45.2031 40.894 44.4601 40.894 43.5451V41.3571Z" fill="#88D7D7"/>
<path d="M40.7611 38.335C41.241 38.335 41.6301 37.946 41.6301 37.466C41.6301 36.9861 41.241 36.597 40.7611 36.597C40.2812 36.597 39.8921 36.9861 39.8921 37.466C39.8921 37.946 40.2812 38.335 40.7611 38.335Z" fill="#076565"/>
<path d="M44.525 38.335C45.0049 38.335 45.394 37.946 45.394 37.466C45.394 36.9861 45.0049 36.597 44.525 36.597C44.0451 36.597 43.656 36.9861 43.656 37.466C43.656 37.946 44.0451 38.335 44.525 38.335Z" fill="#076565"/>
</g>
<defs>
<clipPath id="clip0_128_2157">
<rect width="40" height="40" fill="white" transform="translate(20.875 20.875)"/>
</clipPath>
</defs>
</svg>
