<svg width="82" height="82" viewBox="0 0 82 82" fill="none" xmlns="http://www.w3.org/2000/svg">
<g clip-path="url(#clip0_128_2194)">
<path d="M53.631 57.7179L53.092 55.5289C52.882 54.6779 52.606 53.8359 52.17 53.0759C51.106 51.2229 49.427 49.7759 47.399 49.0059L43.186 47.4049C42.653 47.2029 42.107 47.0529 41.556 46.9379L39.372 50.0949L37.187 46.9359C36.633 47.0509 36.084 47.2009 35.549 47.4049L31.336 49.0059C29.308 49.7759 27.629 51.2229 26.565 53.0759C26.129 53.8359 25.852 54.6779 25.643 55.5289L25.104 57.7179C25.023 58.0489 25.273 58.3679 25.614 58.3679H53.12C53.461 58.3679 53.712 58.0479 53.631 57.7179Z" fill="#333333"/>
<path d="M43.1739 45.1129H47.0819C47.9369 45.1129 48.6659 44.4909 48.7989 43.6459L49.3549 40.1229C48.8679 40.3509 48.3259 40.4929 47.7439 40.4959C46.8409 42.5409 45.2039 44.1839 43.1729 45.1139L43.1739 45.1129Z" fill="#333333"/>
<path d="M30.9849 40.495C30.2329 40.491 29.5339 40.273 28.9539 39.902L29.9229 43.794C30.1159 44.569 30.8119 45.112 31.6099 45.112H35.5559C33.5249 44.18 31.8839 42.539 30.9849 40.494V40.495Z" fill="#333333"/>
<path d="M30.1448 35.563C30.2328 35.722 30.4468 35.758 30.5688 35.623L36.3578 29.145C36.3578 29.145 43.6918 35.035 48.5318 34.713C48.6388 34.706 48.7618 34.669 48.8828 34.617C49.1958 34.441 49.4598 34.126 49.7008 34.172C49.7088 34.173 49.7168 34.168 49.7238 34.17C49.8208 27.603 43.9158 22.295 37.1408 23.563C32.9108 24.355 29.5248 27.779 28.7818 32.019C28.6478 32.783 28.5968 33.536 28.6198 34.27C28.6218 34.328 28.6668 34.377 28.7248 34.379L28.7268 34.38C28.9608 34.382 29.5598 34.502 30.1438 35.562L30.1448 35.563Z" fill="#333333"/>
<path d="M41.5559 46.9379L41.5609 46.9309C41.5609 46.9309 41.5709 46.9339 41.5749 46.9339V45.6849C42.1319 45.5479 42.6619 45.3469 43.1739 45.1129C45.2049 44.1829 46.8419 42.5399 47.7449 40.4949C48.3269 40.4919 48.8679 40.3509 49.3559 40.1219C50.5609 39.5569 51.3949 38.3999 51.3949 37.0549C51.3949 35.8379 50.7149 34.7829 49.7009 34.1719C49.4589 34.1259 49.1959 34.4409 48.8829 34.6169C48.7619 34.6689 48.6379 34.7059 48.5319 34.7129C43.6919 35.0339 36.3579 29.1449 36.3579 29.1449L30.5689 35.6229C30.4479 35.7589 30.2329 35.7229 30.1449 35.5629C29.5609 34.5019 28.9619 34.3819 28.7279 34.3809L28.7259 34.3799C27.8899 35.0089 27.3459 35.9679 27.3459 37.0549C27.3459 38.2379 27.9839 39.2829 28.9549 39.9019C29.5349 40.2719 30.2339 40.4909 30.9859 40.4949C31.8849 42.5399 33.5259 44.1809 35.5569 45.1129C36.0779 45.3519 36.6179 45.5559 37.1859 45.6949V46.9339L37.1879 46.9369L39.3729 50.0959L41.5569 46.9389L41.5559 46.9379Z" fill="#FFCCA8"/>
<path d="M36.7948 37.524C37.3333 37.524 37.7698 37.0001 37.7698 36.354C37.7698 35.7078 37.3333 35.184 36.7948 35.184C36.2563 35.184 35.8198 35.7078 35.8198 36.354C35.8198 37.0001 36.2563 37.524 36.7948 37.524Z" fill="black"/>
<path d="M41.9408 37.524C42.4793 37.524 42.9158 37.0001 42.9158 36.354C42.9158 35.7078 42.4793 35.184 41.9408 35.184C41.4023 35.184 40.9658 35.7078 40.9658 36.354C40.9658 37.0001 41.4023 37.524 41.9408 37.524Z" fill="black"/>
<path d="M40.5799 40.965C40.7989 40.965 40.9549 41.175 40.8969 41.387C40.7119 42.058 40.0979 42.551 39.3679 42.551C38.6379 42.551 38.0239 42.058 37.8389 41.387C37.7809 41.176 37.9359 40.965 38.1559 40.965H40.5799Z" fill="#5C2F17"/>
<path d="M39.3719 50.1119L35.5139 53.6599C35.5139 53.6599 36.6679 56.8769 39.3789 56.8769C42.0899 56.8769 43.2299 53.6599 43.2299 53.6599L39.3719 50.1119Z" fill="white"/>
<path d="M39.3719 50.1119L39.3649 50.1049L39.3719 50.0949L37.1849 46.9329L37.1829 46.9299C36.0769 47.1269 33.6719 48.1179 33.6719 48.1179L35.5139 53.6599L39.3719 50.1119Z" fill="#C4C4C4"/>
<path d="M39.372 50.0949L39.365 50.1049L39.372 50.1119L43.23 53.6599L45.072 48.1179C45.072 48.1179 42.687 47.1359 41.575 46.9339C41.571 46.9339 41.565 46.9309 41.561 46.9309L39.372 50.0949Z" fill="#C4C4C4"/>
<path d="M56.1848 52.045C55.3348 53.645 53.6648 54.425 52.4448 53.775L49.8248 52.395L46.6648 58.375H44.4548L48.0948 51.475L44.6448 49.655C45.5248 50.125 46.9348 49.205 47.7748 47.605C48.6248 46.005 48.5948 44.335 47.7048 43.865L55.5048 47.985C56.7248 48.625 57.0248 50.445 56.1848 52.045Z" fill="#D16F00"/>
<path d="M47.7799 47.609C48.6249 46.008 48.5909 44.33 47.7029 43.862C46.8149 43.393 45.4109 44.311 44.5649 45.912C43.7199 47.513 43.7539 49.191 44.6419 49.659C45.5299 50.128 46.9339 49.21 47.7789 47.609H47.7799Z" fill="#EBA400"/>
</g>
<defs>
<clipPath id="clip0_128_2194">
<rect width="40" height="40" fill="white" transform="translate(20.875 20.875)"/>
</clipPath>
</defs>
</svg>
