<svg width="16" height="16" viewBox="0 0 16 16" fill="none" xmlns="http://www.w3.org/2000/svg">
<path d="M13.7844 7.25387C15.3437 10.1853 12.2704 13.1239 10.5928 14.2192L2.51318 9.27058C7.624 4.77812 12.2252 4.32244 13.7844 7.25387Z" fill="#3787FF"/>
<mask id="mask0_277_2111" style="mask-type:alpha" maskUnits="userSpaceOnUse" x="0" y="0" width="10" height="10">
<path d="M9.6934 4.82505C6.37018 4.96227 2.55567 8.13265 0.996365 9.77811C0.0936209 6.58802 3.73436 2.45088 5.66757 0.781067L9.6934 4.82505Z" fill="#D9D9D9"/>
</mask>
<g mask="url(#mask0_277_2111)">
<path d="M11.3711 9.30562C11.2776 9.37154 11.1792 9.43878 11.0761 9.5069L9.2303 6.48197L11.3711 9.30562ZM6.24071 2.53868C4.34735 3.47251 2.02757 5.93832 2.01619 8.6369C1.31363 5.78698 4.0211 2.90832 5.61572 1.71432L6.24071 2.53868Z" fill="#6EA8FF"/>
</g>
<mask id="mask1_277_2111" style="mask-type:alpha" maskUnits="userSpaceOnUse" x="0" y="0" width="10" height="10">
<path d="M9.6934 4.82505C6.37019 4.96227 2.55567 8.13265 0.996365 9.77811C0.0936207 6.58802 3.73436 2.45088 5.66756 0.781067L9.6934 4.82505Z" fill="#D9D9D9"/>
</mask>
<g mask="url(#mask1_277_2111)">
<path d="M2.21456 11.3916C0.877598 7.25213 4.80079 3.98322 7.84159 3.22644L12.2153 13.3462C9.40838 14.4476 3.55151 15.531 2.21456 11.3916Z" fill="#E7F1FF"/>
</g>
<mask id="mask2_277_2111" style="mask-type:alpha" maskUnits="userSpaceOnUse" x="0" y="0" width="10" height="10">
<path d="M9.6934 4.82505C6.37019 4.96227 2.55567 8.13265 0.996365 9.77811C0.0936207 6.58802 3.73436 2.45088 5.66756 0.781067L9.6934 4.82505Z" fill="#D9D9D9"/>
</mask>
<g mask="url(#mask2_277_2111)">
<path d="M12.0595 11.1184C11.8586 11.2318 11.6383 11.3483 11.4022 11.4647L9.29331 6.58527L12.0595 11.1184ZM7.33354 3.37366C5.05603 4.12414 2.48795 6.16587 2.0205 8.85978C1.89004 5.84992 4.69895 3.08309 6.70192 2.33853L7.33354 3.37366Z" fill="#B3D2FF"/>
</g>
</svg>
