<svg width="24" height="24" viewBox="0 0 24 24" fill="none" xmlns="http://www.w3.org/2000/svg">
<path fill-rule="evenodd" clip-rule="evenodd" d="M19.5 21.5H4.5C3.96957 21.5 3.46086 21.2893 3.08579 20.9142C2.71071 20.5391 2.5 20.0304 2.5 19.5V4.5C2.5 3.96957 2.71071 3.46086 3.08579 3.08579C3.46086 2.71071 3.96957 2.5 4.5 2.5H19.5C20.0304 2.5 20.5391 2.71071 20.9142 3.08579C21.2893 3.46086 21.5 3.96957 21.5 4.5V19.5C21.5 20.0304 21.2893 20.5391 20.9142 20.9142C20.5391 21.2893 20.0304 21.5 19.5 21.5Z" fill="#B7E4E4"/>
<path fill-rule="evenodd" clip-rule="evenodd" d="M6.66018 14.5401V9.42008C6.66018 8.80008 7.00018 8.46008 7.63018 8.46008H10.7332C11.1192 8.46008 11.3982 8.74408 11.3982 9.14008C11.4018 9.22843 11.3872 9.31659 11.355 9.39898C11.3229 9.48137 11.2741 9.55622 11.2116 9.6188C11.1491 9.68137 11.0744 9.73032 10.992 9.76256C10.9097 9.79479 10.8215 9.80961 10.7332 9.80608H8.34018V11.4711H10.4732C10.8732 11.4711 11.1382 11.7361 11.1382 12.1271C11.1382 12.5181 10.8682 12.7821 10.4732 12.7821H8.34018V14.5391C8.34018 15.1191 8.04618 15.4431 7.51718 15.4431C6.97418 15.4431 6.65918 15.1081 6.65918 14.5391M12.7892 13.2441C13.0332 13.2441 13.2212 13.3351 13.4142 13.5641C13.7642 13.9961 14.1302 14.1991 14.5922 14.1991C15.2622 14.1991 15.7402 13.7471 15.7402 13.0761C15.7402 12.4421 15.2832 12.0061 14.6432 12.0061C14.3282 12.0061 13.9932 12.1271 13.6882 12.3461C13.4342 12.5431 13.2562 12.6041 13.0532 12.6041C12.5562 12.6041 12.1852 12.2541 12.2202 11.7411L12.3882 9.27208C12.4232 8.72908 12.7582 8.45508 13.3932 8.45508H16.2782C16.7662 8.45508 17.0402 8.70508 17.0402 9.13008C17.0402 9.55208 16.7702 9.78508 16.2782 9.78508H13.7282L13.6172 11.2891H13.7042C13.9472 10.9691 14.4962 10.7601 15.0942 10.7601C16.4342 10.7601 17.3402 11.6701 17.3402 13.0311C17.3402 14.5491 16.2532 15.5451 14.5772 15.5451C13.1802 15.5451 12.1192 14.7881 12.1192 13.9701C12.1192 13.5741 12.3782 13.2441 12.7892 13.2441Z" fill="#18A0A0"/>
</svg>
