<svg width="24" height="24" viewBox="0 0 24 24" fill="none" xmlns="http://www.w3.org/2000/svg">
<g clip-path="url(#clip0_55663_3952)">
<path d="M12 24C18.6 24 24 18.6 24 12C24 5.4 18.6 0 12 0C5.4 0 0 5.4 0 12C0 18.6 5.4 24 12 24Z" fill="#3182F6"/>
<path d="M10.2898 9.65511C10.3188 8.63711 10.9928 7.91211 11.9668 7.91211C12.9778 7.91211 13.6518 8.51311 13.6518 9.68411C13.6518 10.5701 13.2928 11.2151 12.1068 12.3871L8.3568 16.1081V17.4411H15.9298V15.6251H11.3378L13.8138 13.2591C15.0298 12.0871 15.8568 11.0321 15.8568 9.55311C15.8568 7.56811 14.5968 6.08911 11.9818 6.08911C9.7768 6.08911 8.1588 7.64911 8.0708 9.64111L10.2898 9.65611V9.65511Z" fill="white"/>
</g>
<defs>
<clipPath id="clip0_55663_3952">
<rect width="24" height="24" fill="white"/>
</clipPath>
</defs>
</svg>
