<svg width="24" height="24" viewBox="0 0 24 24" fill="none" xmlns="http://www.w3.org/2000/svg">
<g clip-path="url(#clip0_55663_3981)">
<mask id="mask0_55663_3981" style="mask-type:luminance" maskUnits="userSpaceOnUse" x="0" y="0" width="24" height="24">
<path d="M0 0H24V24H0V0Z" fill="white"/>
</mask>
<g mask="url(#mask0_55663_3981)">
<mask id="mask1_55663_3981" style="mask-type:luminance" maskUnits="userSpaceOnUse" x="0" y="0" width="24" height="24">
<path d="M0 0H24V24H0V0Z" fill="white"/>
</mask>
<g mask="url(#mask1_55663_3981)">
<path d="M12 24C18.6277 24 24 18.6277 24 12C24 5.37225 18.6277 0 12 0C5.37225 0 0 5.37225 0 12C0 18.6277 5.37225 24 12 24Z" fill="#F2F4F6"/>
</g>
</g>
<path d="M13.0199 9.31887H9.93361C9.58786 9.31887 9.30811 9.03912 9.30811 8.69337C9.30811 8.34762 9.58786 8.06787 9.93361 8.06787H13.9634C14.3654 8.06787 14.6916 8.39412 14.6916 8.79612V8.99787C14.6916 9.10437 14.6684 9.21012 14.6234 9.30612L11.7194 15.5124C11.5994 15.7681 11.3429 15.9316 11.0601 15.9316C10.5269 15.9316 10.1744 15.3766 10.4009 14.8944L13.0206 9.31812L13.0199 9.31887Z" fill="#4E5968"/>
</g>
<defs>
<clipPath id="clip0_55663_3981">
<rect width="24" height="24" fill="white"/>
</clipPath>
</defs>
</svg>
