<svg width="24" height="24" viewBox="0 0 24 24" fill="none" xmlns="http://www.w3.org/2000/svg">
<g clip-path="url(#clip0_55663_3049)">
<path d="M24.0002 18.3V5.7C24.0002 4.2 22.8002 3 21.3002 3H5.2002L9.8002 4.8L5.2002 6.6L9.8002 8.4L5.2002 10.2L9.8002 12L5.2002 13.8L9.8002 15.6L5.2002 17.4L9.8002 19.2L5.2002 21H21.3002C22.8002 21 24.0002 19.8 24.0002 18.3Z" fill="#CF002E"/>
<path d="M2.7 4C1.7 4 1 4.7 1 5.7V18.3C1 19.3 1.7 20 2.7 20H7.8L9.8 19.2L5.2 17.4L9.8 15.6L5.2 13.8L9.8 12L5.2 10.2L9.8 8.4L5.2 6.6L9.8 4.8L7.8 4H2.7Z" fill="#E3E7EA"/>
<path d="M5.2 20H2.7C1.7 20 1 19.3 1 18.3V5.7C1 4.7 1.7 4 2.7 4H7.8L5.2 3H2.7C1.2 3 0 4.2 0 5.7V18.3C0 19.8 1.2 21 2.7 21H5.2L7.8 20H5.2Z" fill="#D2D2DB"/>
</g>
<defs>
<clipPath id="clip0_55663_3049">
<rect width="24" height="24" fill="white"/>
</clipPath>
</defs>
</svg>
