<svg width="24" height="24" viewBox="0 0 24 24" fill="none" xmlns="http://www.w3.org/2000/svg">
<g clip-path="url(#clip0_55663_3967)">
<mask id="mask0_55663_3967" style="mask-type:luminance" maskUnits="userSpaceOnUse" x="0" y="0" width="24" height="24">
<path d="M0 0H24V24H0V0Z" fill="white"/>
</mask>
<g mask="url(#mask0_55663_3967)">
<path d="M12 24C18.6275 24 24 18.6275 24 12C24 5.37258 18.6275 0 12 0C5.37258 0 0 5.37258 0 12C0 18.6275 5.37258 24 12 24Z" fill="#F2F4F6"/>
<path d="M12.0461 15.9148C10.6362 15.9148 9.7698 15.3046 9.42112 14.5766C9.33907 14.4075 9.30322 14.2434 9.30322 14.0896C9.30322 13.6897 9.55957 13.4385 9.98512 13.4385C10.2927 13.4385 10.4875 13.5615 10.6414 13.8435C10.9028 14.3613 11.3027 14.6689 12.0718 14.6689C12.8305 14.6689 13.3535 14.228 13.3535 13.6128C13.3586 12.895 12.8305 12.4951 11.9333 12.4951H11.6104C11.236 12.4951 11.0207 12.2746 11.0207 11.9414C11.0207 11.6184 11.236 11.3928 11.6104 11.3928H11.9128C12.687 11.3928 13.1894 10.9724 13.1894 10.3674C13.1894 9.7727 12.7895 9.3779 12.041 9.3779C11.4155 9.3779 11.0361 9.63935 10.7952 10.1623C10.626 10.5109 10.4465 10.6391 10.0979 10.6391C9.6672 10.6391 9.44677 10.3879 9.44677 10.0137C9.44677 9.8393 9.4827 9.69065 9.55957 9.51635C9.8877 8.79343 10.7285 8.18848 12.0359 8.18848C13.5996 8.18848 14.6557 8.96263 14.6557 10.147C14.6557 11.0852 13.9841 11.7004 13.1125 11.8798V11.9107C14.2148 12.0132 14.9275 12.6592 14.9275 13.6795C14.9275 15.0227 13.7637 15.9148 12.0461 15.9148Z" fill="#4E5968"/>
</g>
</g>
<defs>
<clipPath id="clip0_55663_3967">
<rect width="24" height="24" fill="white"/>
</clipPath>
</defs>
</svg>
