<svg width="24" height="24" viewBox="0 0 24 24" fill="none" xmlns="http://www.w3.org/2000/svg">
<g clip-path="url(#clip0_55663_4131)">
<path fill-rule="evenodd" clip-rule="evenodd" d="M9.16012 2.32991H5.60412C5.55382 2.32926 5.50415 2.31871 5.45793 2.29885C5.41171 2.279 5.36986 2.25024 5.33475 2.21421C5.29965 2.17818 5.27199 2.13559 5.25335 2.08887C5.23471 2.04214 5.22546 1.99221 5.22612 1.94191V1.42491C5.22612 1.20891 5.39612 1.03491 5.60412 1.03491H9.16012C9.36812 1.03491 9.53812 1.20891 9.53812 1.42491V1.94191C9.53812 2.15591 9.36812 2.32991 9.16012 2.32991ZM9.16012 4.00391H5.60412C5.55382 4.00326 5.50415 3.99271 5.45793 3.97285C5.41171 3.953 5.36986 3.92424 5.33475 3.88821C5.29965 3.85218 5.27199 3.80959 5.25335 3.76287C5.23471 3.71614 5.22546 3.66621 5.22612 3.61591V3.09991C5.22612 2.88591 5.39612 2.71191 5.60412 2.71191H9.16012C9.36812 2.71191 9.53812 2.88591 9.53812 3.09991V3.61691C9.53812 3.83091 9.36812 4.00391 9.16012 4.00391ZM9.16012 5.67991H5.60412C5.55374 5.67926 5.50398 5.66867 5.4577 5.64876C5.41141 5.62884 5.36951 5.59999 5.3344 5.56385C5.29928 5.52772 5.27164 5.48501 5.25306 5.43817C5.23448 5.39134 5.22533 5.34129 5.22612 5.29091V4.77391C5.22612 4.55891 5.39612 4.38491 5.60412 4.38491H9.16012C9.36812 4.38491 9.53812 4.55891 9.53812 4.77391V5.29091C9.53812 5.50491 9.36812 5.67991 9.16012 5.67991ZM9.16012 7.35391H5.60412C5.55382 7.35326 5.50415 7.34271 5.45793 7.32285C5.41171 7.303 5.36986 7.27424 5.33475 7.23821C5.29965 7.20218 5.27199 7.15959 5.25335 7.11287C5.23471 7.06614 5.22546 7.01621 5.22612 6.96591V6.44791C5.22612 6.23391 5.39612 6.05991 5.60412 6.05991H9.16012C9.36812 6.05991 9.53812 6.23391 9.53812 6.44791V6.96591C9.53812 7.17991 9.36812 7.35391 9.16012 7.35391Z" fill="#81C7CC"/>
<path fill-rule="evenodd" clip-rule="evenodd" d="M13.3999 19.365H19.3799V22.949C19.3799 23.314 19.0899 23.611 18.7349 23.611H14.0459C13.8726 23.6086 13.7072 23.5376 13.5861 23.4135C13.465 23.2894 13.3981 23.1224 13.3999 22.949V19.365Z" fill="#00818A"/>
<path fill-rule="evenodd" clip-rule="evenodd" d="M19.3659 19.365H13.416C13.4117 19.365 13.4075 19.3635 13.4042 19.3608C13.4009 19.358 13.3987 19.3542 13.3979 19.35L11.0249 1.21995C11.0113 1.12515 11.018 1.02853 11.0446 0.936529C11.0712 0.844526 11.1172 0.759254 11.1793 0.686395C11.2415 0.613535 11.3185 0.554762 11.4052 0.513991C11.4918 0.47322 11.5862 0.451389 11.6819 0.449951H21.099C21.501 0.449951 21.8089 0.812951 21.7559 1.21995L19.3829 19.35C19.3809 19.359 19.3729 19.365 19.3659 19.365Z" fill="#81C7CC"/>
<path fill-rule="evenodd" clip-rule="evenodd" d="M5.88202 23.611H4.56802C4.41578 23.6089 4.27056 23.5466 4.16412 23.4377C4.05769 23.3288 3.99869 23.1823 4.00002 23.03V1.032C4.00002 0.709998 4.25502 0.447998 4.56802 0.447998H5.88202C6.19602 0.447998 6.44902 0.709998 6.44902 1.032V23.029C6.45008 23.1045 6.43624 23.1794 6.40831 23.2495C6.38037 23.3196 6.33889 23.3835 6.28622 23.4376C6.23356 23.4916 6.17075 23.5348 6.10139 23.5645C6.03203 23.5943 5.95749 23.6101 5.88202 23.611Z" fill="#00818A"/>
</g>
<defs>
<clipPath id="clip0_55663_4131">
<rect width="24" height="24" fill="white"/>
</clipPath>
</defs>
</svg>
